<?xml version="1.0" encoding="iso-8859-1"?>
<!-- Generator: Adobe Illustrator 19.0.0, SVG Export Plug-In . SVG Version: 6.00 Build 0)  -->
<svg version="1.1" id="Capa_1" xmlns="http://www.w3.org/2000/svg" xmlns:xlink="http://www.w3.org/1999/xlink" x="0px" y="0px"
	 viewBox="0 0 460 460" style="enable-background:new 0 0 460 460;" xml:space="preserve">
<g>
	<rect x="170" style="fill:#F57B71;" width="60" height="70"/>
	<rect x="230" style="fill:#EA6453;" width="60" height="70"/>
	<path style="fill:#3FC3D8;" d="M130,200h100V70h-60c-47.297,22.47-80,70.673-80,126.52V460h140v-60H130V200z"/>
	<polygon style="fill:#FFFFFF;" points="210,360 210,320 170,320 170,280 210,280 210,240 230,240 230,200 130,200 130,400 230,400 
		230,360 	"/>
	<polygon style="fill:#EF1F4B;" points="290,280 250,280 250,240 210,240 210,280 170,280 170,320 210,320 210,360 250,360 250,320 
		290,320 	"/>
	<polygon style="fill:#FFD152;" points="230,200 230,240 250,240 250,280 290,280 290,320 250,320 250,360 230,360 230,400 330,400 
		330,200 	"/>
	<path style="fill:#1398AD;" d="M290,70h-60v130h100v200H230v60h140V196.52C370,140.673,337.297,92.47,290,70z"/>
</g>
<g>
</g>
<g>
</g>
<g>
</g>
<g>
</g>
<g>
</g>
<g>
</g>
<g>
</g>
<g>
</g>
<g>
</g>
<g>
</g>
<g>
</g>
<g>
</g>
<g>
</g>
<g>
</g>
<g>
</g>
</svg>
