<?xml version="1.0" encoding="iso-8859-1"?>
<!-- Generator: Adobe Illustrator 19.0.0, SVG Export Plug-In . SVG Version: 6.00 Build 0)  -->
<svg version="1.1" id="Capa_1" xmlns="http://www.w3.org/2000/svg" xmlns:xlink="http://www.w3.org/1999/xlink" x="0px" y="0px"
	 viewBox="0 0 460 460" style="enable-background:new 0 0 460 460;" xml:space="preserve">
<g>
	<path style="fill:#FFE292;" d="M0,79.5v300h40.025c0.536-32.674,27.173-59,59.975-59s59.439,26.326,59.975,59H230v-300H0z"/>
	<path style="fill:#FFB743;" d="M320,230.5v-110h60v-41H230v300h70.025c0.536-32.674,27.173-59,59.975-59s59.439,26.326,59.975,59
		H460v-149H320z"/>
	<polygon style="fill:#FFD152;" points="320,120.5 320,230.5 419,230.5 379,120.5 	"/>
	<polygon style="fill:#EA6453;" points="175,181 135,181 135,141 95,141 95,181 55,181 55,221 95,221 95,261 135,261 135,221 
		175,221 	"/>
	<rect x="280" y="19.5" style="fill:#EF1F4B;" width="50" height="60"/>
	<rect x="230" y="19.5" style="fill:#EA6453;" width="50" height="60"/>
	<path style="fill:#0B389C;" d="M360,320.5l0,40c11.046,0,20,8.954,20,20c0,11.046-8.954,20-20,20l0,40c33.137,0,60-26.863,60-60
		C420,347.363,393.137,320.5,360,320.5z"/>
	<path style="fill:#4370D9;" d="M360,400.5c-11.046,0-20-8.954-20-20c0-11.046,8.954-20,20-20L360,320.5
		c-33.137,0.001-60,26.864-59.999,60.001c0,33.136,26.863,60,60,60L360,400.5z"/>
	<circle style="fill:#FFFFFF;" cx="360" cy="380.5" r="20"/>
	<path style="fill:#0B389C;" d="M100,320.5l0,40c11.046,0,20,8.954,20,20c0,11.046-8.954,20-20,20l0,40c33.137,0,60-26.863,60-60
		C159.999,347.363,133.136,320.5,100,320.5z"/>
	<path style="fill:#4370D9;" d="M100,400.5c-11.046,0-20-8.954-20-20c0-11.046,8.954-20,20-20L99.999,320.5
		C66.863,320.5,40,347.363,40,380.5c0,33.136,26.863,60,60,60L100,400.5z"/>
	<circle style="fill:#FFFFFF;" cx="100" cy="380.5" r="20"/>
</g>
<g>
</g>
<g>
</g>
<g>
</g>
<g>
</g>
<g>
</g>
<g>
</g>
<g>
</g>
<g>
</g>
<g>
</g>
<g>
</g>
<g>
</g>
<g>
</g>
<g>
</g>
<g>
</g>
<g>
</g>
</svg>
