<?xml version="1.0" encoding="iso-8859-1"?>
<!-- Generator: Adobe Illustrator 19.0.0, SVG Export Plug-In . SVG Version: 6.00 Build 0)  -->
<svg version="1.1" id="Capa_1" xmlns="http://www.w3.org/2000/svg" xmlns:xlink="http://www.w3.org/1999/xlink" x="0px" y="0px"
	 viewBox="0 0 460 460" style="enable-background:new 0 0 460 460;" xml:space="preserve">
<g>
	<path style="fill:#EF1F4B;" d="M365.685,182.605c-15.175-5.49-31.543-8.482-48.618-8.482
		c15.104,112.078-60.083,215.311-169.725,236.5c44.928,28.591,97.51,46.172,153.923,48.962
		C376.624,389.625,402.869,279.73,365.685,182.605z"/>
	<path style="fill:#EA6453;" d="M317.066,174.123c-17.197,0-31.189-13.992-31.189-31.189C285.877,63.996,221.882,0,142.934,0
		C63.996,0,0,63.996,0,142.934c0,1.244,0.02,2.467,0.051,3.7c1.274,110.905,59.77,208.304,147.291,263.989
		C256.983,389.433,332.171,286.201,317.066,174.123z M142.944,245.803c-56.817,0-102.87-46.053-102.87-102.87
		c0-56.807,46.052-102.859,102.87-102.859c56.807,0,102.859,46.052,102.859,102.859C245.803,199.75,199.751,245.803,142.944,245.803
		z"/>
	<path style="fill:#EF9E8F;" d="M142.944,40.074v205.729c56.807,0,102.859-46.053,102.859-102.87
		C245.803,86.126,199.751,40.074,142.944,40.074z M182.942,146.296c-11.049,0-19.998-8.954-19.998-20.003
		c0-11.047,8.949-19.997,19.998-19.997c11.041,0,20.001,8.95,20.001,19.997C202.943,137.343,193.983,146.296,182.942,146.296z"/>
	<path style="fill:#FFFFFF;" d="M40.074,142.934c0,56.817,46.052,102.87,102.87,102.87V40.074
		C86.127,40.074,40.074,86.126,40.074,142.934z M102.942,146.296c-11.044,0-19.998-8.954-19.998-20.003
		c0-11.047,8.955-19.997,19.998-19.997c11.05,0,20.002,8.95,20.002,19.997C122.944,137.343,113.992,146.296,102.942,146.296z"/>
	<path style="fill:#EA6453;" d="M365.685,182.605c37.184,97.125,10.939,207.02-64.42,276.98c4.014,0.192,8.047,0.313,12.102,0.364
		c1.233,0.03,2.457,0.051,3.7,0.051C396.004,460,460,396.004,460,317.066C460,255.194,420.693,202.501,365.685,182.605z"/>
	<path style="fill:#EA6453;" d="M102.942,106.296c-11.044,0-19.998,8.95-19.998,19.997c0,11.049,8.955,20.003,19.998,20.003
		c11.05,0,20.002-8.954,20.002-20.003C122.944,115.246,113.992,106.296,102.942,106.296z"/>
	<path style="fill:#EF1F4B;" d="M182.942,106.296c-11.049,0-19.998,8.95-19.998,19.997c0,11.049,8.949,20.003,19.998,20.003
		c11.041,0,20.001-8.954,20.001-20.003C202.943,115.246,193.983,106.296,182.942,106.296z"/>
</g>
<g>
</g>
<g>
</g>
<g>
</g>
<g>
</g>
<g>
</g>
<g>
</g>
<g>
</g>
<g>
</g>
<g>
</g>
<g>
</g>
<g>
</g>
<g>
</g>
<g>
</g>
<g>
</g>
<g>
</g>
</svg>
