<?xml version="1.0" encoding="iso-8859-1"?>
<!-- Generator: Adobe Illustrator 19.0.0, SVG Export Plug-In . SVG Version: 6.00 Build 0)  -->
<svg version="1.1" id="Capa_1" xmlns="http://www.w3.org/2000/svg" xmlns:xlink="http://www.w3.org/1999/xlink" x="0px" y="0px"
	 viewBox="0 0 460 460" style="enable-background:new 0 0 460 460;" xml:space="preserve">
<g>
	<path style="fill:#FFD152;" d="M345,172.5v115c0,95.27-77.23,172.5-172.5,172.5V345C267.77,345,345,267.77,345,172.5z"/>
	<path style="fill:#FFB743;" d="M172.5,0v40C245.56,40,305,99.44,305,172.5S245.56,305,172.5,305v40
		c95.27,0,172.5-77.23,172.5-172.5S267.77,0,172.5,0z"/>
	<path style="fill:#FFD152;" d="M172.5,40v40c51,0,92.5,41.5,92.5,92.5S223.5,265,172.5,265v40c73.06,0,132.5-59.44,132.5-132.5
		S245.56,40,172.5,40z"/>
	<path style="fill:#FFB743;" d="M172.5,80v40c28.95,0,52.5,23.55,52.5,52.5S201.45,225,172.5,225v40c51,0,92.5-41.5,92.5-92.5
		S223.5,80,172.5,80z"/>
	<path style="fill:#FFD152;" d="M172.5,120v105c28.95,0,52.5-23.55,52.5-52.5S201.45,120,172.5,120z"/>
	<path style="fill:#FFE292;" d="M172.5,345v115C77.23,460,0,382.77,0,287.5v-115C0,267.77,77.23,345,172.5,345z"/>
	<path style="fill:#FFE292;" d="M120,172.5c0,28.95,23.55,52.5,52.5,52.5V120C143.55,120,120,143.55,120,172.5z"/>
	<path style="fill:#FFD152;" d="M172.5,120V80c-51,0-92.5,41.5-92.5,92.5s41.5,92.5,92.5,92.5v-40c-28.95,0-52.5-23.55-52.5-52.5
		S143.55,120,172.5,120z"/>
	<path style="fill:#FFE292;" d="M172.5,80V40C99.44,40,40,99.44,40,172.5S99.44,305,172.5,305v-40c-51,0-92.5-41.5-92.5-92.5
		S121.5,80,172.5,80z"/>
	<path style="fill:#FFD152;" d="M172.5,40V0C77.23,0,0,77.23,0,172.5S77.23,345,172.5,345v-40C99.44,305,40,245.56,40,172.5
		S99.44,40,172.5,40z"/>
	<g>
		<path style="fill:#FFE292;" d="M172.5,0C267.77,0,345,77.23,345,172.5v115.001h115V0H172.5z"/>
	</g>
</g>
<g>
</g>
<g>
</g>
<g>
</g>
<g>
</g>
<g>
</g>
<g>
</g>
<g>
</g>
<g>
</g>
<g>
</g>
<g>
</g>
<g>
</g>
<g>
</g>
<g>
</g>
<g>
</g>
<g>
</g>
</svg>
