<?xml version="1.0" encoding="iso-8859-1"?>
<!-- Generator: Adobe Illustrator 19.0.0, SVG Export Plug-In . SVG Version: 6.00 Build 0)  -->
<svg version="1.1" id="Capa_1" xmlns="http://www.w3.org/2000/svg" xmlns:xlink="http://www.w3.org/1999/xlink" x="0px" y="0px"
	 viewBox="0 0 460 460" style="enable-background:new 0 0 460 460;" xml:space="preserve">
<g>
	<rect x="270" y="120" style="fill:#3FC3D8;" width="150" height="55"/>
	<rect x="270" y="175" style="fill:#1398AD;" width="150" height="45"/>
	<rect x="40" y="160" style="fill:#6BE0F4;" width="36.667" height="60"/>
	<rect x="116.667" y="160" style="fill:#6BE0F4;" width="36.667" height="60"/>
	<rect x="193.333" y="160" style="fill:#6BE0F4;" width="36.667" height="60"/>
	<rect x="40" y="80" style="fill:#3FC3D8;" width="120" height="40"/>
	<path style="fill:#0B389C;" d="M460,260V80h-40v140H270V120H40v40h36.667v60h40v-60h36.667v60h40v-60H230v100h150v40H230v40h150
		v45.365c5.885-3.406,12.712-5.365,20-5.365s14.115,1.959,20,5.365V260H460z"/>
	<path style="fill:#3FC3D8;" d="M40,385.365C28.047,392.282,20,405.197,20,420c0,22.091,17.909,40,40,40s40-17.909,40-40
		c0-14.803-8.047-27.718-20-34.635C74.115,381.959,67.288,380,60,380S45.885,381.959,40,385.365z"/>
	<path style="fill:#1398AD;" d="M380,385.365c-11.953,6.917-20,19.832-20,34.635c0,22.091,17.909,40,40,40s40-17.909,40-40
		c0-14.803-8.047-27.718-20-34.635c-5.885-3.406-12.712-5.365-20-5.365S385.885,381.959,380,385.365z"/>
	<path style="fill:#4370D9;" d="M80,300v-40h150v-40H40V0H0v260h40v125.365C45.885,381.959,52.712,380,60,380s14.115,1.959,20,5.365
		V340h150v-40H80z"/>
</g>
<g>
</g>
<g>
</g>
<g>
</g>
<g>
</g>
<g>
</g>
<g>
</g>
<g>
</g>
<g>
</g>
<g>
</g>
<g>
</g>
<g>
</g>
<g>
</g>
<g>
</g>
<g>
</g>
<g>
</g>
</svg>
