<?xml version="1.0" encoding="iso-8859-1"?>
<!-- Generator: Adobe Illustrator 19.0.0, SVG Export Plug-In . SVG Version: 6.00 Build 0)  -->
<svg version="1.1" id="Capa_1" xmlns="http://www.w3.org/2000/svg" xmlns:xlink="http://www.w3.org/1999/xlink" x="0px" y="0px"
	 viewBox="0 0 460 460" style="enable-background:new 0 0 460 460;" xml:space="preserve">
<g>
	<path style="fill:#1398AD;" d="M230,0v40c74.44,0,135,60.56,135,135c0,48.2-25.4,90.57-63.5,114.46v78.56l-1.31,3.45
		c-4.77,12.65-12.92,23.81-23.58,32.28C263.25,414.38,247.13,420,230,420v40c27.03,0,51.88-9.33,71.51-24.94
		c16.11-12.81,28.71-29.87,36.11-49.47l56.15-148.82C401.02,217.56,405,196.75,405,175C405,78.35,326.65,0,230,0z"/>
	<path style="fill:#6BE0F4;" d="M276.61,403.75c10.66-8.47,18.81-19.63,23.58-32.28l1.31-3.45v-78.56
		C339.6,265.57,365,223.2,365,175c0-74.44-60.56-135-135-135v380C247.13,420,263.25,414.38,276.61,403.75z"/>
	<path style="fill:#3FC3D8;" d="M183.38,403.75c-10.65-8.47-18.81-19.63-23.58-32.28l-1.3-3.45v-78.56
		C120.39,265.57,95,223.2,95,175c0-74.44,60.56-135,135-135V0C133.35,0,55,78.35,55,175c0,21.75,3.97,42.56,11.22,61.77
		l56.15,148.82c7.4,19.6,20,36.65,36.11,49.47C178.11,450.67,202.96,460,230,460v-40C212.86,420,196.74,414.38,183.38,403.75z"/>
	<path style="fill:#FFFFFF;" d="M95,175c0,48.2,25.39,90.57,63.5,114.46v78.56l1.3,3.45c4.77,12.65,12.93,23.81,23.58,32.28
		C196.74,414.38,212.86,420,230,420V40C155.56,40,95,100.56,95,175z"/>
</g>
<g>
</g>
<g>
</g>
<g>
</g>
<g>
</g>
<g>
</g>
<g>
</g>
<g>
</g>
<g>
</g>
<g>
</g>
<g>
</g>
<g>
</g>
<g>
</g>
<g>
</g>
<g>
</g>
<g>
</g>
</svg>
