<?xml version="1.0" encoding="iso-8859-1"?>
<!-- Generator: Adobe Illustrator 19.0.0, SVG Export Plug-In . SVG Version: 6.00 Build 0)  -->
<svg version="1.1" id="Capa_1" xmlns="http://www.w3.org/2000/svg" xmlns:xlink="http://www.w3.org/1999/xlink" x="0px" y="0px"
	 viewBox="0 0 460 460" style="enable-background:new 0 0 460 460;" xml:space="preserve">
<g>
	<path style="fill:#FFD152;" d="M230,304.803l74.227,74.227v37.336c0,24.102,19.532,43.634,43.634,43.634
		s43.634-19.532,43.634-43.634v-24.87L267.402,267.402L230,304.803z"/>
	<path style="fill:#FFE292;" d="M416.366,304.227H379.03L304.803,230l-37.402,37.402l124.094,124.094h24.87
		c24.102,0,43.634-19.532,43.634-43.634S440.468,304.227,416.366,304.227z"/>
	<path style="fill:#FFE292;" d="M230,155.197L155.773,80.97V43.634C155.773,19.532,136.241,0,112.139,0S68.505,19.532,68.505,43.634
		v24.87l124.094,124.094L230,155.197z"/>
	<path style="fill:#FFB743;" d="M379.03,155.773h37.336c24.102,0,43.634-19.532,43.634-43.634c0-24.102-19.532-43.634-43.634-43.634
		h-24.87L68.505,391.495v24.87c0,24.102,19.532,43.634,43.634,43.634s43.634-19.532,43.634-43.634V379.03L230,304.803l37.402-37.401
		L379.03,155.773z"/>
	<path style="fill:#FFD152;" d="M391.495,68.505v-24.87C391.495,19.532,371.963,0,347.861,0s-43.634,19.532-43.634,43.634V80.97
		L192.598,192.598L68.505,68.505h-24.87C19.532,68.505,0,88.037,0,112.139c0,24.102,19.532,43.634,43.634,43.634H80.97L155.197,230
		L80.97,304.227H43.634C19.532,304.227,0,323.759,0,347.861s19.532,43.634,43.634,43.634h24.87L391.495,68.505z"/>
</g>
<g>
</g>
<g>
</g>
<g>
</g>
<g>
</g>
<g>
</g>
<g>
</g>
<g>
</g>
<g>
</g>
<g>
</g>
<g>
</g>
<g>
</g>
<g>
</g>
<g>
</g>
<g>
</g>
<g>
</g>
</svg>
