<?xml version="1.0" encoding="iso-8859-1"?>
<!-- Generator: Adobe Illustrator 19.0.0, SVG Export Plug-In . SVG Version: 6.00 Build 0)  -->
<svg version="1.1" id="Capa_1" xmlns="http://www.w3.org/2000/svg" xmlns:xlink="http://www.w3.org/1999/xlink" x="0px" y="0px"
	 viewBox="0 0 460.002 460.002" style="enable-background:new 0 0 460.002 460.002;" xml:space="preserve">
<g>
	
		<rect x="369.289" y="-3.431" transform="matrix(0.7071 -0.7071 0.7071 0.7071 74.0203 291.8383)" style="fill:#0B389C;" width="40.001" height="120"/>
	
		<rect x="319.792" y="47.783" transform="matrix(0.7071 0.7071 -0.7071 0.7071 154.5237 -217.4874)" style="fill:#3FC3D8;" width="40" height="60"/>
	
		<rect x="338.076" y="86.067" transform="matrix(0.7071 -0.7071 0.7071 0.7071 32.8066 291.3358)" style="fill:#1398AD;" width="60" height="40"/>
	<path style="fill:#1398AD;" d="M332.72,169.707l-28.284-28.284l-28.284,28.284c10.868,10.868,16.686,24.869,17.472,39.097
		L332.72,169.707z"/>
	<path style="fill:#3FC3D8;" d="M276.151,113.139l-39.096,39.096c14.227,0.786,28.228,6.604,39.096,17.473l28.284-28.284
		L276.151,113.139z"/>
	<path style="fill:#1398AD;" d="M230.395,272.033c-14.227-0.786-28.228-6.604-39.096-17.473l-28.284,28.284l28.284,28.284
		L230.395,272.033z"/>
	<path style="fill:#3FC3D8;" d="M173.826,215.464L134.73,254.56l28.284,28.284l28.284-28.284
		C180.431,243.692,174.613,229.691,173.826,215.464z"/>
	<path style="fill:#0B389C;" d="M276.151,254.56c-10.868,10.868-24.869,16.686-39.096,17.473l46.167,46.167l56.568-56.569
		l-46.167-46.167C292.837,229.691,287.02,243.692,276.151,254.56z"/>
	<path style="fill:#4370D9;" d="M191.299,169.707c10.868-10.868,24.87-16.687,39.096-17.472l-46.167-46.167l-56.568,56.568
		l46.166,46.168C174.613,194.576,180.431,180.576,191.299,169.707z"/>
	<polygon style="fill:#0B389C;" points="148.872,268.702 14.143,403.431 14.143,460.002 177.157,296.987 	"/>
	<path style="fill:#FFD152;" d="M276.151,169.708l-28.284,28.284c7.81,7.811,7.81,20.474,0,28.284
		c-7.81,7.811-20.474,7.811-28.284,0l-28.284,28.284c23.431,23.432,61.421,23.432,84.853,0
		C299.583,231.129,299.583,193.139,276.151,169.708z"/>
	<path style="fill:#FFE292;" d="M219.583,226.276c-7.81-7.811-7.81-20.474,0-28.284s20.474-7.811,28.284,0l28.284-28.285
		c-23.431-23.431-61.421-23.431-84.853,0.001c-23.431,23.431-23.431,61.421,0,84.853L219.583,226.276z"/>
	<circle style="fill:#4370D9;" cx="233.725" cy="212.134" r="20"/>
	
		<rect x="238.578" y="107.28" transform="matrix(-0.7071 -0.7071 0.7071 -0.7071 453.8462 442.55)" style="fill:#0B389C;" width="160" height="40.001"/>
</g>
<g>
</g>
<g>
</g>
<g>
</g>
<g>
</g>
<g>
</g>
<g>
</g>
<g>
</g>
<g>
</g>
<g>
</g>
<g>
</g>
<g>
</g>
<g>
</g>
<g>
</g>
<g>
</g>
<g>
</g>
</svg>
