<?xml version="1.0" encoding="iso-8859-1"?>
<!-- Generator: Adobe Illustrator 19.0.0, SVG Export Plug-In . SVG Version: 6.00 Build 0)  -->
<svg version="1.1" id="Capa_1" xmlns="http://www.w3.org/2000/svg" xmlns:xlink="http://www.w3.org/1999/xlink" x="0px" y="0px"
	 viewBox="0 0 460 460" style="enable-background:new 0 0 460 460;" xml:space="preserve">
<g>
	<polygon style="fill:#1398AD;" points="230,0 230,40 420,40 420,420 230,420 230,460 460,460 460,0 	"/>
	<polygon style="fill:#0B389C;" points="320.532,364.512 230,184.511 230,420 420,420 420,250 378.124,250 	"/>
	<polygon style="fill:#0B389C;" points="320.532,275.488 353.468,210 420,210 420,40 230,40 230,95.489 	"/>
	<polygon style="fill:#3FC3D8;" points="40,420 40,40 230,40 230,0 0,0 0,460 230,460 230,420 	"/>
	<polygon style="fill:#4370D9;" points="40,210 106.532,210 139.469,275.488 230,95.489 230,40 40,40 	"/>
	<polygon style="fill:#4370D9;" points="139.468,364.512 81.876,250 40,250 40,420 230,420 230,184.511 	"/>
	<polygon style="fill:#FFFFFF;" points="320.532,275.488 230,95.489 139.469,275.488 106.532,210 40,210 40,250 81.876,250 
		139.468,364.512 230,184.511 320.532,364.512 378.124,250 420,250 420,210 353.468,210 	"/>
</g>
<g>
</g>
<g>
</g>
<g>
</g>
<g>
</g>
<g>
</g>
<g>
</g>
<g>
</g>
<g>
</g>
<g>
</g>
<g>
</g>
<g>
</g>
<g>
</g>
<g>
</g>
<g>
</g>
<g>
</g>
</svg>
