<?xml version="1.0" encoding="iso-8859-1"?>
<!-- Generator: Adobe Illustrator 19.0.0, SVG Export Plug-In . SVG Version: 6.00 Build 0)  -->
<svg version="1.1" id="Capa_1" xmlns="http://www.w3.org/2000/svg" xmlns:xlink="http://www.w3.org/1999/xlink" x="0px" y="0px"
	 viewBox="0 0 460 460" style="enable-background:new 0 0 460 460;" xml:space="preserve">
<g>
	<path style="fill:#EA6453;" d="M400,230c-11.046,0-20,8.954-20,20c0,93.889-76.112,170-170,170S40,343.889,40,250
		S116.112,80,210,80l50,20l123.211,17.602C358.249,110.337,340,87.307,340,60s18.249-50.337,43.211-57.602L260,20l-50,20
		C94.02,40,0,134.021,0,250s94.02,210,210,210s210-94.021,210-210C420,238.954,411.046,230,400,230z"/>
	<circle style="fill:#EF1F4B;" cx="400" cy="60" r="60"/>
	<circle style="fill:#EA6453;" cx="400" cy="60" r="20"/>
</g>
<g>
</g>
<g>
</g>
<g>
</g>
<g>
</g>
<g>
</g>
<g>
</g>
<g>
</g>
<g>
</g>
<g>
</g>
<g>
</g>
<g>
</g>
<g>
</g>
<g>
</g>
<g>
</g>
<g>
</g>
</svg>
