<?xml version="1.0" encoding="iso-8859-1"?>
<!-- Generator: Adobe Illustrator 19.0.0, SVG Export Plug-In . SVG Version: 6.00 Build 0)  -->
<svg version="1.1" id="Capa_1" xmlns="http://www.w3.org/2000/svg" xmlns:xlink="http://www.w3.org/1999/xlink" x="0px" y="0px"
	 viewBox="0 0 460 460" style="enable-background:new 0 0 460 460;" xml:space="preserve">
<g>
	<polygon style="fill:#FFB743;" points="94.997,420 94.997,80 134.997,80 134.997,40 55,40 55,460 230,460 230,420 	"/>
	<polygon style="fill:#FFB007;" points="324.997,40 324.997,80 364.997,80 364.997,340 285,420 230,420 230,460 405,460 405,40 	"/>
	<polygon style="fill:#6BE0F4;" points="229.997,120 229.997,420 284.997,420 285,340 364.997,340 364.997,80 324.997,80 
		324.997,120 	"/>
	<polygon style="fill:#FFFFFF;" points="134.997,120 134.997,80 94.997,80 94.997,420 229.997,420 229.997,120 	"/>
	<polygon style="fill:#3FC3D8;" points="285,420 365,340 285,340 	"/>
	<rect x="229.997" y="40" style="fill:#1398AD;" width="95" height="80"/>
	<rect x="229.997" style="fill:#3FC3D8;" width="55" height="40"/>
	<rect x="134.997" y="40" style="fill:#3FC3D8;" width="95" height="80"/>
	<rect x="174.997" style="fill:#6BE0F4;" width="55" height="40"/>
</g>
<g>
</g>
<g>
</g>
<g>
</g>
<g>
</g>
<g>
</g>
<g>
</g>
<g>
</g>
<g>
</g>
<g>
</g>
<g>
</g>
<g>
</g>
<g>
</g>
<g>
</g>
<g>
</g>
<g>
</g>
</svg>
