<?xml version="1.0" encoding="iso-8859-1"?>
<!-- Generator: Adobe Illustrator 19.0.0, SVG Export Plug-In . SVG Version: 6.00 Build 0)  -->
<svg version="1.1" id="Capa_1" xmlns="http://www.w3.org/2000/svg" xmlns:xlink="http://www.w3.org/1999/xlink" x="0px" y="0px"
	 viewBox="0 0 460 460" style="enable-background:new 0 0 460 460;" xml:space="preserve">
<g>
	<rect x="175" y="365" style="fill:#FFB743;" width="110" height="40"/>
	<rect x="92.5" y="405" style="fill:#FFB007;" width="275" height="40"/>
	<polygon style="fill:#FFE292;" points="230,275 193,275 193,202 120,202 120,128 193,128 193,55 230,55 230,15 0,15 0,315 230,315 
			"/>
	<polygon style="fill:#EF9E8F;" points="230,15 230,55 267,55 267,128 340,128 340,202 267,202 267,275 230,275 230,315 460,315 
		460,15 	"/>
	<polygon style="fill:#EF1F4B;" points="267,275 267,202 340,202 340,128 267,128 267,55 230,55 230,275 	"/>
	<polygon style="fill:#EA6453;" points="193,128 120,128 120,202 193,202 193,275 230,275 230,55 193,55 	"/>
	<rect y="315" style="fill:#FFB007;" width="460" height="50"/>
</g>
<g>
</g>
<g>
</g>
<g>
</g>
<g>
</g>
<g>
</g>
<g>
</g>
<g>
</g>
<g>
</g>
<g>
</g>
<g>
</g>
<g>
</g>
<g>
</g>
<g>
</g>
<g>
</g>
<g>
</g>
</svg>
