<?xml version="1.0" encoding="iso-8859-1"?>
<!-- Generator: Adobe Illustrator 19.0.0, SVG Export Plug-In . SVG Version: 6.00 Build 0)  -->
<svg version="1.1" id="Capa_1" xmlns="http://www.w3.org/2000/svg" xmlns:xlink="http://www.w3.org/1999/xlink" x="0px" y="0px"
	 viewBox="0 0 460 460" style="enable-background:new 0 0 460 460;" xml:space="preserve">
<g>
	<polygon style="fill:#EA6453;" points="122.406,94.122 123.243,95.25 95.25,123.242 94.122,122.406 201.716,230 230,201.716 	"/>
	
		<rect x="202.365" y="325" transform="matrix(-0.7071 -0.7071 0.7071 -0.7071 344.9999 832.9036)" style="fill:#EA6453;" width="285.269" height="40"/>
	<path style="fill:#EF9E8F;" d="M123.243,95.25l-0.836-1.128L63.059,14.076c-0.997-1.333-2.098-2.613-3.31-3.824
		c-13.668-13.668-35.829-13.668-49.497,0c-13.668,13.668-13.668,35.829,0,49.498c1.212,1.212,2.491,2.313,3.824,3.31l80.046,59.347
		l1.128,0.836L123.243,95.25z"/>
	<polygon style="fill:#EF1F4B;" points="365.879,122.406 364.75,123.242 336.758,95.25 337.594,94.122 0,431.716 28.284,460 
		230,258.284 258.284,230 	"/>
	<path style="fill:#EF8CA7;" d="M364.75,123.242l1.128-0.837l80.046-59.347c1.333-0.997,2.613-2.098,3.824-3.31
		c13.668-13.668,13.668-35.829,0-49.498c-13.668-13.668-35.829-13.668-49.497,0c-1.212,1.212-2.313,2.491-3.31,3.824l-59.347,80.046
		l-0.836,1.128L364.75,123.242z"/>
</g>
<g>
</g>
<g>
</g>
<g>
</g>
<g>
</g>
<g>
</g>
<g>
</g>
<g>
</g>
<g>
</g>
<g>
</g>
<g>
</g>
<g>
</g>
<g>
</g>
<g>
</g>
<g>
</g>
<g>
</g>
</svg>
