<?xml version="1.0" encoding="iso-8859-1"?>
<!-- Generator: Adobe Illustrator 19.0.0, SVG Export Plug-In . SVG Version: 6.00 Build 0)  -->
<svg version="1.1" id="Capa_1" xmlns="http://www.w3.org/2000/svg" xmlns:xlink="http://www.w3.org/1999/xlink" x="0px" y="0px"
	 viewBox="0 0 460 460" style="enable-background:new 0 0 460 460;" xml:space="preserve">
<g>
	<path style="fill:#3FC3D8;" d="M40,385.365C28.047,392.282,20,405.197,20,420c0,22.091,17.909,40,40,40s40-17.909,40-40
		c0-14.803-8.047-27.718-20-34.635C74.115,381.959,67.288,380,60,380S45.885,381.959,40,385.365z"/>
	<path style="fill:#1398AD;" d="M380,385.365c-11.953,6.917-20,19.832-20,34.635c0,22.091,17.909,40,40,40c22.091,0,40-17.909,40-40
		c0-14.803-8.047-27.718-20-34.635c-5.885-3.406-12.712-5.365-20-5.365S385.885,381.959,380,385.365z"/>
	<path style="fill:#0B389C;" d="M230,180h150v120H230v40h150v45.365c5.885-3.406,12.712-5.365,20-5.365s14.115,1.959,20,5.365V180
		h40v-40H230V180z"/>
	<path style="fill:#4370D9;" d="M80,300V180h150v-40H0v40h40v205.365C45.885,381.959,52.712,380,60,380s14.115,1.959,20,5.365V340
		h150v-40H80z"/>
	<rect x="230" y="50" style="fill:#1398AD;" width="230" height="90"/>
	<polygon style="fill:#3FC3D8;" points="230,50 150,0 0,0 0,140 230,140 	"/>
</g>
<g>
</g>
<g>
</g>
<g>
</g>
<g>
</g>
<g>
</g>
<g>
</g>
<g>
</g>
<g>
</g>
<g>
</g>
<g>
</g>
<g>
</g>
<g>
</g>
<g>
</g>
<g>
</g>
<g>
</g>
</svg>
