<?xml version="1.0" encoding="iso-8859-1"?>
<!-- Generator: Adobe Illustrator 19.0.0, SVG Export Plug-In . SVG Version: 6.00 Build 0)  -->
<svg version="1.1" id="Capa_1" xmlns="http://www.w3.org/2000/svg" xmlns:xlink="http://www.w3.org/1999/xlink" x="0px" y="0px"
	 viewBox="0 0 460 460" style="enable-background:new 0 0 460 460;" xml:space="preserve">
<g>
	<rect x="70" y="110" style="fill:#3FC3D8;" width="90" height="40"/>
	<rect style="fill:#3FC3D8;" width="230" height="40"/>
	<polygon style="fill:#6BE0F4;" points="160,197.111 115,226.188 70,197.111 70,40 30,40 30,218.889 95,260.889 95,380 135,380 
		135,260.889 200,218.889 200,40 160,40 	"/>
	<polygon style="fill:#3FC3D8;" points="75,460 155,460 135,380 95,380 	"/>
	<rect x="300" y="110" style="fill:#1398AD;" width="90" height="40"/>
	<rect x="230" style="fill:#1398AD;" width="230" height="40"/>
	<polygon style="fill:#3FC3D8;" points="390,197.111 345,226.188 300,197.111 300,40 260,40 260,218.889 325,260.889 325,380 
		365,380 365,260.889 430,218.889 430,40 390,40 	"/>
	<polygon style="fill:#1398AD;" points="305,460 385,460 365,380 325,380 	"/>
</g>
<g>
</g>
<g>
</g>
<g>
</g>
<g>
</g>
<g>
</g>
<g>
</g>
<g>
</g>
<g>
</g>
<g>
</g>
<g>
</g>
<g>
</g>
<g>
</g>
<g>
</g>
<g>
</g>
<g>
</g>
</svg>
