<?xml version="1.0" encoding="iso-8859-1"?>
<!-- Generator: Adobe Illustrator 19.0.0, SVG Export Plug-In . SVG Version: 6.00 Build 0)  -->
<svg version="1.1" id="Capa_1" xmlns="http://www.w3.org/2000/svg" xmlns:xlink="http://www.w3.org/1999/xlink" x="0px" y="0px"
	 viewBox="0 0 460.005 460.005" style="enable-background:new 0 0 460.005 460.005;" xml:space="preserve">
<g>
	<polygon style="fill:#FFB743;" points="230,150.002 190,150.002 190,290.002 230,290.002 230,190.002 270,190.002 270,50.002 
		230,50.002 	"/>
	<rect x="300" y="0.002" style="fill:#EA6453;" width="40" height="340"/>
	<rect x="340" y="340.002" style="fill:#EF1F4B;" width="40" height="120"/>
	<rect x="120.004" y="0.002" style="fill:#F57B71;" width="40" height="340"/>
	<rect x="80.004" y="340.002" style="fill:#EA6453;" width="40" height="120"/>
	<path style="fill:#EF9E8F;" d="M50.003,0.002c-27.5,0-50,22.5-50,50v10C0,60.002,0,280,0,280c0.003,0,0.003,20.002,0.003,20.002
		h80.001v40h40v-340H50.003z M40,260.002v-180h40.004v180H40z"/>
	<path style="fill:#F57B71;" d="M410.005,0.002H340v340h40v-40h80.005V280l0-229.998C460.005,22.502,437.505,0.002,410.005,0.002z
		 M420.005,260.002H380v-180h40.005V260.002z"/>
</g>
<g>
</g>
<g>
</g>
<g>
</g>
<g>
</g>
<g>
</g>
<g>
</g>
<g>
</g>
<g>
</g>
<g>
</g>
<g>
</g>
<g>
</g>
<g>
</g>
<g>
</g>
<g>
</g>
<g>
</g>
</svg>
