<?xml version="1.0" encoding="iso-8859-1"?>
<!-- Generator: Adobe Illustrator 19.0.0, SVG Export Plug-In . SVG Version: 6.00 Build 0)  -->
<svg version="1.1" id="Capa_1" xmlns="http://www.w3.org/2000/svg" xmlns:xlink="http://www.w3.org/1999/xlink" x="0px" y="0px"
	 viewBox="0 0 460 460" style="enable-background:new 0 0 460 460;" xml:space="preserve">
<g>
	<path style="fill:#EF8CA7;" d="M366.453,40c-2.167,10.559-5.181,20.534-8.95,30H230v40h105.474
		c-7.572,10.609-16.139,20.581-25.474,30.094V140h-80v40h34.235c-11.078,8.575-22.568,16.972-34.235,25.376
		c3.868,2.787,7.755,5.574,11.654,8.37c7.489,5.369,15.024,10.773,22.534,16.254c33.044-24.116,65.589-49.737,91.417-80.603
		C392.469,105.346,410.389,56.477,410.389,0H230v40H366.453z"/>
	<path style="fill:#F57B71;" d="M230,420v40h140.389c0-14.248-1.377-27.531-3.935-40H230z"/>
	<path style="fill:#F57B71;" d="M230,390h127.503c-5.735-14.402-13.205-27.636-22.03-40H230V390z"/>
	<path style="fill:#F57B71;" d="M230,320h80.091c-13.858-14.134-29.401-27.264-45.856-40H230V320z"/>
	<path style="fill:#EF8CA7;" d="M93.547,420c2.167-10.559,5.181-20.534,8.95-30H230v-40H124.526
		c7.547-10.575,16.083-20.515,25.383-30H230v-40h-34.235c11.078-8.575,22.568-16.972,34.235-25.376
		c-3.868-2.787-7.755-5.574-11.654-8.37c-7.489-5.369-15.024-10.773-22.534-16.254c-33.044,24.116-65.589,49.737-91.417,80.603
		C67.531,354.654,49.611,403.523,49.611,460H230v-40H93.547z"/>
	<path style="fill:#F57B71;" d="M230,140h-80v0.094c13.835,14.099,29.346,27.198,45.765,39.906H230V140z"/>
	<path style="fill:#F57B71;" d="M230,70H102.497c5.735,14.402,13.205,27.636,22.03,40H230V70z"/>
	<path style="fill:#F57B71;" d="M230,40V0H89.611c0,14.248,1.377,27.531,3.935,40H230z"/>
	<path style="fill:#EA6453;" d="M264.188,230c-7.51-5.481-15.045-10.885-22.534-16.254c-3.899-2.795-7.786-5.583-11.654-8.37
		c-11.667-8.405-23.157-16.802-34.235-25.376c-16.418-12.708-31.93-25.808-45.765-39.906c-9.335-9.513-17.902-19.484-25.474-30.094
		c-8.824-12.364-16.295-25.598-22.03-40c-3.769-9.466-6.783-19.441-8.95-30c-2.559-12.469-3.935-25.752-3.935-40h-40
		c0,56.477,17.92,105.346,54.783,149.397c25.829,30.865,58.373,56.486,91.417,80.603c7.51,5.481,15.046,10.885,22.534,16.254
		c3.899,2.795,7.786,5.583,11.654,8.37c11.667,8.405,23.157,16.802,34.235,25.376c16.455,12.736,31.998,25.866,45.856,40
		c9.299,9.485,17.836,19.425,25.383,30c8.824,12.364,16.295,25.598,22.03,40c3.769,9.466,6.783,19.441,8.95,30
		c2.559,12.469,3.935,25.752,3.935,40h40c0-56.477-17.92-105.346-54.783-149.397C329.777,279.737,297.232,254.116,264.188,230z"/>
</g>
<g>
</g>
<g>
</g>
<g>
</g>
<g>
</g>
<g>
</g>
<g>
</g>
<g>
</g>
<g>
</g>
<g>
</g>
<g>
</g>
<g>
</g>
<g>
</g>
<g>
</g>
<g>
</g>
<g>
</g>
</svg>
