<?xml version="1.0" encoding="iso-8859-1"?>
<!-- Generator: Adobe Illustrator 19.0.0, SVG Export Plug-In . SVG Version: 6.00 Build 0)  -->
<svg version="1.1" id="Capa_1" xmlns="http://www.w3.org/2000/svg" xmlns:xlink="http://www.w3.org/1999/xlink" x="0px" y="0px"
	 viewBox="0 0 460 460" style="enable-background:new 0 0 460 460;" xml:space="preserve">
<g>
	<path style="fill:#EA6453;" d="M165,119.99v105h105C212.01,224.99,165,177.98,165,119.99z"/>
	<path style="fill:#EF1F4B;" d="M270,224.99h105v-105C375,177.98,327.99,224.99,270,224.99z"/>
	<path style="fill:#0B389C;" d="M270,255.01v190h190C460,340.08,374.93,255.01,270,255.01z"/>
	<path style="fill:#4370D9;" d="M140,306.464V445.01h130v-190C219.709,255.01,173.988,274.56,140,306.464z"/>
	<polygon style="fill:#EA6453;" points="140,285.01 100,285.01 100,315.01 40,315.01 40,285.01 0,285.01 0,445.01 140,445.01 	"/>
	<rect x="40" y="255.01" style="fill:#EF9E8F;" width="60" height="30"/>
	<rect x="40" y="285.01" style="fill:#FFFFFF;" width="60" height="30"/>
	<path style="fill:#EF1F4B;" d="M369.02,85.01c-14.4-40.79-53.3-70.02-99.02-70.02v70.02H369.02z"/>
	<path style="fill:#FFB743;" d="M270,224.99c57.99,0,105-47.01,105-105c0-12.27-2.1-24.04-5.98-34.98H270V224.99z"/>
	<path style="fill:#FFD152;" d="M270,224.99V85.01h-99.02c-3.88,10.94-5.98,22.71-5.98,34.98C165,177.98,212.01,224.99,270,224.99z"
		/>
	<path style="fill:#EA6453;" d="M270,14.99c-45.72,0-84.62,29.23-99.02,70.02H270V14.99z"/>
</g>
<g>
</g>
<g>
</g>
<g>
</g>
<g>
</g>
<g>
</g>
<g>
</g>
<g>
</g>
<g>
</g>
<g>
</g>
<g>
</g>
<g>
</g>
<g>
</g>
<g>
</g>
<g>
</g>
<g>
</g>
</svg>
