<?xml version="1.0" encoding="iso-8859-1"?>
<!-- Generator: Adobe Illustrator 19.0.0, SVG Export Plug-In . SVG Version: 6.00 Build 0)  -->
<svg version="1.1" id="Capa_1" xmlns="http://www.w3.org/2000/svg" xmlns:xlink="http://www.w3.org/1999/xlink" x="0px" y="0px"
	 viewBox="0 0 460 460" style="enable-background:new 0 0 460 460;" xml:space="preserve">
<g>
	<path style="fill:#0B389C;" d="M270,255.01v190h190C460,340.08,374.93,255.01,270,255.01z"/>
	<path style="fill:#4370D9;" d="M140,306.464V445.01h130v-190C219.709,255.01,173.988,274.56,140,306.464z"/>
	<path style="fill:#FFB743;" d="M375,119.99c0-57.986-47.014-105-105-105v210C327.986,224.99,375,177.976,375,119.99z"/>
	<path style="fill:#FFD152;" d="M270,224.99v-210c-57.986,0-105,47.014-105,105S212.014,224.99,270,224.99z"/>
	<polygon style="fill:#EA6453;" points="140,285.01 100,285.01 100,315.01 40,315.01 40,285.01 0,285.01 0,445.01 140,445.01 	"/>
	<rect x="40" y="255.01" style="fill:#EF9E8F;" width="60" height="30"/>
	<rect x="40" y="285.01" style="fill:#FFFFFF;" width="60" height="30"/>
</g>
<g>
</g>
<g>
</g>
<g>
</g>
<g>
</g>
<g>
</g>
<g>
</g>
<g>
</g>
<g>
</g>
<g>
</g>
<g>
</g>
<g>
</g>
<g>
</g>
<g>
</g>
<g>
</g>
<g>
</g>
</svg>
