<?xml version="1.0" encoding="iso-8859-1"?>
<!-- Generator: Adobe Illustrator 19.0.0, SVG Export Plug-In . SVG Version: 6.00 Build 0)  -->
<svg version="1.1" id="Capa_1" xmlns="http://www.w3.org/2000/svg" xmlns:xlink="http://www.w3.org/1999/xlink" x="0px" y="0px"
	 viewBox="0 0 460 460" style="enable-background:new 0 0 460 460;" xml:space="preserve">
<g>
	<path style="fill:#F57B71;" d="M400,170C400,76.111,323.888,0,230,0S60,76.111,60,170v170c0,66.274,53.726,120,120,120
		s120-53.726,120-120c0-4.958-0.307-9.844-0.891-14.645C358.554,298.871,400,239.279,400,170z M278.761,279.684l-33.747,15.035
		l4.462,36.675c0.348,2.862,0.524,5.758,0.524,8.606c0,38.598-31.402,70-70,70s-70-31.402-70-70v-39.5h20c16.569,0,30-13.432,30-30
		s-13.431-30-30-30h-20V170c0-66.168,53.832-120,120-120s120,53.832,120,120C350,217.35,322.037,260.402,278.761,279.684z"/>
	<path style="fill:#EA6453;" d="M230,50c-66.168,0-120,53.832-120,120v70.5h20c16.569,0,30,13.432,30,30s-13.431,30-30,30h-20V340
		h20c38.66,0,70-31.34,70-70c0-31.707-21.089-58.477-50-67.084V170c0-44.112,35.888-80,80-80s80,35.888,80,80h40
		C350,103.832,296.168,50,230,50z"/>
	<path style="fill:#EF9E8F;" d="M310,170c0-44.112-35.888-80-80-80s-80,35.888-80,80v32.916c28.911,8.607,50,35.377,50,67.084
		c0,38.66-31.34,70-70,70h-20c0,38.598,31.402,70,70,70s70-31.402,70-70c0-2.849-0.177-5.744-0.524-8.606l-4.462-36.675
		l33.747-15.035C322.037,260.402,350,217.35,350,170H310z"/>
</g>
<g>
</g>
<g>
</g>
<g>
</g>
<g>
</g>
<g>
</g>
<g>
</g>
<g>
</g>
<g>
</g>
<g>
</g>
<g>
</g>
<g>
</g>
<g>
</g>
<g>
</g>
<g>
</g>
<g>
</g>
</svg>
