<?xml version="1.0" encoding="iso-8859-1"?>
<!-- Generator: Adobe Illustrator 19.0.0, SVG Export Plug-In . SVG Version: 6.00 Build 0)  -->
<svg version="1.1" id="Capa_1" xmlns="http://www.w3.org/2000/svg" xmlns:xlink="http://www.w3.org/1999/xlink" x="0px" y="0px"
	 viewBox="0 0 460 460" style="enable-background:new 0 0 460 460;" xml:space="preserve">
<g>
	<path style="fill:#6BE0F4;" d="M210,310h-15l-2.119-16.451C150.436,278.287,120,237.634,120,190c0-60.654,49.346-110,110-110V0
		C125.066,0,40,85.066,40,190c0,98.179,74.468,178.959,170,188.954V310z"/>
	<path style="fill:#3FC3D8;" d="M420,190C420,85.066,334.934,0,230,0v80c60.654,0,110,49.346,110,110
		c0,47.634-30.436,88.287-72.881,103.549L265,310h-15v68.954C345.532,368.959,420,288.179,420,190z"/>
	<path style="fill:#3FC3D8;" d="M120,190c0,47.634,30.436,88.287,72.881,103.549L180.44,196.97c-0.28-2.15-0.44-4.34-0.44-6.56
		c0-27.57,22.43-50,50-50V80C169.346,80,120,129.346,120,190z"/>
	<path style="fill:#1398AD;" d="M280,190.41c0,2.22-0.16,4.41-0.44,6.56l-12.441,96.579C309.564,278.287,340,237.634,340,190
		c0-60.654-49.346-110-110-110v60.41C257.57,140.41,280,162.84,280,190.41z"/>
	<rect x="210" y="350" style="fill:#EF9E8F;" width="40" height="110"/>
	<path style="fill:#EF1F4B;" d="M280,190.41c0-27.57-22.43-50-50-50V310h-20v40h40v-40h15l2.119-16.451l12.441-96.579
		C279.84,194.82,280,192.63,280,190.41z"/>
	<path style="fill:#EA6453;" d="M230,140.41c-27.57,0-50,22.43-50,50c0,2.22,0.16,4.41,0.44,6.56l12.441,96.579L195,310h35V140.41z"
		/>
</g>
<g>
</g>
<g>
</g>
<g>
</g>
<g>
</g>
<g>
</g>
<g>
</g>
<g>
</g>
<g>
</g>
<g>
</g>
<g>
</g>
<g>
</g>
<g>
</g>
<g>
</g>
<g>
</g>
<g>
</g>
</svg>
