<?xml version="1.0" encoding="iso-8859-1"?>
<!-- Generator: Adobe Illustrator 19.0.0, SVG Export Plug-In . SVG Version: 6.00 Build 0)  -->
<svg version="1.1" id="Capa_1" xmlns="http://www.w3.org/2000/svg" xmlns:xlink="http://www.w3.org/1999/xlink" x="0px" y="0px"
	 viewBox="0 0 460 460" style="enable-background:new 0 0 460 460;" xml:space="preserve">
<g>
	<path style="fill:#EA6453;" d="M213.574,335c-8.359-51.046-52.664-90-106.074-90c-20.76,0-40.142,5.891-56.576,16.083
		l22.914-189.04C75.943,54.674,92.503,40,110,40h50V0h-50C91.808,0,73.929,6.965,59.656,19.612S36.318,49.17,34.129,67.23
		L3.05,327.003C1.062,335.177,0,343.714,0,352.5C0,411.871,48.129,460,107.5,460c51.653,0,94.79-36.432,105.134-85
		c1.546-7.257,2.366-14.782,2.366-22.5C215,346.54,214.507,340.696,213.574,335z M107.5,420C70.28,420,40,389.72,40,352.5
		S70.28,285,107.5,285s67.5,30.28,67.5,67.5S144.72,420,107.5,420z"/>
	<path style="fill:#FFFFFF;" d="M40,352.5c0,37.22,30.28,67.5,67.5,67.5V285C70.28,285,40,315.28,40,352.5z"/>
	<path style="fill:#6BE0F4;" d="M107.5,285v135c37.22,0,67.5-30.28,67.5-67.5S144.72,285,107.5,285z"/>
	<path style="fill:#EF1F4B;" d="M456.95,327.003L425.871,67.23c-2.189-18.06-11.255-34.971-25.527-47.618S368.192,0,350,0h-50v40h50
		c17.496,0,34.057,14.674,36.162,32.043l22.914,189.04C392.642,250.891,373.26,245,352.5,245c-53.411,0-97.716,38.954-106.074,90
		h-32.851c0.933,5.696,1.426,11.54,1.426,17.5c0,7.718-0.82,15.243-2.366,22.5h34.731c10.344,48.568,53.481,85,105.134,85
		c59.371,0,107.5-48.129,107.5-107.5C460,343.714,458.938,335.177,456.95,327.003z M352.5,420c-37.22,0-67.5-30.28-67.5-67.5
		s30.28-67.5,67.5-67.5s67.5,30.28,67.5,67.5S389.72,420,352.5,420z"/>
	<path style="fill:#FFFFFF;" d="M285,352.5c0,37.22,30.28,67.5,67.5,67.5V285C315.28,285,285,315.28,285,352.5z"/>
	<path style="fill:#6BE0F4;" d="M352.5,285v135c37.22,0,67.5-30.28,67.5-67.5S389.72,285,352.5,285z"/>
</g>
<g>
</g>
<g>
</g>
<g>
</g>
<g>
</g>
<g>
</g>
<g>
</g>
<g>
</g>
<g>
</g>
<g>
</g>
<g>
</g>
<g>
</g>
<g>
</g>
<g>
</g>
<g>
</g>
<g>
</g>
</svg>
