<?xml version="1.0" encoding="iso-8859-1"?>
<!-- Generator: Adobe Illustrator 19.0.0, SVG Export Plug-In . SVG Version: 6.00 Build 0)  -->
<svg version="1.1" id="Capa_1" xmlns="http://www.w3.org/2000/svg" xmlns:xlink="http://www.w3.org/1999/xlink" x="0px" y="0px"
	 viewBox="0 0 460 460" style="enable-background:new 0 0 460 460;" xml:space="preserve">
<g>
	<path style="fill:#1398AD;" d="M395,0c-35.841,0-65,29.159-65,65v125H230v40h190v190H230v40h230V65C460,29.159,430.841,0,395,0z
		 M370,190V65c0-13.785,11.215-25,25-25s25,11.215,25,25v125H370z"/>
	<path style="fill:#3FC3D8;" d="M40,420V230h190v-40H130V65c0-35.841-29.159-65-65-65S0,29.159,0,65v395h230v-40H40z M40,65
		c0-13.785,11.215-25,25-25s25,11.215,25,25v125H40V65z"/>
	<rect x="40" y="230" style="fill:#FFFFFF;" width="190" height="40"/>
	<rect x="40" y="380" style="fill:#FFFFFF;" width="190" height="40"/>
	<rect x="40" y="310" style="fill:#FFFFFF;" width="190" height="30"/>
	<rect x="230" y="380" style="fill:#6BE0F4;" width="190" height="40"/>
	<rect x="230" y="230" style="fill:#6BE0F4;" width="190" height="40"/>
	<rect x="230" y="310" style="fill:#6BE0F4;" width="190" height="30"/>
	<rect x="230" y="340" style="fill:#3FC3D8;" width="190" height="40"/>
	<rect x="230" y="270" style="fill:#3FC3D8;" width="190" height="40"/>
	<rect x="40" y="340" style="fill:#6BE0F4;" width="190" height="40"/>
	<rect x="40" y="270" style="fill:#6BE0F4;" width="190" height="40"/>
</g>
<g>
</g>
<g>
</g>
<g>
</g>
<g>
</g>
<g>
</g>
<g>
</g>
<g>
</g>
<g>
</g>
<g>
</g>
<g>
</g>
<g>
</g>
<g>
</g>
<g>
</g>
<g>
</g>
<g>
</g>
</svg>
