<?xml version="1.0" encoding="iso-8859-1"?>
<!-- Generator: Adobe Illustrator 19.0.0, SVG Export Plug-In . SVG Version: 6.00 Build 0)  -->
<svg version="1.1" id="Capa_1" xmlns="http://www.w3.org/2000/svg" xmlns:xlink="http://www.w3.org/1999/xlink" x="0px" y="0px"
	 viewBox="0 0 460 460" style="enable-background:new 0 0 460 460;" xml:space="preserve">
<g>
	<path style="fill:#FFB743;" d="M410,90H230v60h40v60h60v80h-60v60h-40v60h180c27.5,0,50-22.5,50-50V140C460,112.5,437.5,90,410,90z
		"/>
	<path style="fill:#FFD152;" d="M190,350v-60h-60v-80h60v-60h40V90H50c-27.5,0-50,22.5-50,50v220c0,27.5,22.5,50,50,50h180v-60H190z
		"/>
	<polygon style="fill:#FFB743;" points="230,10 120,10 120,90 160,90 160,50 230,50 	"/>
	<rect x="340" y="410" style="fill:#FFB007;" width="80" height="40"/>
	<rect x="40" y="410" style="fill:#FFB743;" width="80" height="40"/>
	<polygon style="fill:#FFB007;" points="230,10 340,10 340,90 300,90 300,50 230,50 	"/>
	<polygon style="fill:#EA6453;" points="190,150 190,210 130,210 130,290 190,290 190,350 230,350 230,150 	"/>
	<polygon style="fill:#EF1F4B;" points="270,210 270,150 230,150 230,350 270,350 270,290 330,290 330,210 	"/>
</g>
<g>
</g>
<g>
</g>
<g>
</g>
<g>
</g>
<g>
</g>
<g>
</g>
<g>
</g>
<g>
</g>
<g>
</g>
<g>
</g>
<g>
</g>
<g>
</g>
<g>
</g>
<g>
</g>
<g>
</g>
</svg>
