<?xml version="1.0" encoding="iso-8859-1"?>
<!-- Generator: Adobe Illustrator 19.0.0, SVG Export Plug-In . SVG Version: 6.00 Build 0)  -->
<svg version="1.1" id="Capa_1" xmlns="http://www.w3.org/2000/svg" xmlns:xlink="http://www.w3.org/1999/xlink" x="0px" y="0px"
	 viewBox="0 0 460 460" style="enable-background:new 0 0 460 460;" xml:space="preserve">
<g>
	<path style="fill:#4370D9;" d="M90,280c0-63.419,42.172-116.979,100-134.191V40.002h-40v78.722C90.734,148.178,50,209.328,50,280
		c0,99.411,80.589,180,180,180v-40C152.68,420,90,357.32,90,280z"/>
	<path style="fill:#0B389C;" d="M310,118.725V40.002h20V0H130v40.002h140v105.807C327.828,163.021,370,216.581,370,280
		c0,77.32-62.68,140-140,140v40c99.411,0,180-80.589,180-180C410,209.328,369.266,148.178,310,118.725z"/>
	<path style="fill:#EA6453;" d="M90,280c0,77.32,62.68,140,140,140V280H90z"/>
	<path style="fill:#3FC3D8;" d="M190,40.002v105.807C132.172,163.021,90,216.581,90,280h140V40.002H190z"/>
	<path style="fill:#EF1F4B;" d="M230,420c77.32,0,140-62.68,140-140H230V420z"/>
	<path style="fill:#1398AD;" d="M270,145.809V40.002h-40V280h140C370,216.581,327.828,163.021,270,145.809z"/>
</g>
<g>
</g>
<g>
</g>
<g>
</g>
<g>
</g>
<g>
</g>
<g>
</g>
<g>
</g>
<g>
</g>
<g>
</g>
<g>
</g>
<g>
</g>
<g>
</g>
<g>
</g>
<g>
</g>
<g>
</g>
</svg>
