<?xml version="1.0" encoding="iso-8859-1"?>
<!-- Generator: Adobe Illustrator 19.0.0, SVG Export Plug-In . SVG Version: 6.00 Build 0)  -->
<svg version="1.1" id="Capa_1" xmlns="http://www.w3.org/2000/svg" xmlns:xlink="http://www.w3.org/1999/xlink" x="0px" y="0px"
	 viewBox="0 0 460 460" style="enable-background:new 0 0 460 460;" xml:space="preserve">
<g>
	<path style="fill:#1398AD;" d="M365,270c-38.432,0-71.53,22.822-86.49,55.652l-25.453-44.111L230,321.474l52.728,91.322
		c0,0,0.006-0.087,0.016-0.242C299.178,440.919,329.859,460,365,460c52.467,0,95-42.533,95-95S417.467,270,365,270z M365,420
		c-30.327,0-55-24.673-55-55s24.673-55,55-55s55,24.673,55,55S395.327,420,365,420z"/>
	<path style="fill:#1398AD;" d="M181.037,156.727c6.497-1.217,12.904-3.523,18.953-7.015c28.698-16.569,38.53-53.264,21.962-81.961
		L200.28,30.01C183.711,1.313,147.016-8.52,118.318,8.048C89.621,24.617,79.788,61.313,96.357,90.01l110.586,191.531L230,241.582
		L181.037,156.727z M152.669,107.777l-21.672-37.74c-5.514-9.55-2.23-21.806,7.321-27.321c9.55-5.514,21.807-2.23,27.32,7.321
		l21.672,37.74c5.514,9.55,2.23,21.807-7.32,27.32C170.44,120.611,158.183,117.327,152.669,107.777z"/>
	<path style="fill:#3FC3D8;" d="M363.643,90.01c16.569-28.698,6.736-65.393-21.961-81.962C312.984-8.52,276.289,1.313,259.72,30.01
		l-21.672,37.74c-16.569,28.698-6.736,65.393,21.962,81.961c6.05,3.493,12.456,5.799,18.953,7.015L230,241.582l-23.057,39.958
		l-25.453,44.111C166.53,292.822,133.432,270,95,270c-52.467,0-95,42.533-95,95s42.533,95,95,95
		c35.141,0,65.822-19.081,82.256-47.446c0.011,0.155,0.016,0.242,0.016,0.242L230,321.474l23.057-39.934L363.643,90.01z
		 M272.69,87.777l21.672-37.74c5.514-9.55,17.77-12.834,27.32-7.321c9.55,5.514,12.834,17.77,7.321,27.321l-21.672,37.74
		c-5.514,9.55-17.77,12.834-27.321,7.32C270.46,109.584,267.176,97.327,272.69,87.777z M95,420c-30.327,0-55-24.673-55-55
		s24.673-55,55-55s55,24.673,55,55S125.327,420,95,420z"/>
</g>
<g>
</g>
<g>
</g>
<g>
</g>
<g>
</g>
<g>
</g>
<g>
</g>
<g>
</g>
<g>
</g>
<g>
</g>
<g>
</g>
<g>
</g>
<g>
</g>
<g>
</g>
<g>
</g>
<g>
</g>
</svg>
