<?xml version="1.0" encoding="iso-8859-1"?>
<!-- Generator: Adobe Illustrator 19.0.0, SVG Export Plug-In . SVG Version: 6.00 Build 0)  -->
<svg version="1.1" id="Capa_1" xmlns="http://www.w3.org/2000/svg" xmlns:xlink="http://www.w3.org/1999/xlink" x="0px" y="0px"
	 viewBox="0 0 460 460" style="enable-background:new 0 0 460 460;" xml:space="preserve">
<g>
	<path style="fill:#FFE292;" d="M50,340h180V0H50C22.5,0,0,22.5,0,50v330h1.013C5.678,357.249,25.922,340,50,340z"/>
	<path style="fill:#FFD152;" d="M230,0v340H50c-24.078,0-44.322,17.249-48.987,40C0.349,383.234,0,386.578,0,390v20
		c0,27.5,22.5,50,50,50h360v-40H40v-40h420V0H230z M416.569,308.284l-28.284,28.284L360,308.284l-28.284,28.284l-28.284-28.284
		L331.716,280l-28.284-28.284l28.284-28.284L360,251.716l28.284-28.284l28.284,28.284L388.284,280L416.569,308.284z"/>
	<rect x="40" y="380" style="fill:#FFB743;" width="370" height="40"/>
	<polygon style="fill:#FFE292;" points="388.284,223.431 360,251.716 331.716,223.431 303.431,251.716 331.716,280 303.431,308.284 
		331.716,336.569 360,308.284 388.284,336.569 416.569,308.284 388.284,280 416.569,251.716 	"/>
</g>
<g>
</g>
<g>
</g>
<g>
</g>
<g>
</g>
<g>
</g>
<g>
</g>
<g>
</g>
<g>
</g>
<g>
</g>
<g>
</g>
<g>
</g>
<g>
</g>
<g>
</g>
<g>
</g>
<g>
</g>
</svg>
