<?xml version="1.0" encoding="iso-8859-1"?>
<!-- Generator: Adobe Illustrator 19.0.0, SVG Export Plug-In . SVG Version: 6.00 Build 0)  -->
<svg version="1.1" id="Capa_1" xmlns="http://www.w3.org/2000/svg" xmlns:xlink="http://www.w3.org/1999/xlink" x="0px" y="0px"
	 viewBox="0 0 460 460" style="enable-background:new 0 0 460 460;" xml:space="preserve">
<g>
	<path style="fill:#6BE0F4;" d="M204.85,372.84c-36.011-14.043-61.59-49.093-61.59-90.01V170h-61.7v72h-61.3v40.83
		c0,40.917,25.579,75.967,61.59,90.01V430h123V372.84z"/>
	<rect x="81.85" y="430" style="fill:#3FC3D8;" width="123" height="30"/>
	<path style="fill:#3FC3D8;" d="M143.26,152.79c0-14.14,11.5-25.65,25.65-25.65c12.592,0,23.09,9.13,25.24,21.114V25.65
		C194.15,11.51,182.64,0,168.5,0c-14.14,0-25.65,11.51-25.65,25.65V170h0.41V152.79z"/>
	<path style="fill:#3FC3D8;" d="M132.85,45.65c0-14.15-11.5-25.65-25.65-25.65c-14.14,0-25.64,11.5-25.64,25.65V170h51.29V45.65z"/>
	<rect x="194.56" y="170" style="fill:#6BE0F4;" width="10" height="72"/>
	<path style="fill:#3FC3D8;" d="M71.56,152.79c0-14.14-11.51-25.65-25.65-25.65c-14.15,0-25.65,11.51-25.65,25.65V242h51.3V152.79z"
		/>
	<rect x="204.85" y="430" style="fill:#1398AD;" width="204" height="30"/>
	<path style="fill:#1398AD;" d="M414.09,40c-14.14,0-25.64,11.5-25.64,25.65V170h51.29V65.65C439.74,51.5,428.24,40,414.09,40z"/>
	<path style="fill:#1398AD;" d="M378.45,45.65c0-14.14-11.51-25.65-25.65-25.65c-14.15,0-25.65,11.51-25.65,25.65V170h51.3V45.65z"
		/>
	<path style="fill:#1398AD;" d="M317.15,170V25.65C317.15,11.51,305.64,0,291.5,0c-14.14,0-25.65,11.51-25.65,25.65V170H317.15z"/>
	<path style="fill:#1398AD;" d="M255.85,45.65c0-14.15-11.5-25.65-25.65-25.65c-14.14,0-25.64,11.5-25.64,25.65V170h51.29V45.65z"/>
	<path style="fill:#3FC3D8;" d="M204.56,170v72h-61.3v40.83c0,40.917,25.579,75.967,61.59,90.01V430h204v-76.446
		c18.989-17.646,30.89-42.819,30.89-70.724V170H204.56z"/>
	<path style="fill:#1398AD;" d="M168.91,127.14c-14.15,0-25.65,11.51-25.65,25.65V242h51.3v-89.21c0-1.548-0.146-3.062-0.41-4.536
		C192,136.27,181.502,127.14,168.91,127.14z"/>
</g>
<g>
</g>
<g>
</g>
<g>
</g>
<g>
</g>
<g>
</g>
<g>
</g>
<g>
</g>
<g>
</g>
<g>
</g>
<g>
</g>
<g>
</g>
<g>
</g>
<g>
</g>
<g>
</g>
<g>
</g>
</svg>
