<?xml version="1.0" encoding="iso-8859-1"?>
<!-- Generator: Adobe Illustrator 19.0.0, SVG Export Plug-In . SVG Version: 6.00 Build 0)  -->
<svg version="1.1" id="Capa_1" xmlns="http://www.w3.org/2000/svg" xmlns:xlink="http://www.w3.org/1999/xlink" x="0px" y="0px"
	 viewBox="0 0 460.001 460.001" style="enable-background:new 0 0 460.001 460.001;" xml:space="preserve">
<g>
	
		<rect x="75.459" y="221.257" transform="matrix(0.7071 0.7071 -0.7071 0.7071 265.7285 30.9871)" style="fill:#3FC3D8;" width="40" height="230"/>
	
		<rect x="377.575" y="163.848" transform="matrix(0.7071 -0.7071 0.7071 0.7071 -7.6955 349.1171)" style="fill:#EF1F4B;" width="80" height="40"/>
	<polygon style="fill:#1398AD;" points="389.291,98.995 408.64,79.646 380.356,51.361 361.006,70.711 375.148,84.853 
		318.58,141.422 304.438,127.279 176.777,254.94 190.919,269.082 28.284,431.716 56.569,460.001 219.203,297.367 205.061,283.225 
		332.722,155.564 375.148,197.99 431.717,141.422 	"/>
	<polygon style="fill:#3FC3D8;" points="375.148,84.853 361.006,70.711 318.58,28.285 262.011,84.853 304.438,127.279 
		318.58,141.422 	"/>
	
		<rect x="236.154" y="22.427" transform="matrix(0.7071 -0.7071 0.7071 0.7071 50.8829 207.6962)" style="fill:#EA6453;" width="80" height="40"/>
</g>
<g>
</g>
<g>
</g>
<g>
</g>
<g>
</g>
<g>
</g>
<g>
</g>
<g>
</g>
<g>
</g>
<g>
</g>
<g>
</g>
<g>
</g>
<g>
</g>
<g>
</g>
<g>
</g>
<g>
</g>
</svg>
