<?xml version="1.0" encoding="iso-8859-1"?>
<!-- Generator: Adobe Illustrator 19.0.0, SVG Export Plug-In . SVG Version: 6.00 Build 0)  -->
<svg version="1.1" id="Capa_1" xmlns="http://www.w3.org/2000/svg" xmlns:xlink="http://www.w3.org/1999/xlink" x="0px" y="0px"
	 viewBox="0 0 460 460" style="enable-background:new 0 0 460 460;" xml:space="preserve">
<g>
	<path style="fill:#EF1F4B;" d="M185.399,415.726C185.489,440.269,205.458,460.09,230,460c24.542,0.091,44.511-19.731,44.601-44.273
		c0.037-10.06-3.706-19.043-8.882-26.819C260.216,380.639,230,340,230,340c-14.958,19.703-28.087,37.441-35.72,48.908
		C189.105,396.683,185.362,405.666,185.399,415.726z"/>
	<path style="fill:#EF1F4B;" d="M398.71,90.03C398.71,40.31,358.4,0,308.68,0C274.64,0,245.05,19.06,230,47.11L230,340
		c52.05-68.56,115.26-149.11,150.52-195.72C391.93,129.19,398.71,110.41,398.71,90.03z"/>
	<path style="fill:#EA6453;" d="M151.32,0C101.6,0,61.29,40.31,61.29,90.03c0,20.38,14.01,39.16,25.42,54.25
		C121.97,190.89,177.95,271.44,230,340l0-292.89C214.96,19.07,185.37,0,151.32,0z"/>
</g>
<g>
</g>
<g>
</g>
<g>
</g>
<g>
</g>
<g>
</g>
<g>
</g>
<g>
</g>
<g>
</g>
<g>
</g>
<g>
</g>
<g>
</g>
<g>
</g>
<g>
</g>
<g>
</g>
<g>
</g>
</svg>
