<?xml version="1.0" encoding="iso-8859-1"?>
<!-- Generator: Adobe Illustrator 19.0.0, SVG Export Plug-In . SVG Version: 6.00 Build 0)  -->
<svg version="1.1" id="Capa_1" xmlns="http://www.w3.org/2000/svg" xmlns:xlink="http://www.w3.org/1999/xlink" x="0px" y="0px"
	 viewBox="0 0 460 460" style="enable-background:new 0 0 460 460;" xml:space="preserve">
<g>
	<path style="fill:#0B389C;" d="M420,370c0,11.046-8.954,20-20,20h-50v-60h-40v60H190v-60h-40v60H70v40h330
		c33.137,0,60-26.863,60-60H420z"/>
	<rect x="271" y="70" style="fill:#0B389C;" width="40" height="60"/>
	<rect x="290" y="30" style="fill:#0B389C;" width="170" height="40"/>
	<rect x="120" y="30" style="fill:#4370D9;" width="170" height="40"/>
	<polygon style="fill:#3FC3D8;" points="76.569,130 60,90 0,90 0,210 110,210 110,330 310,330 310,130 	"/>
	<rect x="310" y="260" style="fill:#1398AD;" width="150" height="70"/>
	<path style="fill:#6BE0F4;" d="M330,130h-20v130h150C460,188.203,401.797,130,330,130z"/>
	<polygon style="fill:#EA6453;" points="270,210 230,210 230,170 190,170 190,210 150,210 150,250 190,250 190,290 230,290 230,250 
		270,250 	"/>
</g>
<g>
</g>
<g>
</g>
<g>
</g>
<g>
</g>
<g>
</g>
<g>
</g>
<g>
</g>
<g>
</g>
<g>
</g>
<g>
</g>
<g>
</g>
<g>
</g>
<g>
</g>
<g>
</g>
<g>
</g>
</svg>
