<?xml version="1.0" encoding="iso-8859-1"?>
<!-- Generator: Adobe Illustrator 19.0.0, SVG Export Plug-In . SVG Version: 6.00 Build 0)  -->
<svg version="1.1" id="Capa_1" xmlns="http://www.w3.org/2000/svg" xmlns:xlink="http://www.w3.org/1999/xlink" x="0px" y="0px"
	 viewBox="0 0 460 460" style="enable-background:new 0 0 460 460;" xml:space="preserve">
<g>
	<rect x="0" y="390" style="fill:#EA6453;" width="120" height="70"/>
	<rect x="0" y="70" style="fill:#EA6453;" width="120" height="40"/>
	<rect x="340" y="390" style="fill:#EF1F4B;" width="120" height="70"/>
	<rect x="340" y="70" style="fill:#EF1F4B;" width="120" height="40"/>
	<polygon style="fill:#FFE292;" points="120,0 230,0 230,30 210,30 210,70 170,70 170,110 210,110 210,150 230,150 230,190 170,190 
		170,230 230,230 230,270 170,270 170,310 230,310 230,350 160,350 160,460 120,460 	"/>
	<rect x="230" y="350" style="fill:#EF1F4B;" width="70" height="110"/>
	<rect x="160" y="350" style="fill:#EA6453;" width="70" height="110"/>
	<polygon style="fill:#FFB743;" points="230,350 230,310 290,310 290,270 230,270 230,230 290,230 290,190 230,190 230,150 250,150 
		250,110 290,110 290,70 250,70 250,30 230,30 230,0 340,0 340,460 300,460 300,350 	"/>
	<polygon style="fill:#EF1F4B;" points="210,70 170,70 170,110 210,110 210,150 250,150 250,110 290,110 290,70 250,70 250,30 
		210,30 	"/>
	<rect x="170" y="190" style="fill:#FFFFFF;" width="120" height="40"/>
	<rect x="170" y="270" style="fill:#FFFFFF;" width="120" height="40"/>
	<rect x="400" y="110" style="fill:#FFB743;" width="60" height="280"/>
	<rect x="340" y="110" style="fill:#FFD152;" width="60" height="280"/>
	<rect x="60" y="110" style="fill:#FFD152;" width="60" height="280"/>
	<rect x="0" y="110" style="fill:#FFE292;" width="60" height="280"/>
</g>
<g>
</g>
<g>
</g>
<g>
</g>
<g>
</g>
<g>
</g>
<g>
</g>
<g>
</g>
<g>
</g>
<g>
</g>
<g>
</g>
<g>
</g>
<g>
</g>
<g>
</g>
<g>
</g>
<g>
</g>
</svg>
