<?xml version="1.0" encoding="iso-8859-1"?>
<!-- Generator: Adobe Illustrator 19.0.0, SVG Export Plug-In . SVG Version: 6.00 Build 0)  -->
<svg version="1.1" id="Capa_1" xmlns="http://www.w3.org/2000/svg" xmlns:xlink="http://www.w3.org/1999/xlink" x="0px" y="0px"
	 viewBox="0 0 460 460" style="enable-background:new 0 0 460 460;" xml:space="preserve">
<g>
	<path style="fill:#F57B71;" d="M320,0h-90v20c11.046,0,20,8.954,20,20s-8.954,20-20,20v20h90c33.08,0,60,26.92,60,60v50h80v-50
		C460,62.8,397.2,0,320,0z M300,60c-11.046,0-20-8.954-20-20s8.954-20,20-20s20,8.954,20,20S311.046,60,300,60z"/>
	<path style="fill:#EF8CA7;" d="M80,140c0-33.08,26.92-60,60-60h90V60c-11.046,0-20-8.954-20-20s8.954-20,20-20V0h-90
		C62.8,0,0,62.8,0,140v50h80V140z M160,20c11.046,0,20,8.954,20,20s-8.954,20-20,20s-20-8.954-20-20S148.954,20,160,20z"/>
	<polygon style="fill:#EA6453;" points="230,190 230,230 420,230 420,420 230,420 230,460 460,460 460,190 	"/>
	<polygon style="fill:#F57B71;" points="40,420 40,230 230,230 230,190 0,190 0,460 230,460 230,420 	"/>
	<polygon style="fill:#FFFFFF;" points="40,420 230,420 230,380.001 80.006,380.001 80.006,340.001 230,340.001 230,310 80.006,310 
		80.006,270 230,270 230,230 40,230 	"/>
	<polygon style="fill:#EF8CA7;" points="300,270 300,310 230,310 230,340.001 380.006,340.001 380.006,380.001 230,380.001 230,420 
		420,420 420,230 230,230 230,270 	"/>
	<rect x="80.006" y="340.001" style="fill:#EF1F4B;" width="300" height="40"/>
	<rect x="80.006" y="270" style="fill:#EF1F4B;" width="219.994" height="40"/>
</g>
<g>
</g>
<g>
</g>
<g>
</g>
<g>
</g>
<g>
</g>
<g>
</g>
<g>
</g>
<g>
</g>
<g>
</g>
<g>
</g>
<g>
</g>
<g>
</g>
<g>
</g>
<g>
</g>
<g>
</g>
</svg>
