<?xml version="1.0" encoding="iso-8859-1"?>
<!-- Generator: Adobe Illustrator 19.0.0, SVG Export Plug-In . SVG Version: 6.00 Build 0)  -->
<svg version="1.1" id="Capa_1" xmlns="http://www.w3.org/2000/svg" xmlns:xlink="http://www.w3.org/1999/xlink" x="0px" y="0px"
	 viewBox="0 0 460 460" style="enable-background:new 0 0 460 460;" xml:space="preserve">
<g>
	<rect x="270" y="380" style="fill:#EF9E8F;" width="40" height="40"/>
	<rect x="270" y="420" style="fill:#EA6453;" width="40" height="40"/>
	<path style="fill:#EF9E8F;" d="M230,100H110v90c60,0,90-7.5,120-15V100z"/>
	<path style="fill:#F57B71;" d="M230,100v75c30-7.5,60-15,120-15v-60H230z"/>
	<path style="fill:#EA6453;" d="M110,190v150h120V175C200,182.5,170,190,110,190z"/>
	<path style="fill:#EF1F4B;" d="M350,160c-60,0-90,7.5-120,15v165h120V160z"/>
	<rect x="230" y="340" style="fill:#F57B71;" width="120" height="40"/>
	<polygon style="fill:#EF9E8F;" points="230,340 110,340 110,380 170,380 170,440 210,440 210,380 230,380 	"/>
	<path style="fill:#F57B71;" d="M210,50c0-11.046,8.954-20,20-20V0H110v100h120V70C218.954,70,210,61.046,210,50z"/>
	<path style="fill:#EA6453;" d="M230,0v30c11.046,0,20,8.954,20,20s-8.954,20-20,20v30h120V0H230z"/>
</g>
<g>
</g>
<g>
</g>
<g>
</g>
<g>
</g>
<g>
</g>
<g>
</g>
<g>
</g>
<g>
</g>
<g>
</g>
<g>
</g>
<g>
</g>
<g>
</g>
<g>
</g>
<g>
</g>
<g>
</g>
</svg>
