<?xml version="1.0" encoding="iso-8859-1"?>
<!-- Generator: Adobe Illustrator 19.0.0, SVG Export Plug-In . SVG Version: 6.00 Build 0)  -->
<svg version="1.1" id="Capa_1" xmlns="http://www.w3.org/2000/svg" xmlns:xlink="http://www.w3.org/1999/xlink" x="0px" y="0px"
	 viewBox="0 0 460 460" style="enable-background:new 0 0 460 460;" xml:space="preserve">
<g>
	<polygon style="fill:#1398AD;" points="310,0 310,40 250,40 250,80 350,80 350,0 	"/>
	<polygon style="fill:#3FC3D8;" points="150,100 150,60 110,60 110,140 210,140 210,100 	"/>
	<path style="fill:#EA6453;" d="M90,300h80v-50c-40,0-40-20-80-20V300z"/>
	<path style="fill:#EF9E8F;" d="M90,180v50c40,0,40,20,80,20v-70h-40H90z"/>
	<rect x="210" y="0" style="fill:#3FC3D8;" width="40" height="380"/>
	<circle style="fill:#0B389C;" cx="110" cy="440" r="20"/>
	<circle style="fill:#0B389C;" cx="350" cy="440" r="20"/>
	<circle style="fill:#0B389C;" cx="230" cy="440" r="20"/>
	<rect x="210" y="380" style="fill:#1398AD;" width="160" height="40"/>
	<rect x="90" y="380" style="fill:#3FC3D8;" width="120" height="40"/>
	<path style="fill:#EF1F4B;" d="M290,240h80v-50c-40,0-40-20-80-20V240z"/>
	<path style="fill:#F57B71;" d="M290,120v50c40,0,40,20,80,20v-70H290z"/>
</g>
<g>
</g>
<g>
</g>
<g>
</g>
<g>
</g>
<g>
</g>
<g>
</g>
<g>
</g>
<g>
</g>
<g>
</g>
<g>
</g>
<g>
</g>
<g>
</g>
<g>
</g>
<g>
</g>
<g>
</g>
</svg>
