<?xml version="1.0" encoding="iso-8859-1"?>
<!-- Generator: Adobe Illustrator 19.0.0, SVG Export Plug-In . SVG Version: 6.00 Build 0)  -->
<svg version="1.1" id="Capa_1" xmlns="http://www.w3.org/2000/svg" xmlns:xlink="http://www.w3.org/1999/xlink" x="0px" y="0px"
	 viewBox="0 0 460 460" style="enable-background:new 0 0 460 460;" xml:space="preserve">
<g>
	<path style="fill:#3FC3D8;" d="M55.541,161.59c-12.11-15.11-17.42-34.33-14.95-54.15c2.62-21,13.83-40.37,30.75-53.15
		C83.891,44.81,98.331,40,114.271,40c24.92,0,51.35,12.24,70.7,32.73c1.548,1.639,3.053,3.335,4.537,5.059
		c4.613-13.095,11.553-25.49,20.671-36.476C165.561-2.621,97.433-15.544,47.231,22.37c-51.68,39.03-63.41,113.71-22.9,164.24
		c12.3,15.35,17.08,27.71,17.08,43.39h40C81.411,205,73.431,183.9,55.541,161.59z"/>
	<path style="fill:#1398AD;" d="M184.971,387.27c-2.419,2.561-4.948,4.994-7.571,7.289C159.037,410.629,136.077,420,114.281,420
		c-13.958,0-26.757-3.683-38.146-10.954c-1.627-1.039-3.225-2.151-4.794-3.336c-16.92-12.78-28.13-32.15-30.75-53.15
		c-2.47-19.82,2.84-39.04,14.95-54.15C73.431,276.1,81.411,255,81.411,230h-40c0,15.68-4.78,28.04-17.08,43.39
		c-40.51,50.53-28.78,125.21,22.9,164.24c50.202,37.914,118.33,24.991,162.948-18.942c-9.118-10.986-16.058-23.381-20.671-36.476
		C188.024,383.935,186.519,385.631,184.971,387.27z"/>
	<path style="fill:#6BE0F4;" d="M189.508,77.789c-1.484-1.723-2.989-3.42-4.537-5.059c-19.35-20.49-45.78-32.73-70.7-32.73
		c-15.94,0-30.38,4.81-42.93,14.29c-16.92,12.78-28.13,32.15-30.75,53.15c-2.47,19.82,2.84,39.04,14.95,54.15
		C73.431,183.9,81.411,205,81.411,230H224.19c0-15.68-4.78-28.04-17.08-43.39C181.702,154.918,176.848,113.727,189.508,77.789z"/>
	<path style="fill:#3FC3D8;" d="M55.541,298.41c-12.11,15.11-17.42,34.33-14.95,54.15c2.62,21,13.83,40.37,30.75,53.15
		c1.569,1.185,3.167,2.297,4.794,3.336c11.388,7.271,24.187,10.953,38.141,10.954c21.801,0,44.761-9.371,63.123-25.441
		c2.623-2.295,5.153-4.728,7.571-7.289c1.548-1.639,3.053-3.335,4.537-5.059c-12.66-35.938-7.806-77.129,17.602-108.821
		c12.3-15.35,17.08-27.71,17.08-43.39H81.411C81.411,255,73.431,276.1,55.541,298.41z"/>
	<path style="fill:#4370D9;" d="M207.11,186.61c12.3,15.35,17.08,27.71,17.08,43.39h77.2v-65h40v65H460
		c0-67.26-17.57-136.45-63.16-184.73c-44.47-47.09-115.15-61.93-166.83-22.9c-7.456,5.631-14.075,12.007-19.831,18.942
		c-9.118,10.986-16.058,23.381-20.671,36.476C176.848,113.727,181.702,154.918,207.11,186.61z"/>
	<path style="fill:#0B389C;" d="M341.39,230v65h-40v-65h-77.2c0,15.68-4.78,28.04-17.08,43.39
		c-25.408,31.692-30.262,72.883-17.602,108.821c4.613,13.095,11.553,25.49,20.671,36.476c5.756,6.935,12.375,13.312,19.831,18.942
		c51.68,39.03,122.36,24.19,166.83-22.9C442.43,366.45,460,297.26,460,230H341.39z"/>
	<rect x="301.39" y="230" style="fill:#3FC3D8;" width="40" height="65"/>
	<rect x="301.39" y="165" style="fill:#6BE0F4;" width="40" height="65"/>
</g>
<g>
</g>
<g>
</g>
<g>
</g>
<g>
</g>
<g>
</g>
<g>
</g>
<g>
</g>
<g>
</g>
<g>
</g>
<g>
</g>
<g>
</g>
<g>
</g>
<g>
</g>
<g>
</g>
<g>
</g>
</svg>
