<?xml version="1.0" encoding="iso-8859-1"?>
<!-- Generator: Adobe Illustrator 19.0.0, SVG Export Plug-In . SVG Version: 6.00 Build 0)  -->
<svg version="1.1" id="Capa_1" xmlns="http://www.w3.org/2000/svg" xmlns:xlink="http://www.w3.org/1999/xlink" x="0px" y="0px"
	 viewBox="0 0 460.001 460.001" style="enable-background:new 0 0 460.001 460.001;" xml:space="preserve">
<g>
	<polygon style="fill:#3FC3D8;" points="190.919,269.082 176.777,254.94 162.635,240.797 0,403.432 28.284,431.716 	"/>
	<path style="fill:#1398AD;" d="M435.104,24.899L406.82,53.184c17.543,17.543,17.55,46.089,0,63.64
		c-17.543,17.543-46.096,17.543-63.64,0l-28.284,28.284c-4.874-4.874-9.012-10.201-12.454-15.833L176.777,254.94l14.142,14.142
		L28.284,431.716l28.284,28.284l162.635-162.635l-14.142-14.142l125.665-125.665c32.729,20.005,76.059,15.868,104.378-12.451
		C468.303,111.909,468.296,58.091,435.104,24.899z"/>
	<path style="fill:#6BE0F4;" d="M343.181,116.823c17.543,17.543,46.096,17.543,63.64,0c17.55-17.55,17.543-46.096,0-63.64
		L343.181,116.823z"/>
	<path style="fill:#3FC3D8;" d="M343.181,116.823c-17.55-17.55-17.543-46.096,0-63.64c17.55-17.55,46.089-17.55,63.64,0
		l28.284-28.284c-33.199-33.199-87.01-33.199-120.208,0c-28.319,28.319-32.461,71.643-12.454,104.375
		c3.443,5.632,7.58,10.96,12.454,15.833L343.181,116.823z"/>
	<path style="fill:#FFFFFF;" d="M343.181,53.184c-17.543,17.543-17.55,46.089,0,63.64l63.64-63.64
		C389.27,35.633,360.731,35.633,343.181,53.184z"/>
</g>
<g>
</g>
<g>
</g>
<g>
</g>
<g>
</g>
<g>
</g>
<g>
</g>
<g>
</g>
<g>
</g>
<g>
</g>
<g>
</g>
<g>
</g>
<g>
</g>
<g>
</g>
<g>
</g>
<g>
</g>
</svg>
