<?xml version="1.0" encoding="iso-8859-1"?>
<!-- Generator: Adobe Illustrator 19.0.0, SVG Export Plug-In . SVG Version: 6.00 Build 0)  -->
<svg version="1.1" id="Capa_1" xmlns="http://www.w3.org/2000/svg" xmlns:xlink="http://www.w3.org/1999/xlink" x="0px" y="0px"
	 viewBox="0 0 460 460" style="enable-background:new 0 0 460 460;" xml:space="preserve">
<g>
	<path style="fill:#EF1F4B;" d="M290,70v40c71.682,0,130,58.317,130,130v180H290V257.368c0-26.073-16.722-48.304-40-56.56V410
		c0,27.5,22.5,50,50,50h110c27.5,0,50-22.5,50-50V240C460,146.111,383.888,70,290,70z"/>
	<path style="fill:#EA6453;" d="M170,257.368V420H40V240c0-71.683,58.318-130,130-130V70C76.112,70,0,146.111,0,240v170
		c0,27.5,22.5,50,50,50h110c27.5,0,50-22.5,50-50V200.809C186.722,209.064,170,231.295,170,257.368z"/>
	<path style="fill:#EF1F4B;" d="M40,240v180h130v-50H80v-40h50v-40H80v-40h50.272c2.168-29.625,17.297-55.705,39.728-72.581V110
		C98.318,110,40,168.317,40,240z"/>
	<path style="fill:#EA6453;" d="M329.728,250H380v40h-50v40h50v40h-90v50h130V240c0-71.683-58.318-130-130-130v67.418
		C312.431,194.295,327.56,220.375,329.728,250z"/>
	<rect x="210.002" style="fill:#FFE292;" width="40" height="40"/>
	<path style="fill:#FFE292;" d="M230,157.368c-6.847,0-13.536,0.693-20,2.011c-14.771,3.01-28.366,9.287-40,18.04
		c-22.431,16.876-37.56,42.957-39.728,72.581H80v40h50v40H80v40h90V257.368c0-26.073,16.722-48.304,40-56.56
		c6.26-2.22,12.989-3.44,20-3.44V157.368z"/>
	<path style="fill:#FFD152;" d="M380,290v-40h-50.272c-2.168-29.625-17.297-55.705-39.728-72.582
		c-11.634-8.752-25.229-15.03-40-18.04V40h-39.998L210,159.379c6.464-1.317,13.153-2.011,20-2.011v40c7.011,0,13.74,1.22,20,3.44
		c23.278,8.256,40,30.487,40,56.56V370h90v-40h-50v-40H380z"/>
</g>
<g>
</g>
<g>
</g>
<g>
</g>
<g>
</g>
<g>
</g>
<g>
</g>
<g>
</g>
<g>
</g>
<g>
</g>
<g>
</g>
<g>
</g>
<g>
</g>
<g>
</g>
<g>
</g>
<g>
</g>
</svg>
