<?xml version="1.0" encoding="iso-8859-1"?>
<!-- Generator: Adobe Illustrator 19.0.0, SVG Export Plug-In . SVG Version: 6.00 Build 0)  -->
<svg version="1.1" id="Capa_1" xmlns="http://www.w3.org/2000/svg" xmlns:xlink="http://www.w3.org/1999/xlink" x="0px" y="0px"
	 viewBox="0 0 460 460" style="enable-background:new 0 0 460 460;" xml:space="preserve">
<g>
	<path style="fill:#FFD152;" d="M40,230c0-104.935,85.066-190,190-190V0C102.974,0,0,102.975,0,230
		c0,59.675,22.73,114.039,60,154.916V460h90v-57.628C85.043,372.173,40,306.352,40,230z"/>
	<path style="fill:#FFE292;" d="M230,0v40c104.934,0,190,85.065,190,190c0,76.352-45.043,142.173-110,172.372V460h90v-75.084
		c37.27-40.877,60-95.241,60-154.916C460,102.975,357.025,0,230,0z"/>
	<path style="fill:#FFFFFF;" d="M100,300v-40h34.581c-2.975-9.471-4.581-19.548-4.581-30c0-55.229,44.771-100,100-100V40
		C125.066,40,40,125.065,40,230c0,76.352,45.043,142.173,110,172.372V350C122.5,350,100,327.5,100,300z"/>
	<path style="fill:#FFD152;" d="M230,40v90c55.229,0,100,44.771,100,100c0,10.452-1.606,20.529-4.581,30H360v40
		c0,27.5-22.5,50-50,50v52.372C374.957,372.173,420,306.352,420,230C420,125.065,334.934,40,230,40z"/>
	<path style="fill:#FFD152;" d="M230,260V130c-55.229,0-100,44.771-100,100c0,10.452,1.606,20.529,4.581,30H230z"/>
	<path style="fill:#FFB743;" d="M325.419,260c2.975-9.471,4.581-19.548,4.581-30c0-55.229-44.771-100-100-100v130H325.419z"/>
	<rect x="150" y="350" style="fill:#FFB007;" width="160" height="110"/>
	<path style="fill:#FFD152;" d="M100,300c0,27.5,22.5,50,50,50h80v-50H100z"/>
	<path style="fill:#FFB743;" d="M230,300v50h80c27.5,0,50-22.5,50-50H230z"/>
	<rect x="100" y="260" style="fill:#FFB743;" width="130" height="40"/>
	<rect x="230" y="260" style="fill:#FFB007;" width="130" height="40"/>
</g>
<g>
</g>
<g>
</g>
<g>
</g>
<g>
</g>
<g>
</g>
<g>
</g>
<g>
</g>
<g>
</g>
<g>
</g>
<g>
</g>
<g>
</g>
<g>
</g>
<g>
</g>
<g>
</g>
<g>
</g>
</svg>
