<?xml version="1.0" encoding="iso-8859-1"?>
<!-- Generator: Adobe Illustrator 19.0.0, SVG Export Plug-In . SVG Version: 6.00 Build 0)  -->
<svg version="1.1" id="Capa_1" xmlns="http://www.w3.org/2000/svg" xmlns:xlink="http://www.w3.org/1999/xlink" x="0px" y="0px"
	 viewBox="0 0 460 460" style="enable-background:new 0 0 460 460;" xml:space="preserve">
<g>
	<rect x="156" style="fill:#F57B71;" width="81" height="55.5"/>
	<rect x="75" style="fill:#EF8CA7;" width="81" height="55.5"/>
	<rect x="45" y="277.5" style="fill:#FFB743;" width="74" height="182.5"/>
	<polygon style="fill:#FFD152;" points="341,283.84 267,277.67 267,460 341,460 	"/>
	<polygon style="fill:#FFB743;" points="267,277.67 193,277.5 193,460 267,460 	"/>
	<path style="fill:#FFB743;" d="M341,368.75V460h24c27.5,0,50-22.5,50-50v-41.25H341z"/>
	<path style="fill:#F57B71;" d="M390,368.75c0-19.33-15.67-35-35-35h-14v35H390z"/>
	<polygon style="fill:#FFD152;" points="267,277.5 267,203.5 156,203.5 156,277.5 119,277.5 119,460 193,460 193,277.5 	"/>
	<rect x="156" y="129.5" style="fill:#FFB743;" width="111" height="74"/>
	<rect x="156" y="55.5" style="fill:#FFD152;" width="111" height="74"/>
	<rect x="45" y="203.5" style="fill:#FFE292;" width="111" height="74"/>
	<rect x="45" y="129.5" style="fill:#FFD152;" width="111" height="74"/>
	<rect x="45" y="55.5" style="fill:#FFE292;" width="111" height="74"/>
</g>
<g>
</g>
<g>
</g>
<g>
</g>
<g>
</g>
<g>
</g>
<g>
</g>
<g>
</g>
<g>
</g>
<g>
</g>
<g>
</g>
<g>
</g>
<g>
</g>
<g>
</g>
<g>
</g>
<g>
</g>
</svg>
