<?xml version="1.0" encoding="iso-8859-1"?>
<!-- Generator: Adobe Illustrator 19.0.0, SVG Export Plug-In . SVG Version: 6.00 Build 0)  -->
<svg version="1.1" id="Capa_1" xmlns="http://www.w3.org/2000/svg" xmlns:xlink="http://www.w3.org/1999/xlink" x="0px" y="0px"
	 viewBox="0 0 460 460" style="enable-background:new 0 0 460 460;" xml:space="preserve">
<g>
	<rect x="165.423" style="fill:#0B389C;" width="60" height="70.222"/>
	<path style="fill:#3FC3D8;" d="M385.423,278.327V244c0-19.426-6.853-39.859-19.294-57.535
		c-12.442-17.677-29.365-31.021-47.653-37.575l-63.053-22.423V70.222h-60V190h60l42.81,15.372
		c13.977,5.009,27.19,23.781,27.19,38.628v33.767c8.716-4.936,18.781-7.767,29.514-7.767
		C366.07,270,376.487,273.043,385.423,278.327z"/>
	<path style="fill:#6BE0F4;" d="M385.423,390v-8.327c-8.936,5.284-19.354,8.327-30.486,8.327H385.423z"/>
	<path style="fill:#6BE0F4;" d="M354.937,390c-26.123,0-48.334-16.699-56.573-40h-42.941v40H354.937z"/>
	<polygon style="fill:#6BE0F4;" points="135.85,190 195.423,190 195.423,70.222 135.423,70.222 135.423,230 135.85,230 	"/>
	<path style="fill:#1398AD;" d="M294.937,330c0-7.015,1.215-13.743,3.427-20H135.423v40h162.941
		C296.152,343.743,294.937,337.015,294.937,330z"/>
	<rect x="135.423" y="230" style="fill:#1398AD;" width="39.573" height="40"/>
	<rect x="215.85" y="230" style="fill:#1398AD;" width="39.573" height="40"/>
	<rect x="135.85" y="190" style="fill:#0B389C;" width="119.573" height="40"/>
	<path style="fill:#4370D9;" d="M298.364,350c8.238,23.301,30.45,40,56.573,40V270c-10.732,0-20.797,2.831-29.514,7.767
		c-12.5,7.079-22.205,18.505-27.059,32.233c-2.212,6.257-3.427,12.985-3.427,20S296.152,343.743,298.364,350z"/>
	<path style="fill:#0B389C;" d="M414.937,330c0-22.004-11.852-41.23-29.514-51.673c-8.936-5.284-19.354-8.327-30.486-8.327v120
		c11.133,0,21.551-3.043,30.486-8.327C403.085,371.23,414.937,352.004,414.937,330z"/>
	<rect x="195.423" y="390" style="fill:#1398AD;" width="190" height="70"/>
	<path style="fill:#3FC3D8;" d="M105.423,390c-16.68,0-35.71,12.54-42.29,27.87L45.063,460h150.36v-70H105.423z"/>
</g>
<g>
</g>
<g>
</g>
<g>
</g>
<g>
</g>
<g>
</g>
<g>
</g>
<g>
</g>
<g>
</g>
<g>
</g>
<g>
</g>
<g>
</g>
<g>
</g>
<g>
</g>
<g>
</g>
<g>
</g>
</svg>
