<?xml version="1.0" encoding="iso-8859-1"?>
<!-- Generator: Adobe Illustrator 19.0.0, SVG Export Plug-In . SVG Version: 6.00 Build 0)  -->
<svg version="1.1" id="Capa_1" xmlns="http://www.w3.org/2000/svg" xmlns:xlink="http://www.w3.org/1999/xlink" x="0px" y="0px"
	 viewBox="0 0 460 460" style="enable-background:new 0 0 460 460;" xml:space="preserve">
<g>
	<polygon style="fill:#EF9E8F;" points="250,0 210,0 200,110 260,110 	"/>
	<rect x="175" y="150" style="fill:#EF9E8F;" width="55" height="60"/>
	<polygon style="fill:#F57B71;" points="130,110 130,150 230,150 230,210 285,210 285,150 330,150 330,110 	"/>
	<path style="fill:#EA6453;" d="M180,420c-5.514,0-10-4.486-10-10V260c0-5.514,4.486-10,10-10h50v-40h-50c-27.614,0-50,22.386-50,50
		v150c0,27.614,22.386,50,50,50h50v-40H180z"/>
	<path style="fill:#EF1F4B;" d="M280,210h-50v40h50c5.514,0,10,4.486,10,10v150c0,5.514-4.486,10-10,10h-50v40h50
		c27.614,0,50-22.386,50-50V260C330,232.386,307.614,210,280,210z"/>
	<path style="fill:#F57B71;" d="M290,260c0-5.514-4.486-10-10-10h-50v80h60V260z"/>
	<path style="fill:#EA6453;" d="M230,330v90h50c5.514,0,10-4.486,10-10v-80H230z"/>
	<path style="fill:#EF9E8F;" d="M230,250h-50c-5.514,0-10,4.486-10,10v70h60V250z"/>
	<path style="fill:#F57B71;" d="M170,330v80c0,5.514,4.486,10,10,10h50v-90H170z"/>
</g>
<g>
</g>
<g>
</g>
<g>
</g>
<g>
</g>
<g>
</g>
<g>
</g>
<g>
</g>
<g>
</g>
<g>
</g>
<g>
</g>
<g>
</g>
<g>
</g>
<g>
</g>
<g>
</g>
<g>
</g>
</svg>
