<?xml version="1.0" encoding="iso-8859-1"?>
<!-- Generator: Adobe Illustrator 19.0.0, SVG Export Plug-In . SVG Version: 6.00 Build 0)  -->
<svg version="1.1" id="Capa_1" xmlns="http://www.w3.org/2000/svg" xmlns:xlink="http://www.w3.org/1999/xlink" x="0px" y="0px"
	 viewBox="0 0 460 460" style="enable-background:new 0 0 460 460;" xml:space="preserve">
<g>
	<path style="fill:#3FC3D8;" d="M230,29.98c32.055,0,60.743,14.38,80,37.027V0H150v67.007C169.257,44.36,197.945,29.98,230,29.98z"
		/>
	<path style="fill:#EA6453;" d="M125,134.98v105h105C172.01,239.98,125,192.97,125,134.98z"/>
	<path style="fill:#EF1F4B;" d="M230,239.98h105v-105C335,192.97,287.99,239.98,230,239.98z"/>
	<path style="fill:#EF1F4B;" d="M230,29.98V100h99.02c-4.304-12.192-10.811-23.339-19.02-32.993
		C290.743,44.36,262.055,29.98,230,29.98z"/>
	<path style="fill:#FFB743;" d="M230,239.98c57.99,0,105-47.01,105-105c0-12.27-2.1-24.04-5.98-34.98H230V239.98z"/>
	<path style="fill:#FFD152;" d="M230,239.98V100h-99.02c-3.88,10.94-5.98,22.71-5.98,34.98C125,192.97,172.01,239.98,230,239.98z"/>
	<path style="fill:#EA6453;" d="M230,29.98c-32.055,0-60.743,14.38-80,37.027c-8.209,9.654-14.716,20.801-19.02,32.993H230V29.98z"
		/>
	<path style="fill:#1398AD;" d="M330.97,299.03L230,400v60h190C420,392.17,384.45,332.64,330.97,299.03z"/>
	<path style="fill:#EF1F4B;" d="M330.97,299.03C301.72,280.64,267.1,270,230,270v130L330.97,299.03z"/>
	<path style="fill:#3FC3D8;" d="M129.03,299.03C75.55,332.64,40,392.17,40,460h190v-60L129.03,299.03z"/>
	<path style="fill:#EA6453;" d="M230,270c-37.1,0-71.72,10.64-100.97,29.03L230,400V270z"/>
</g>
<g>
</g>
<g>
</g>
<g>
</g>
<g>
</g>
<g>
</g>
<g>
</g>
<g>
</g>
<g>
</g>
<g>
</g>
<g>
</g>
<g>
</g>
<g>
</g>
<g>
</g>
<g>
</g>
<g>
</g>
</svg>
