<?xml version="1.0" encoding="iso-8859-1"?>
<!-- Generator: Adobe Illustrator 19.0.0, SVG Export Plug-In . SVG Version: 6.00 Build 0)  -->
<svg version="1.1" id="Capa_1" xmlns="http://www.w3.org/2000/svg" xmlns:xlink="http://www.w3.org/1999/xlink" x="0px" y="0px"
	 viewBox="0 0 460.001 460.001" style="enable-background:new 0 0 460.001 460.001;" xml:space="preserve">
<g>
	
		<rect x="142.574" y="28.517" transform="matrix(0.7071 0.7071 -0.7071 0.7071 202.5742 -71.4826)" style="fill:#EF9E8F;" width="90" height="360.54"/>
	
		<rect x="70.944" y="227.427" transform="matrix(0.7071 -0.7071 0.7071 0.7071 -119.0562 257.427)" style="fill:#F57B71;" width="360.54" height="90"/>
	
		<rect x="25.962" y="305.4" transform="matrix(0.7071 -0.7071 0.7071 0.7071 -234.3081 135.1297)" style="fill:#F57B71;" width="40" height="90"/>
	
		<rect x="64.602" y="394.039" transform="matrix(-0.7071 -0.7071 0.7071 -0.7071 -105.6685 784.3093)" style="fill:#EA6453;" width="90" height="40"/>
	<polygon style="fill:#EA6453;" points="346.864,113.137 410.504,176.777 410.504,120.208 375.148,84.853 	"/>
	<polygon style="fill:#F57B71;" points="375.148,84.853 339.793,49.497 283.225,49.497 346.864,113.137 	"/>
	<polygon style="fill:#FFE292;" points="431.717,28.284 403.433,0 339.793,49.497 375.148,84.853 	"/>
	<polygon style="fill:#FFD152;" points="410.504,120.208 460.001,56.569 431.717,28.284 375.148,84.853 	"/>
</g>
<g>
</g>
<g>
</g>
<g>
</g>
<g>
</g>
<g>
</g>
<g>
</g>
<g>
</g>
<g>
</g>
<g>
</g>
<g>
</g>
<g>
</g>
<g>
</g>
<g>
</g>
<g>
</g>
<g>
</g>
</svg>
