<?xml version="1.0" encoding="iso-8859-1"?>
<!-- Generator: Adobe Illustrator 19.0.0, SVG Export Plug-In . SVG Version: 6.00 Build 0)  -->
<svg version="1.1" id="Capa_1" xmlns="http://www.w3.org/2000/svg" xmlns:xlink="http://www.w3.org/1999/xlink" x="0px" y="0px"
	 viewBox="0 0 460 460" style="enable-background:new 0 0 460 460;" xml:space="preserve">
<g>
	<path style="fill:#3FC3D8;" d="M261.387,153.612l-43.529,32.647l55.883,55.883l32.647-43.529
		c-10.088-3.514-19.566-9.301-27.633-17.368C270.689,173.178,264.902,163.699,261.387,153.612z"/>
	<path style="fill:#0B389C;" d="M438.561,21.439l-28.284,28.285c12.871,12.871,12.871,33.797,0,46.669
		c-12.871,12.871-33.798,12.871-46.669,0l-28.284,28.284c7.798,7.798,7.798,20.486,0,28.284c-7.798,7.798-20.486,7.798-28.284,0
		l-28.284,28.284c8.067,8.067,17.545,13.854,27.633,17.368c25.564,8.906,55.045,3.192,75.412-17.175l56.954-56.954
		C467.157,96.081,467.071,49.948,438.561,21.439z"/>
	<path style="fill:#4370D9;" d="M307.04,152.961c-7.798-7.798-7.798-20.486,0-28.284c7.798-7.798,20.486-7.798,28.284,0
		l28.284-28.284c-12.871-12.872-12.871-33.798,0-46.669c12.871-12.872,33.798-12.872,46.669,0l28.284-28.285
		c-28.51-28.509-74.642-28.596-103.045-0.193L278.562,78.2c-20.366,20.366-26.08,49.848-17.175,75.412
		c3.514,10.087,9.301,19.566,17.368,27.633L307.04,152.961z"/>
	<path style="fill:#6BE0F4;" d="M307.04,124.676c-7.798,7.798-7.798,20.486,0,28.284c7.798,7.798,20.486,7.798,28.284,0
		c7.798-7.798,7.798-20.486,0-28.284C327.526,116.879,314.837,116.879,307.04,124.676z"/>
	<path style="fill:#3FC3D8;" d="M410.277,96.392c12.871-12.872,12.871-33.798,0-46.669l-46.669,46.669
		C376.479,109.263,397.406,109.263,410.277,96.392z"/>
	<path style="fill:#6BE0F4;" d="M363.608,49.723c-12.871,12.871-12.871,33.797,0,46.669l46.669-46.669
		C397.406,36.852,376.479,36.852,363.608,49.723z"/>
	
		<rect x="97.9" y="192.938" transform="matrix(0.7071 0.7071 -0.7071 0.7071 249.3613 1.4753)" style="fill:#3FC3D8;" width="50" height="217.613"/>
	<polygon style="fill:#1398AD;" points="63.64,396.36 98.995,431.716 70.711,460 252.871,277.84 217.515,242.484 	"/>
	
		<rect x="211.657" y="178.343" transform="matrix(0.7071 -0.7071 0.7071 0.7071 -93.6115 230.6893)" style="fill:#0B389C;" width="40" height="100"/>
	<polygon style="fill:#0B389C;" points="63.64,396.36 28.284,361.005 0,389.289 70.711,460 98.995,431.716 	"/>
</g>
<g>
</g>
<g>
</g>
<g>
</g>
<g>
</g>
<g>
</g>
<g>
</g>
<g>
</g>
<g>
</g>
<g>
</g>
<g>
</g>
<g>
</g>
<g>
</g>
<g>
</g>
<g>
</g>
<g>
</g>
</svg>
