<?xml version="1.0" encoding="iso-8859-1"?>
<!-- Generator: Adobe Illustrator 19.0.0, SVG Export Plug-In . SVG Version: 6.00 Build 0)  -->
<svg version="1.1" id="Capa_1" xmlns="http://www.w3.org/2000/svg" xmlns:xlink="http://www.w3.org/1999/xlink" x="0px" y="0px"
	 viewBox="0 0 460 460" style="enable-background:new 0 0 460 460;" xml:space="preserve">
<g>
	<path style="fill:#FFE292;" d="M210,390v-40h20V190h-60V70h60V0H60v460h170v-70H210z M130,230h80v80h-80V230z M170,390h-40v-40h40
		V390z"/>
	<rect x="210" y="110" style="fill:#FFE292;" width="20" height="40"/>
	<rect x="230" y="110" style="fill:#FFD152;" width="20" height="40"/>
	<path style="fill:#FFD152;" d="M230,0v70h60v120h-60v160h20v40h-20v70h170V0H230z M330,390h-40v-40h40V390z M330,310h-80v-80h80
		V310z"/>
	<rect x="130" y="350" style="fill:#4370D9;" width="40" height="40"/>
	<rect x="290" y="350" style="fill:#0B389C;" width="40" height="40"/>
	<rect x="210" y="350" style="fill:#0B389C;" width="40" height="40"/>
	<rect x="130" y="230" style="fill:#4370D9;" width="80" height="80"/>
	<rect x="250" y="230" style="fill:#0B389C;" width="80" height="80"/>
	<polygon style="fill:#0B389C;" points="250,110 250,150 230,150 230,190 290,190 290,70 230,70 230,110 	"/>
	<polygon style="fill:#4370D9;" points="170,190 230,190 230,150 210,150 210,110 230,110 230,70 170,70 	"/>
</g>
<g>
</g>
<g>
</g>
<g>
</g>
<g>
</g>
<g>
</g>
<g>
</g>
<g>
</g>
<g>
</g>
<g>
</g>
<g>
</g>
<g>
</g>
<g>
</g>
<g>
</g>
<g>
</g>
<g>
</g>
</svg>
