<?xml version="1.0" encoding="iso-8859-1"?>
<!-- Generator: Adobe Illustrator 19.0.0, SVG Export Plug-In . SVG Version: 6.00 Build 0)  -->
<svg version="1.1" id="Capa_1" xmlns="http://www.w3.org/2000/svg" xmlns:xlink="http://www.w3.org/1999/xlink" x="0px" y="0px"
	 viewBox="0 0 460 460" style="enable-background:new 0 0 460 460;" xml:space="preserve">
<g>
	<path style="fill:#EA6453;" d="M420,185h-40v-40H230v50h115v200H230v50h180c27.5,0,50-22.5,50-50V145h-40V185z"/>
	<path style="fill:#F57B71;" d="M410,15H230v90h150V65h40v40h40V65C460,37.5,437.5,15,410,15z"/>
	<path style="fill:#F57B71;" d="M115,395V195h115v-50H80v40H40v-40H0v250c0,27.5,22.5,50,50,50h180v-50H115z"/>
	<path style="fill:#EF8CA7;" d="M40,65h40v40h150V15H50C22.5,15,0,37.5,0,65v40h40V65z"/>
	<rect x="155" y="235" style="fill:#FFFFFF;" width="150" height="40"/>
	<rect x="155" y="315" style="fill:#FFFFFF;" width="150" height="40"/>
	<path style="fill:#EF8CA7;" d="M115,395h230V195H115V395z M155,235h150v40H155V235z M155,315h150v40H155V315z"/>
	<rect x="230" y="105" style="fill:#EF1F4B;" width="150" height="40"/>
	<rect x="420" y="105" style="fill:#EF1F4B;" width="40" height="40"/>
	<rect y="105" style="fill:#EA6453;" width="40" height="40"/>
	<rect x="80" y="105" style="fill:#EA6453;" width="150" height="40"/>
	<rect x="40" y="65" style="fill:#FFFFFF;" width="40" height="120"/>
	<rect x="380" y="65" style="fill:#EF8CA7;" width="40" height="120"/>
</g>
<g>
</g>
<g>
</g>
<g>
</g>
<g>
</g>
<g>
</g>
<g>
</g>
<g>
</g>
<g>
</g>
<g>
</g>
<g>
</g>
<g>
</g>
<g>
</g>
<g>
</g>
<g>
</g>
<g>
</g>
</svg>
