<?xml version="1.0" encoding="iso-8859-1"?>
<!-- Generator: Adobe Illustrator 19.0.0, SVG Export Plug-In . SVG Version: 6.00 Build 0)  -->
<svg version="1.1" id="Capa_1" xmlns="http://www.w3.org/2000/svg" xmlns:xlink="http://www.w3.org/1999/xlink" x="0px" y="0px"
	 viewBox="0 0 460 460" style="enable-background:new 0 0 460 460;" xml:space="preserve">
<g>
	
		<rect x="227.183" y="139.46" transform="matrix(0.7071 0.7071 -0.7071 0.7071 198.1108 -139.3094)" style="fill:#3FC3D8;" width="80.066" height="60.052"/>
	<g>
		
			<rect x="83.783" y="163.7" transform="matrix(-0.7071 -0.7071 0.7071 -0.7071 -21.1436 576.3338)" style="fill:#3FC3D8;" width="50.015" height="257.692"/>
		
			<rect x="119.149" y="199.066" transform="matrix(-0.7071 -0.7071 0.7071 -0.7071 14.2225 661.7151)" style="fill:#1398AD;" width="50.015" height="257.692"/>
		
			<rect x="211.722" y="154.959" transform="matrix(0.7071 -0.7071 0.7071 0.7071 -77.0674 223.8922)" style="fill:#0B389C;" width="40.012" height="100.03"/>
		
			<rect x="29.506" y="337.175" transform="matrix(0.7071 -0.7071 0.7071 0.7071 -259.283 148.4161)" style="fill:#0B389C;" width="40.012" height="100.03"/>
	</g>
	<g>
		
			<rect x="378.366" y="186.945" transform="matrix(0.7071 0.7071 -0.7071 0.7071 268.7366 -234.8849)" style="fill:#3FC3D8;" width="79.066" height="40.012"/>
		<g id="XMLID_1123_">
			
				<rect x="268.181" y="59.288" transform="matrix(0.7071 -0.7071 0.7071 0.7071 2.7067 241.7747)" style="fill:#1398AD;" width="50.042" height="116.665"/>
			
				<rect x="303.565" y="23.904" transform="matrix(0.7071 -0.7071 0.7071 0.7071 38.0907 256.4312)" style="fill:#3FC3D8;" width="50.039" height="116.665"/>
		</g>
		<polygon style="fill:#0B389C;" points="387.524,105.794 404.092,164.851 375.799,193.144 316.756,176.562 		"/>
	</g>
</g>
<g>
</g>
<g>
</g>
<g>
</g>
<g>
</g>
<g>
</g>
<g>
</g>
<g>
</g>
<g>
</g>
<g>
</g>
<g>
</g>
<g>
</g>
<g>
</g>
<g>
</g>
<g>
</g>
<g>
</g>
</svg>
