<?xml version="1.0" encoding="iso-8859-1"?>
<!-- Generator: Adobe Illustrator 19.0.0, SVG Export Plug-In . SVG Version: 6.00 Build 0)  -->
<svg version="1.1" id="Capa_1" xmlns="http://www.w3.org/2000/svg" xmlns:xlink="http://www.w3.org/1999/xlink" x="0px" y="0px"
	 viewBox="0 0 460 460" style="enable-background:new 0 0 460 460;" xml:space="preserve">
<g>
	<path style="fill:#3FC3D8;" d="M230,0v40c104.77,0,190,85.23,190,190s-85.23,190-190,190v40c127.03,0,230-102.97,230-230
		C460,102.97,357.03,0,230,0z"/>
	<path style="fill:#6BE0F4;" d="M275.966,99.038c46.869,0,85,38.131,85,85s-38.131,85-85,85c-16.928,0-32.703-4.994-45.966-13.558
		V420c104.77,0,190-85.23,190-190S334.77,40,230,40v72.596C243.263,104.032,259.038,99.038,275.966,99.038z M250.119,339.424
		c-11.028,0-20-8.972-20-20c0-11.028,8.972-20,20-20s20,8.972,20,20C270.119,330.452,261.147,339.424,250.119,339.424z"/>
	<path style="fill:#6BE0F4;" d="M40,230c0-104.77,85.24-190,190-190V0C102.98,0,0,102.97,0,230c0,127.03,102.98,230,230,230v-40
		C125.24,420,40,334.77,40,230z"/>
	<path style="fill:#FFFFFF;" d="M40,230c0,104.77,85.24,190,190,190V255.48c-23.459-15.146-39.034-41.501-39.034-71.442
		s15.575-56.296,39.034-71.442V40C125.24,40,40,125.23,40,230z M140.58,189.885c11.028,0,20,8.972,20,20c0,11.028-8.972,20-20,20
		s-20-8.972-20-20C120.58,198.857,129.552,189.885,140.58,189.885z M155.758,259.246c24.813,0,45,20.187,45,45s-20.187,45-45,45
		c-24.813,0-45-20.187-45-45S130.945,259.246,155.758,259.246z"/>
	<path style="fill:#EA6453;" d="M275.966,99.038c-16.928,0-32.703,4.994-45.966,13.558c-23.459,15.146-39.034,41.501-39.034,71.442
		S206.541,240.334,230,255.48c13.263,8.563,29.038,13.558,45.966,13.558V99.038z"/>
	<path style="fill:#EF1F4B;" d="M360.966,184.038c0-46.869-38.131-85-85-85v170C322.835,269.038,360.966,230.907,360.966,184.038z"
		/>
	<path style="fill:#EA6453;" d="M155.758,349.246v-90c-24.813,0-45,20.187-45,45S130.945,349.246,155.758,349.246z"/>
	<path style="fill:#EF1F4B;" d="M200.758,304.246c0-24.813-20.187-45-45-45v90C180.571,349.246,200.758,329.059,200.758,304.246z"/>
	<path style="fill:#EA6453;" d="M140.58,229.885c11.028,0,20-8.972,20-20c0-11.028-8.972-20-20-20s-20,8.972-20,20
		C120.58,220.914,129.552,229.885,140.58,229.885z"/>
	<path style="fill:#EF1F4B;" d="M250.119,299.424c-11.028,0-20,8.972-20,20c0,11.028,8.972,20,20,20s20-8.972,20-20
		C270.119,308.396,261.147,299.424,250.119,299.424z"/>
</g>
<g>
</g>
<g>
</g>
<g>
</g>
<g>
</g>
<g>
</g>
<g>
</g>
<g>
</g>
<g>
</g>
<g>
</g>
<g>
</g>
<g>
</g>
<g>
</g>
<g>
</g>
<g>
</g>
<g>
</g>
</svg>
