<?xml version="1.0" encoding="iso-8859-1"?>
<!-- Generator: Adobe Illustrator 19.0.0, SVG Export Plug-In . SVG Version: 6.00 Build 0)  -->
<svg version="1.1" id="Capa_1" xmlns="http://www.w3.org/2000/svg" xmlns:xlink="http://www.w3.org/1999/xlink" x="0px" y="0px"
	 viewBox="0 0 460 460" style="enable-background:new 0 0 460 460;" xml:space="preserve">
<g>
	<g>
		<path style="fill:#EF1F4B;" d="M105,30c57.898,0,105,47.101,105,105l0,95H105V30z"/>
		<path style="fill:#FFD152;" d="M105,430V230h105l0,95C210,382.899,162.898,430,105,430z"/>
		<path style="fill:#EA6453;" d="M0,230l0-95C0,77.101,47.102,30,105,30v200H0z"/>
		<path style="fill:#FFE292;" d="M105,430C47.102,430,0,382.899,0,325l0-95h105V430z"/>
	</g>
	<g>
		<path style="fill:#EF1F4B;" d="M355,430c57.898,0,105-47.101,105-105l0-95H355V430z"/>
		<path style="fill:#FFD152;" d="M355,30v200h105l0-95C460,77.101,412.898,30,355,30z"/>
		<path style="fill:#EA6453;" d="M250,230l0,95c0,57.898,47.101,105,105,105V230H250z"/>
		<path style="fill:#FFE292;" d="M355,30c-57.898,0-105,47.101-105,105l0,95h105V30z"/>
	</g>
</g>
<g>
</g>
<g>
</g>
<g>
</g>
<g>
</g>
<g>
</g>
<g>
</g>
<g>
</g>
<g>
</g>
<g>
</g>
<g>
</g>
<g>
</g>
<g>
</g>
<g>
</g>
<g>
</g>
<g>
</g>
</svg>
