<?xml version="1.0" encoding="iso-8859-1"?>
<!-- Generator: Adobe Illustrator 19.0.0, SVG Export Plug-In . SVG Version: 6.00 Build 0)  -->
<svg version="1.1" id="Capa_1" xmlns="http://www.w3.org/2000/svg" xmlns:xlink="http://www.w3.org/1999/xlink" x="0px" y="0px"
	 viewBox="0 0 460 460" style="enable-background:new 0 0 460 460;" xml:space="preserve">
<g>
	<path style="fill:#EA6453;" d="M80,420c-5.514,0-10-4.486-10-10V170c0-5.514,4.486-10,10-10h40V80H80v40c-27.614,0-50,22.386-50,50
		v240c0,27.614,22.386,50,50,50h150v-40H80z"/>
	<path style="fill:#EF1F4B;" d="M380,120V80h-40v80h40c5.514,0,10,4.486,10,10v240c0,5.514-4.486,10-10,10H230v40h150
		c27.614,0,50-22.386,50-50V170C430,142.386,407.614,120,380,120z"/>
	<rect x="60" style="fill:#FFB743;" width="170" height="80"/>
	<rect x="230" style="fill:#FFB007;" width="170" height="80"/>
	<path style="fill:#EF8CA7;" d="M190,360c0-22.091,17.909-40,40-40v-30c-22.091,0-40-17.909-40-40s17.909-40,40-40V80H120v80H80
		c-5.514,0-10,4.486-10,10v240c0,5.514,4.486,10,10,10h150v-20C207.909,400,190,382.091,190,360z M130,400
		c-22.091,0-40-17.909-40-40s17.909-40,40-40s40,17.909,40,40S152.091,400,130,400z M130,290c-22.091,0-40-17.909-40-40
		s17.909-40,40-40s40,17.909,40,40S152.091,290,130,290z"/>
	<path style="fill:#F57B71;" d="M230,210c22.091,0,40,17.909,40,40s-17.909,40-40,40v30c22.091,0,40,17.909,40,40s-17.909,40-40,40
		v20h150c5.514,0,10-4.486,10-10V170c0-5.514-4.486-10-10-10h-40V80H230V210z M330,210c22.091,0,40,17.909,40,40s-17.909,40-40,40
		s-40-17.909-40-40S307.909,210,330,210z M330,320c22.091,0,40,17.909,40,40s-17.909,40-40,40s-40-17.909-40-40S307.909,320,330,320
		z"/>
	<path style="fill:#FFE292;" d="M130,210v80c22.091,0,40-17.909,40-40S152.091,210,130,210z"/>
	<path style="fill:#FFFFFF;" d="M90,250c0,22.091,17.909,40,40,40v-80C107.909,210,90,227.909,90,250z"/>
	<path style="fill:#FFB743;" d="M270,250c0-22.091-17.909-40-40-40v80C252.091,290,270,272.091,270,250z"/>
	<path style="fill:#FFFFFF;" d="M190,250c0,22.091,17.909,40,40,40v-80C207.909,210,190,227.909,190,250z"/>
	<path style="fill:#FFB743;" d="M370,250c0-22.091-17.909-40-40-40v80C352.091,290,370,272.091,370,250z"/>
	<path style="fill:#FFFFFF;" d="M330,290v-80c-22.091,0-40,17.909-40,40S307.909,290,330,290z"/>
	<path style="fill:#FFE292;" d="M130,320v80c22.091,0,40-17.909,40-40S152.091,320,130,320z"/>
	<path style="fill:#FFFFFF;" d="M90,360c0,22.091,17.909,40,40,40v-80C107.909,320,90,337.909,90,360z"/>
	<path style="fill:#FFB743;" d="M270,360c0-22.091-17.909-40-40-40v80C252.091,400,270,382.091,270,360z"/>
	<path style="fill:#FFFFFF;" d="M190,360c0,22.091,17.909,40,40,40v-80C207.909,320,190,337.909,190,360z"/>
	<path style="fill:#FFB743;" d="M370,360c0-22.091-17.909-40-40-40v80C352.091,400,370,382.091,370,360z"/>
	<path style="fill:#FFFFFF;" d="M330,400v-80c-22.091,0-40,17.909-40,40S307.909,400,330,400z"/>
</g>
<g>
</g>
<g>
</g>
<g>
</g>
<g>
</g>
<g>
</g>
<g>
</g>
<g>
</g>
<g>
</g>
<g>
</g>
<g>
</g>
<g>
</g>
<g>
</g>
<g>
</g>
<g>
</g>
<g>
</g>
</svg>
