<?xml version="1.0" encoding="iso-8859-1"?>
<!-- Generator: Adobe Illustrator 19.0.0, SVG Export Plug-In . SVG Version: 6.00 Build 0)  -->
<svg version="1.1" id="Capa_1" xmlns="http://www.w3.org/2000/svg" xmlns:xlink="http://www.w3.org/1999/xlink" x="0px" y="0px"
	 viewBox="0 0 460 460" style="enable-background:new 0 0 460 460;" xml:space="preserve">
<g>
	<polygon style="fill:#EF8CA7;" points="107.063,383.1 92.072,368.109 14.317,445.863 28.453,460 127.41,403.454 321.905,208.959 
		301.555,188.609 	"/>
	<polygon style="fill:#EF9E8F;" points="78.79,354.827 273.282,160.335 251.222,138.276 56.727,332.771 0.18,431.727 
		14.317,445.863 92.072,368.109 	"/>
	
		<rect x="52.646" y="251.725" transform="matrix(-0.7071 0.7071 -0.7071 -0.7071 516.7779 329.379)" style="fill:#FFFFFF;" width="275.053" height="39.985"/>
	<path style="fill:#EF1F4B;" d="M445.362,14.823L314.839,145.346l-63.617-63.617l-28.273,28.273l28.273,28.273l22.06,22.06
		l28.273,28.273l20.35,20.35l28.273,28.273l28.273-28.273l-28.454-28.455l95.182-95.182
		C464.638,65.863,464.701,34.36,445.362,14.823z"/>
	<path style="fill:#EA6453;" d="M445.362,14.823c-0.063-0.064-0.12-0.12-0.184-0.184c-19.516-19.516-51.16-19.522-70.683,0
		l-95.182,95.182l35.525,35.525L445.362,14.823z"/>
</g>
<g>
</g>
<g>
</g>
<g>
</g>
<g>
</g>
<g>
</g>
<g>
</g>
<g>
</g>
<g>
</g>
<g>
</g>
<g>
</g>
<g>
</g>
<g>
</g>
<g>
</g>
<g>
</g>
<g>
</g>
</svg>
