<?xml version="1.0" encoding="iso-8859-1"?>
<!-- Generator: Adobe Illustrator 19.0.0, SVG Export Plug-In . SVG Version: 6.00 Build 0)  -->
<svg version="1.1" id="Capa_1" xmlns="http://www.w3.org/2000/svg" xmlns:xlink="http://www.w3.org/1999/xlink" x="0px" y="0px"
	 viewBox="0 0 460 460" style="enable-background:new 0 0 460 460;" xml:space="preserve">
<g>
	<path style="fill:#EF1F4B;" d="M230,0v40c75.263,0,136.5,61.22,136.5,136.5c0,75.263-61.237,136.5-136.5,136.5v147l138.511-174.144
		c24.868-31.452,38.017-69.25,38.017-109.329C406.527,79.192,327.335,0,230,0z"/>
	<path style="fill:#EA6453;" d="M93.5,176.5C93.5,101.22,154.737,40,230,40V0C132.665,0,53.473,79.192,53.473,176.527
		c0,40.079,13.148,77.877,38.054,109.367L230,460V313C154.737,313,93.5,251.763,93.5,176.5z"/>
	<path style="fill:#FFE292;" d="M262.459,80v64.041H326.5v64.918h-64.041V273H230v40c75.263,0,136.5-61.237,136.5-136.5
		C366.5,101.22,305.263,40,230,40v40H262.459z"/>
	<path style="fill:#FFFFFF;" d="M93.5,176.5C93.5,251.763,154.737,313,230,313v-40h-32.459v-64.041H133.5v-64.918h64.041V80H230V40
		C154.737,40,93.5,101.22,93.5,176.5z"/>
	<polygon style="fill:#0B389C;" points="262.459,208.959 326.5,208.959 326.5,144.041 262.459,144.041 262.459,80 230,80 230,273 
		262.459,273 	"/>
	<polygon style="fill:#4370D9;" points="197.541,80 197.541,144.041 133.5,144.041 133.5,208.959 197.541,208.959 197.541,273 
		230,273 230,80 	"/>
</g>
<g>
</g>
<g>
</g>
<g>
</g>
<g>
</g>
<g>
</g>
<g>
</g>
<g>
</g>
<g>
</g>
<g>
</g>
<g>
</g>
<g>
</g>
<g>
</g>
<g>
</g>
<g>
</g>
<g>
</g>
</svg>
