<?xml version="1.0" encoding="iso-8859-1"?>
<!-- Generator: Adobe Illustrator 19.0.0, SVG Export Plug-In . SVG Version: 6.00 Build 0)  -->
<svg version="1.1" id="Capa_1" xmlns="http://www.w3.org/2000/svg" xmlns:xlink="http://www.w3.org/1999/xlink" x="0px" y="0px"
	 viewBox="0 0 460.001 460.001" style="enable-background:new 0 0 460.001 460.001;" xml:space="preserve">
<g>
	<path style="fill:#F57B71;" d="M230.001,371.083l59.694,59.694c38.962,38.962,102.127,38.969,141.089,0.007L300.542,300.542
		L230.001,371.083z"/>
	<path style="fill:#F57B71;" d="M29.218,29.218C-9.744,68.179-9.737,131.345,29.225,170.307l59.694,59.694l70.541-70.541
		L29.218,29.218z"/>
	<path style="fill:#EF9E8F;" d="M230.001,88.919l-59.694-59.694C131.345-9.737,68.179-9.744,29.218,29.218L159.46,159.46
		L230.001,88.919z"/>
	<path style="fill:#EF9E8F;" d="M430.777,289.695l-59.694-59.694l-70.541,70.541l130.242,130.242
		C469.745,391.822,469.738,328.656,430.777,289.695z"/>
	<path style="fill:#EF9E8F;" d="M430.784,29.218C391.822-9.744,328.656-9.737,289.695,29.225L230.17,88.749l70.541,70.541
		L430.784,29.218z"/>
	<path style="fill:#F57B71;" d="M371.252,229.831l59.524-59.524c38.962-38.962,38.969-102.127,0.007-141.089L300.711,159.29
		L371.252,229.831z"/>
	<path style="fill:#EF1F4B;" d="M300.711,159.29L159.29,300.711l70.541,70.541l141.421-141.421L300.711,159.29z M230.001,314.719
		l-28.284-28.284l28.284-28.284l28.284,28.284L230.001,314.719z M286.435,258.285l-28.284-28.284l28.284-28.284l28.284,28.284
		L286.435,258.285z"/>
	<path style="fill:#EA6453;" d="M300.711,159.29L230.17,88.749L88.749,230.17l70.541,70.541L300.711,159.29z M230.001,145.282
		l28.284,28.284l-28.284,28.284l-28.284-28.284L230.001,145.282z M173.567,201.716l28.284,28.284l-28.284,28.284l-28.284-28.284
		L173.567,201.716z"/>
	<path style="fill:#F57B71;" d="M29.218,430.784c38.962,38.962,102.127,38.955,141.089-0.007l59.524-59.524l-70.541-70.541
		L29.218,430.784z"/>
	<path style="fill:#EF9E8F;" d="M88.749,230.17l-59.524,59.524c-38.962,38.962-38.969,102.127-0.007,141.089L159.29,300.711
		L88.749,230.17z"/>
	
		<rect x="153.567" y="210.001" transform="matrix(0.7071 0.7071 -0.7071 0.7071 213.4715 -55.3645)" style="fill:#FFFFFF;" width="40" height="40"/>
	
		<rect x="210.001" y="266.435" transform="matrix(-0.7071 -0.7071 0.7071 -0.7071 190.0955 651.6097)" style="fill:#FFFFFF;" width="40" height="40"/>
	
		<rect x="210.001" y="153.567" transform="matrix(0.7071 0.7071 -0.7071 0.7071 190.0954 -111.7986)" style="fill:#FFFFFF;" width="40" height="40"/>
	
		<rect x="266.435" y="210.001" transform="matrix(0.7071 0.7071 -0.7071 0.7071 246.5306 -135.1744)" style="fill:#FFFFFF;" width="40" height="40"/>
</g>
<g>
</g>
<g>
</g>
<g>
</g>
<g>
</g>
<g>
</g>
<g>
</g>
<g>
</g>
<g>
</g>
<g>
</g>
<g>
</g>
<g>
</g>
<g>
</g>
<g>
</g>
<g>
</g>
<g>
</g>
</svg>
