<?xml version="1.0" encoding="iso-8859-1"?>
<!-- Generator: Adobe Illustrator 19.0.0, SVG Export Plug-In . SVG Version: 6.00 Build 0)  -->
<svg version="1.1" id="Capa_1" xmlns="http://www.w3.org/2000/svg" xmlns:xlink="http://www.w3.org/1999/xlink" x="0px" y="0px"
	 viewBox="0 0 460 460" style="enable-background:new 0 0 460 460;" xml:space="preserve">
<g>
	<path style="fill:#FFB743;" d="M420,315V155H40v240h340v-80H420z M220,315H80v-40h140V315z M220,235H80v-40h140V235z M340,275v40
		h-40v-40h-40v-40h40v-40h40v40h40v40H340z"/>
	<rect x="305" y="65" style="fill:#FFB743;" width="155" height="50"/>
	<rect y="65" style="fill:#FFB743;" width="155" height="50"/>
	<rect x="420" y="155" style="fill:#FFD152;" width="40" height="160"/>
	<polygon style="fill:#EF1F4B;" points="305,65 155,65 155,115 0,115 0,155 460,155 460,115 305,115 	"/>
	<polygon style="fill:#EF1F4B;" points="380,235 340,235 340,195 300,195 300,235 260,235 260,275 300,275 300,315 340,315 340,275 
		380,275 	"/>
	<polygon style="fill:#FFB007;" points="380,315 380,395 460,315 	"/>
	<rect y="155" style="fill:#FFD152;" width="40" height="240"/>
	<rect x="80" y="275" style="fill:#EF1F4B;" width="140" height="40"/>
	<rect x="80" y="195" style="fill:#EF1F4B;" width="140" height="40"/>
</g>
<g>
</g>
<g>
</g>
<g>
</g>
<g>
</g>
<g>
</g>
<g>
</g>
<g>
</g>
<g>
</g>
<g>
</g>
<g>
</g>
<g>
</g>
<g>
</g>
<g>
</g>
<g>
</g>
<g>
</g>
</svg>
