<?xml version="1.0" encoding="iso-8859-1"?>
<!-- Generator: Adobe Illustrator 19.0.0, SVG Export Plug-In . SVG Version: 6.00 Build 0)  -->
<svg version="1.1" id="Capa_1" xmlns="http://www.w3.org/2000/svg" xmlns:xlink="http://www.w3.org/1999/xlink" x="0px" y="0px"
	 viewBox="0 0 460 460" style="enable-background:new 0 0 460 460;" xml:space="preserve">
<g>
	<polygon style="fill:#0B389C;" points="250.216,405 291.182,172.674 240,175 199.445,405 	"/>
	<rect x="160" y="105" style="fill:#1398AD;" width="40" height="40"/>
	<polygon style="fill:#4370D9;" points="240,75 200,55 200,125 240,125 	"/>
	<polygon style="fill:#0B389C;" points="200,125 200,195 240,175 240,125 	"/>
	<path style="fill:#3FC3D8;" d="M160,145L39.303,159.696C17.686,162.398,0,146.785,0,125s17.686-37.398,39.303-34.696L160,105"/>
	<path style="fill:#4370D9;" d="M240,175l180.041-8.184C442.019,165.817,460,147,460,125H240V175z"/>
	<path style="fill:#3FC3D8;" d="M420.041,83.184L240,75v50h220C460,103,442.019,84.183,420.041,83.184z"/>
</g>
<g>
</g>
<g>
</g>
<g>
</g>
<g>
</g>
<g>
</g>
<g>
</g>
<g>
</g>
<g>
</g>
<g>
</g>
<g>
</g>
<g>
</g>
<g>
</g>
<g>
</g>
<g>
</g>
<g>
</g>
</svg>
