<?xml version="1.0" encoding="iso-8859-1"?>
<!-- Generator: Adobe Illustrator 19.0.0, SVG Export Plug-In . SVG Version: 6.00 Build 0)  -->
<svg version="1.1" id="Capa_1" xmlns="http://www.w3.org/2000/svg" xmlns:xlink="http://www.w3.org/1999/xlink" x="0px" y="0px"
	 viewBox="0 0 460.001 460.001" style="enable-background:new 0 0 460.001 460.001;" xml:space="preserve">
<g>
	<path style="fill:#1398AD;" d="M389.276,198.032l70.725-70.725l-28.291-28.291l-42.433,42.433l-21.217-21.217L410.491,77.8
		L382.2,49.509l-42.432,42.432l14.146,14.146l-28.291,28.291l-14.146-14.146L180.348,251.362
		c6.065,2.903,11.658,6.843,16.553,11.738l-28.291,28.292c7.799,7.799,7.799,20.485,0,28.284c-3.776,3.776-8.803,5.862-14.149,5.862
		c-5.339,0.007-10.366-2.079-14.142-5.855l-37.929,37.929c-2.376,15.669-4.95,32.188-5.933,37.116
		c-1.506,7.502-4.2,13.096-8.223,17.091c-5.303,5.275-12.346,8.174-19.827,8.174c-7.552,0-14.651-2.956-19.976-8.323l-0.049-0.05
		L20.09,439.912c12.884,12.954,30.045,20.089,48.316,20.089c9.065,0,17.847-1.753,25.979-5.105
		c8.132-3.352,15.613-8.302,22.033-14.679c9.708-9.638,16.193-22.288,19.269-37.611c1.167-5.82,3.84-22.974,6.173-38.389
		c4.094,0.87,8.316,1.33,12.601,1.33c16.037,0,31.105-6.244,42.44-17.579c18.439-18.439,22.335-45.986,11.712-68.288
		l131.155-131.155L389.276,198.032z"/>
	<polygon style="fill:#3FC3D8;" points="353.914,106.087 339.768,91.941 318.551,70.725 360.985,28.291 332.694,0 261.969,70.725 
		311.477,120.233 325.623,134.378 	"/>
	<path style="fill:#3FC3D8;" d="M48.331,411.571c-5.339-5.296-8.294-12.353-8.323-19.877c-0.028-7.51,2.871-14.595,8.174-19.926
		c3.995-4.023,9.588-6.718,17.091-8.224c8.485-1.711,20.747-3.734,37.151-6.152c-0.014,0.071-0.021,0.148-0.035,0.219l37.929-37.929
		c-7.799-7.8-7.792-20.492,0.007-28.291c3.769-3.783,8.796-5.855,14.135-5.862c5.346,0,10.373,2.086,14.149,5.862l28.291-28.292
		c-4.895-4.895-10.488-8.835-16.553-11.738c-7.979-3.82-16.776-5.841-25.887-5.841c-16.023,0-31.092,6.244-42.426,17.579
		c-14.863,14.863-20.273,35.645-16.249,54.829c-16.737,2.482-29.423,4.589-38.389,6.385c-15.323,3.076-27.973,9.56-37.611,19.269
		C6.958,356.495-0.063,373.642,0.001,391.85c0.064,18.18,7.198,35.242,20.089,48.062l28.291-28.291L48.331,411.571z"/>
</g>
<g>
</g>
<g>
</g>
<g>
</g>
<g>
</g>
<g>
</g>
<g>
</g>
<g>
</g>
<g>
</g>
<g>
</g>
<g>
</g>
<g>
</g>
<g>
</g>
<g>
</g>
<g>
</g>
<g>
</g>
</svg>
