<?xml version="1.0" encoding="iso-8859-1"?>
<!-- Generator: Adobe Illustrator 19.0.0, SVG Export Plug-In . SVG Version: 6.00 Build 0)  -->
<svg version="1.1" id="Capa_1" xmlns="http://www.w3.org/2000/svg" xmlns:xlink="http://www.w3.org/1999/xlink" x="0px" y="0px"
	 viewBox="0 0 460 460" style="enable-background:new 0 0 460 460;" xml:space="preserve">
<g>
	<path style="fill:#EF1F4B;" d="M280.143,252.768l45.64-60.322c15.885-20.994,24.273-46.027,24.273-72.39
		C350.056,53.854,296.201,0,230,0v39.989c44.228,0,80.067,35.85,80.067,80.067c0,18.125-6.018,34.84-16.175,48.266L115.25,404.444
		l8.1,55.556L230,319.042l25.069-33.134l89.681,118.537l55.672,7.309L280.143,252.768z"/>
	<path style="fill:#EF1F4B;" d="M149.933,120.056c0,18.125,6.018,34.84,16.175,48.266l38.818,51.309L230,186.488l-32.001-42.299
		c-5.289-6.988-8.078-15.336-8.078-24.133c0-22.104,17.975-40.079,40.079-40.079V39.989
		C185.772,39.989,149.933,75.838,149.933,120.056z"/>
	<polygon style="fill:#EA6453;" points="230,319.042 336.65,460 344.75,404.444 255.069,285.908 	"/>
	<path style="fill:#EA6453;" d="M293.892,168.322c10.157-13.426,16.175-30.142,16.175-48.266c0-44.218-35.84-80.067-80.067-80.067
		v39.989c22.104,0,40.079,17.975,40.079,40.079c0,8.797-2.789,17.145-8.078,24.133L230,186.488l-25.074,33.143l-38.818-51.309
		c-10.157-13.426-16.175-30.142-16.175-48.266c0-44.218,35.84-80.067,80.067-80.067V0c-66.201,0-120.056,53.854-120.056,120.056
		c0,26.362,8.388,51.396,24.273,72.39l45.64,60.322L59.578,411.753l55.672-7.309L293.892,168.322z"/>
</g>
<g>
</g>
<g>
</g>
<g>
</g>
<g>
</g>
<g>
</g>
<g>
</g>
<g>
</g>
<g>
</g>
<g>
</g>
<g>
</g>
<g>
</g>
<g>
</g>
<g>
</g>
<g>
</g>
<g>
</g>
</svg>
