<?xml version="1.0" encoding="iso-8859-1"?>
<!-- Generator: Adobe Illustrator 19.0.0, SVG Export Plug-In . SVG Version: 6.00 Build 0)  -->
<svg version="1.1" id="Capa_1" xmlns="http://www.w3.org/2000/svg" xmlns:xlink="http://www.w3.org/1999/xlink" x="0px" y="0px"
	 viewBox="0 0 460.005 460.005" style="enable-background:new 0 0 460.005 460.005;" xml:space="preserve">
<g>
	<circle style="fill:#0B389C;" cx="20" cy="440.003" r="20"/>
	<circle style="fill:#0B389C;" cx="440.005" cy="440.003" r="20"/>
	<polygon style="fill:#6BE0F4;" points="180.002,380.003 180.002,340.003 140.002,340.003 140.002,380.003 40,380.003 40,340.003 
		0,340.003 0,420.003 230.003,420.003 230.003,380.003 	"/>
	<polygon style="fill:#3FC3D8;" points="460.005,340.003 420.005,340.003 420.005,380.003 320.004,380.003 320.004,340.003 
		280.004,340.003 280.004,380.003 230.003,380.003 230.003,420.003 460.005,420.003 	"/>
	<circle style="fill:#0B389C;" cx="300.004" cy="440.003" r="20"/>
	<circle style="fill:#0B389C;" cx="160.002" cy="440.003" r="20"/>
	<path style="fill:#6BE0F4;" d="M50,0.003c-27.614,0-50,22.386-50,50v30h40v-30c0-5.514,4.486-10,10-10h90.002v40h40v-40h50.001v-40
		H50z"/>
	<path style="fill:#3FC3D8;" d="M410.005,0.003H230.003v40h50.001v40h40v-40h90.002c5.514,0,10,4.486,10,10v30h40v-30
		C460.005,22.388,437.62,0.003,410.005,0.003z"/>
	<rect y="80.003" style="fill:#FFE292;" width="153.335" height="260"/>
	<rect x="153.335" y="80.003" style="fill:#FFD152;" width="153.335" height="260"/>
	<rect x="306.67" y="80.003" style="fill:#FFB743;" width="153.335" height="260"/>
</g>
<g>
</g>
<g>
</g>
<g>
</g>
<g>
</g>
<g>
</g>
<g>
</g>
<g>
</g>
<g>
</g>
<g>
</g>
<g>
</g>
<g>
</g>
<g>
</g>
<g>
</g>
<g>
</g>
<g>
</g>
</svg>
