<?xml version="1.0" encoding="iso-8859-1"?>
<!-- Generator: Adobe Illustrator 19.0.0, SVG Export Plug-In . SVG Version: 6.00 Build 0)  -->
<svg version="1.1" id="Capa_1" xmlns="http://www.w3.org/2000/svg" xmlns:xlink="http://www.w3.org/1999/xlink" x="0px" y="0px"
	 viewBox="0 0 460 460" style="enable-background:new 0 0 460 460;" xml:space="preserve">
<g>
	<path style="fill:#1398AD;" d="M439.108,15.831L432.019,0l-33.767,33.767c12.711,20.243,4.832,51.739-18.322,74.893l-79.798,79.798
		l28.285,28.285l79.798-79.798c16.151-16.151,27.694-35.799,33.38-56.819C447.614,57.88,446.754,35.647,439.108,15.831z"/>
	<path style="fill:#3FC3D8;" d="M152.859,279.16l43.871-43.871L152.859,279.16z"/>
	<path style="fill:#3FC3D8;" d="M398.252,33.767L236.413,195.606l7.074-7.074l28.285,28.285L379.93,108.66
		C403.084,85.506,410.963,54.01,398.252,33.767z"/>
	<path style="fill:#4370D9;" d="M215.202,216.817l-62.342,62.342L14.447,417.572L56.875,460l221.966-221.966
		c-0.017-0.017-21.228,21.194-21.228,21.194L215.202,216.817z"/>
	<path style="fill:#4370D9;" d="M236.413,195.606l-18.814,18.814L236.413,195.606z"/>
	<polygon style="fill:#0B389C;" points="236.413,195.606 215.202,216.817 257.613,259.229 278.824,238.017 285.898,230.943 
		243.487,188.532 	"/>
</g>
<g>
</g>
<g>
</g>
<g>
</g>
<g>
</g>
<g>
</g>
<g>
</g>
<g>
</g>
<g>
</g>
<g>
</g>
<g>
</g>
<g>
</g>
<g>
</g>
<g>
</g>
<g>
</g>
<g>
</g>
</svg>
