<?xml version="1.0" encoding="iso-8859-1"?>
<!-- Generator: Adobe Illustrator 19.0.0, SVG Export Plug-In . SVG Version: 6.00 Build 0)  -->
<svg version="1.1" id="Capa_1" xmlns="http://www.w3.org/2000/svg" xmlns:xlink="http://www.w3.org/1999/xlink" x="0px" y="0px"
	 viewBox="0 0 460 460" style="enable-background:new 0 0 460 460;" xml:space="preserve">
<g>
	<path style="fill:#F57B71;" d="M340,0v40h27.31c27.5,0,48.53,22.45,46.74,49.89l-18.276,280.216
		C393.984,397.548,370.02,420,342.52,420H230v40h230V0H340z"/>
	<path style="fill:#EF9E8F;" d="M230,120v300h112.52c27.5,0,51.464-22.452,53.254-49.894L414.05,89.89
		C415.84,62.45,394.81,40,367.31,40H340v80H230z"/>
	<polygon style="fill:#EF1F4B;" points="300,40 300,80 230,80 230,120 340,120 340,0 230,0 230,40 	"/>
	<path style="fill:#EF9E8F;" d="M117.48,420c-27.5,0-51.464-22.452-53.254-49.894L45.95,89.89C44.16,62.45,65.19,40,92.69,40H120V0
		H0v460h230v-40H117.48z"/>
	<path style="fill:#FFFFFF;" d="M120,120V40H92.69c-27.5,0-48.53,22.45-46.74,49.89l18.276,280.216
		C66.016,397.548,89.98,420,117.48,420H230V120H120z"/>
	<rect x="160" y="40" style="fill:#FFFFFF;" width="140" height="40"/>
	<polygon style="fill:#EA6453;" points="120,120 230,120 230,80 160,80 160,40 230,40 230,0 120,0 	"/>
</g>
<g>
</g>
<g>
</g>
<g>
</g>
<g>
</g>
<g>
</g>
<g>
</g>
<g>
</g>
<g>
</g>
<g>
</g>
<g>
</g>
<g>
</g>
<g>
</g>
<g>
</g>
<g>
</g>
<g>
</g>
</svg>
