<?xml version="1.0" encoding="iso-8859-1"?>
<!-- Generator: Adobe Illustrator 19.0.0, SVG Export Plug-In . SVG Version: 6.00 Build 0)  -->
<svg version="1.1" id="Capa_1" xmlns="http://www.w3.org/2000/svg" xmlns:xlink="http://www.w3.org/1999/xlink" x="0px" y="0px"
	 viewBox="0 0 460 460" style="enable-background:new 0 0 460 460;" xml:space="preserve">
<g>
	<path style="fill:#1398AD;" d="M129.786,0c-17.034,9.834-29.219,25.714-34.31,44.712c-5.091,18.999-2.478,38.843,7.356,55.877
		l84.673,146.809L230,173.731L129.786,0z"/>
	<path style="fill:#1398AD;" d="M365,270c-25.028,0-47.791,9.683-64.759,25.501l-27.747-48.103L230,321.077l51.985,90.134
		c0.45,0.806,0.91,1.605,1.382,2.397l0.134,0.231C300.109,441.491,330.392,460,365,460c52.467,0,95-42.533,95-95
		S417.467,270,365,270z M365,420c-30.327,0-55-24.673-55-55s24.673-55,55-55s55,24.673,55,55S395.327,420,365,420z"/>
	<path style="fill:#3FC3D8;" d="M357.167,100.589c9.834-17.034,12.447-36.878,7.356-55.877C359.432,25.714,347.248,9.834,330.214,0
		L230,173.731l-42.494,73.668l-27.747,48.103C142.79,279.683,120.028,270,95,270c-52.467,0-95,42.533-95,95s42.533,95,95,95
		c34.608,0,64.891-18.509,81.498-46.165c0.001,0.004,0.135-0.228,0.135-0.228c0.472-0.791,0.933-1.591,1.382-2.397L230,321.077
		l42.494-73.678L357.167,100.589z M95,420c-30.327,0-55-24.673-55-55s24.673-55,55-55s55,24.673,55,55S125.327,420,95,420z"/>
</g>
<g>
</g>
<g>
</g>
<g>
</g>
<g>
</g>
<g>
</g>
<g>
</g>
<g>
</g>
<g>
</g>
<g>
</g>
<g>
</g>
<g>
</g>
<g>
</g>
<g>
</g>
<g>
</g>
<g>
</g>
</svg>
