<?xml version="1.0" encoding="iso-8859-1"?>
<!-- Generator: Adobe Illustrator 19.0.0, SVG Export Plug-In . SVG Version: 6.00 Build 0)  -->
<svg version="1.1" id="Capa_1" xmlns="http://www.w3.org/2000/svg" xmlns:xlink="http://www.w3.org/1999/xlink" x="0px" y="0px"
	 viewBox="0 0 460 460" style="enable-background:new 0 0 460 460;" xml:space="preserve">
<g>
	<rect x="355.119" y="380" style="fill:#0B389C;" width="40" height="80"/>
	<rect x="125.119" y="380" style="fill:#4370D9;" width="40" height="80"/>
	<path style="fill:#EA6453;" d="M40,145.119C40,87.156,87.156,40,145.119,40V0C64.972,0,0,64.972,0,145.119
		s64.972,145.119,145.119,145.119v-40C87.156,250.238,40,203.082,40,145.119z"/>
	<path style="fill:#EF1F4B;" d="M145.119,0v40c57.963,0,105.119,47.156,105.119,105.119s-47.156,105.119-105.119,105.119v40
		c80.147,0,145.119-64.972,145.119-145.119S225.266,0,145.119,0z"/>
	<path style="fill:#FFFFFF;" d="M40,145.119c0,57.963,47.156,105.119,105.119,105.119V186.19h-15v-28.313
		c-2.872-3.463-4.6-7.908-4.6-12.759s1.728-9.296,4.6-12.759V65.714h15V40C87.156,40,40,87.156,40,145.119z"/>
	<path style="fill:#6BE0F4;" d="M160.119,65.714v65.767c3.34,3.574,5.4,8.36,5.4,13.638s-2.06,10.064-5.4,13.638v27.433h-15v64.048
		c57.963,0,105.119-47.156,105.119-105.119S203.082,40,145.119,40v25.714H160.119z"/>
	<rect x="315.119" y="315.238" style="fill:#3FC3D8;" width="40" height="40"/>
	<path style="fill:#1398AD;" d="M355.119,287.607V380h40v-92.393c-6.416,1.55-13.108,2.393-20,2.393
		C368.227,290,361.535,289.158,355.119,287.607z"/>
	<rect x="145.119" y="290.238" style="fill:#1398AD;" width="60" height="89.762"/>
	<rect x="85.119" y="290.238" style="fill:#3FC3D8;" width="60" height="89.762"/>
	<path style="fill:#0B389C;" d="M375.119,0v290c6.892,0,13.584-0.842,20-2.393C432.341,278.612,460,245.103,460,205.119V84.881
		C460,38.005,421.995,0,375.119,0z"/>
	<path style="fill:#4370D9;" d="M375.119,0c-46.876,0-84.881,38.005-84.881,84.881v120.238c0,39.984,27.659,73.493,64.881,82.488
		c6.416,1.551,13.108,2.393,20,2.393V0z"/>
	<path style="fill:#4370D9;" d="M145.519,125.119c5.768,0,10.95,2.456,14.6,6.362V65.714h-30v66.646
		C133.788,127.938,139.323,125.119,145.519,125.119z"/>
	<path style="fill:#4370D9;" d="M160.119,158.757c-3.65,3.906-8.833,6.362-14.6,6.362c-6.195,0-11.731-2.818-15.4-7.241v28.313h30
		V158.757z"/>
	<path style="fill:#EA6453;" d="M145.519,165.119c5.768,0,10.95-2.456,14.6-6.362c3.34-3.574,5.4-8.36,5.4-13.638
		s-2.06-10.064-5.4-13.638c-3.65-3.906-8.833-6.362-14.6-6.362c-6.195,0-11.731,2.818-15.4,7.241c-2.872,3.463-4.6,7.908-4.6,12.759
		s1.728,9.296,4.6,12.759C133.788,162.301,139.323,165.119,145.519,165.119z"/>
</g>
<g>
</g>
<g>
</g>
<g>
</g>
<g>
</g>
<g>
</g>
<g>
</g>
<g>
</g>
<g>
</g>
<g>
</g>
<g>
</g>
<g>
</g>
<g>
</g>
<g>
</g>
<g>
</g>
<g>
</g>
</svg>
