<?xml version="1.0" encoding="iso-8859-1"?>
<!-- Generator: Adobe Illustrator 19.0.0, SVG Export Plug-In . SVG Version: 6.00 Build 0)  -->
<svg version="1.1" id="Capa_1" xmlns="http://www.w3.org/2000/svg" xmlns:xlink="http://www.w3.org/1999/xlink" x="0px" y="0px"
	 viewBox="0 0 460 460" style="enable-background:new 0 0 460 460;" xml:space="preserve">
<g>
	<path style="fill:#3FC3D8;" d="M40,345.365C28.047,352.282,20,365.197,20,380c0,22.091,17.909,40,40,40s40-17.909,40-40
		c0-14.803-8.047-27.718-20-34.635C74.115,341.959,67.288,340,60,340S45.885,341.959,40,345.365z"/>
	<path style="fill:#1398AD;" d="M380,345.365c-11.953,6.917-20,19.832-20,34.635c0,22.091,17.909,40,40,40s40-17.909,40-40
		c0-14.803-8.047-27.718-20-34.635c-5.885-3.406-12.712-5.365-20-5.365S385.885,341.959,380,345.365z"/>
	<path style="fill:#4370D9;" d="M80,260v-40h150v-40H120V80h110V40H80v140H0v40h40v125.365C45.885,341.959,52.712,340,60,340
		s14.115,1.959,20,5.365V300h150v-40H80z"/>
	<rect x="380" y="120" style="fill:#1398AD;" width="80" height="60"/>
	<rect x="230" y="120" style="fill:#1398AD;" width="110" height="60"/>
	<rect x="120" y="120" style="fill:#3FC3D8;" width="110" height="60"/>
	<rect y="120" style="fill:#3FC3D8;" width="80" height="60"/>
	<path style="fill:#0B389C;" d="M380,40H230v40h110v100H230v40h150v40H230v40h150v45.365c5.885-3.406,12.712-5.365,20-5.365
		s14.115,1.959,20,5.365V220h40v-40h-80V40z"/>
</g>
<g>
</g>
<g>
</g>
<g>
</g>
<g>
</g>
<g>
</g>
<g>
</g>
<g>
</g>
<g>
</g>
<g>
</g>
<g>
</g>
<g>
</g>
<g>
</g>
<g>
</g>
<g>
</g>
<g>
</g>
</svg>
