<?xml version="1.0" encoding="iso-8859-1"?>
<!-- Generator: Adobe Illustrator 19.0.0, SVG Export Plug-In . SVG Version: 6.00 Build 0)  -->
<svg version="1.1" id="Capa_1" xmlns="http://www.w3.org/2000/svg" xmlns:xlink="http://www.w3.org/1999/xlink" x="0px" y="0px"
	 viewBox="0 0 460.354 460.354" style="enable-background:new 0 0 460.354 460.354;" xml:space="preserve">
<g>
	<polygon style="fill:#EF9E8F;" points="93.175,296.822 233.889,156.107 262.173,184.392 290.646,155.92 234.077,99.351 
		36.089,297.34 92.657,353.908 121.459,325.106 	"/>
	<polygon style="fill:#F57B71;" points="290.646,155.92 262.173,184.392 290.458,212.676 149.744,353.39 121.459,325.106 
		92.657,353.908 149.226,410.477 347.214,212.488 	"/>
	<polygon style="fill:#EF8CA7;" points="318.578,127.28 361.004,84.854 417.572,141.422 445.858,113.136 332.72,0 304.435,28.285 
		332.72,56.57 290.294,98.996 233.725,42.427 205.439,70.713 375.852,241.126 404.138,212.84 	"/>
	
		<rect x="323.933" y="100.21" transform="matrix(0.7071 -0.7071 0.7071 0.7071 18.6636 285.4769)" style="fill:#F57B71;" width="60" height="40"/>
	
		<rect x="157.674" y="141.107" transform="matrix(0.7071 0.7071 -0.7071 0.7071 222.1743 -55.1624)" style="fill:#EA6453;" width="40" height="199"/>
	
		<rect x="185.958" y="169.391" transform="matrix(0.7071 0.7071 -0.7071 0.7071 250.4586 -66.8781)" style="fill:#EF1F4B;" width="40" height="199"/>
	<polygon style="fill:#EA6453;" points="78.514,339.766 14.496,403.784 14.496,460.354 106.799,368.051 	"/>
</g>
<g>
</g>
<g>
</g>
<g>
</g>
<g>
</g>
<g>
</g>
<g>
</g>
<g>
</g>
<g>
</g>
<g>
</g>
<g>
</g>
<g>
</g>
<g>
</g>
<g>
</g>
<g>
</g>
<g>
</g>
</svg>
