<?xml version="1.0" encoding="iso-8859-1"?>
<!-- Generator: Adobe Illustrator 19.0.0, SVG Export Plug-In . SVG Version: 6.00 Build 0)  -->
<svg version="1.1" id="Capa_1" xmlns="http://www.w3.org/2000/svg" xmlns:xlink="http://www.w3.org/1999/xlink" x="0px" y="0px"
	 viewBox="0 0 460.003 460.003" style="enable-background:new 0 0 460.003 460.003;" xml:space="preserve">
<g>
	<g>
		
			<rect x="99.838" y="165.667" transform="matrix(0.7071 0.7071 -0.7071 0.7071 234.4182 -14.6045)" style="fill:#4370D9;" width="70" height="220"/>
	</g>
	<g>
		<path style="fill:#0B389C;" d="M374.143,114.145c22.302,10.65,49.816,6.752,68.287-11.719c23.431-23.432,23.432-61.422,0-84.853
			l-28.284,28.284c7.811,7.811,7.811,20.474,0,28.284s-20.474,7.811-28.284,0l-28.284,28.284c-4.96-4.96-8.858-10.577-11.718-16.565
			l-23.637,23.637l14.142,14.142l-70.711,70.711l-28.284-28.284l-21.213-21.213l-28.284,28.284l49.498,49.497L81.805,378.198
			l-14.142-14.142L0,431.718l28.284,28.285l67.663-67.663l35.355,35.354l183.848-183.848l-21.213-21.213l24.954-24.954
			c0.786,14.228,6.604,28.229,17.472,39.097c23.431,23.431,61.422,23.431,84.853,0c23.431-23.432,23.431-61.422,0-84.854
			c-18.471-18.471-45.985-22.369-68.287-11.718l-2.424-2.424L374.143,114.145z M392.932,180.208c7.81,7.811,7.811,20.474,0,28.284
			c-7.811,7.812-20.474,7.811-28.284,0c-7.81-7.81-7.811-20.473,0-28.284C372.459,172.397,385.122,172.398,392.932,180.208z"/>
	</g>
	<g>
		<path style="fill:#4370D9;" d="M336.364,123.639l-16.566-16.565c10.651-22.302,6.753-49.816-11.718-68.287
			c-23.432-23.432-61.422-23.432-84.853,0s-23.432,61.421,0,84.853c10.868,10.868,24.869,16.687,39.096,17.473l-24.954,24.954
			l28.284,28.284L336.364,123.639z M251.511,67.071c7.811-7.811,20.474-7.811,28.284,0c7.811,7.811,7.811,20.474,0,28.284
			c-7.811,7.811-20.474,7.811-28.284,0C243.7,87.544,243.7,74.881,251.511,67.071z"/>
	</g>
	<g>
		<path style="fill:#4370D9;" d="M385.861,74.142c-7.811-7.811-7.811-20.474,0-28.284c7.811-7.811,20.474-7.811,28.284,0
			l28.284-28.284c-23.432-23.432-61.422-23.432-84.853,0c-18.471,18.471-22.369,45.985-11.718,68.287
			c2.86,5.988,6.758,11.605,11.718,16.565L385.861,74.142z"/>
	</g>
</g>
<g>
</g>
<g>
</g>
<g>
</g>
<g>
</g>
<g>
</g>
<g>
</g>
<g>
</g>
<g>
</g>
<g>
</g>
<g>
</g>
<g>
</g>
<g>
</g>
<g>
</g>
<g>
</g>
<g>
</g>
</svg>
