<?xml version="1.0" encoding="iso-8859-1"?>
<!-- Generator: Adobe Illustrator 19.0.0, SVG Export Plug-In . SVG Version: 6.00 Build 0)  -->
<svg version="1.1" id="Capa_1" xmlns="http://www.w3.org/2000/svg" xmlns:xlink="http://www.w3.org/1999/xlink" x="0px" y="0px"
	 viewBox="0 0 460.003 460.003" style="enable-background:new 0 0 460.003 460.003;" xml:space="preserve">
<g>
	<path style="fill:#3FC3D8;" d="M410.003,50.001H50c-27.5,0-50,22.5-50,50v130h460.003v-130
		C460.003,72.501,437.503,50.001,410.003,50.001z M90.001,190.001c-27.614,0-50-22.386-50-50s22.386-50,50-50s50,22.386,50,50
		S117.616,190.001,90.001,190.001z M230.001,190.001c-27.614,0-50-22.386-50-50s22.386-50,50-50s50,22.386,50,50
		S257.616,190.001,230.001,190.001z M370.001,190.001c-27.614,0-50-22.386-50-50s22.386-50,50-50s50,22.386,50,50
		S397.616,190.001,370.001,190.001z"/>
	<path style="fill:#1398AD;" d="M0,230.001v130c0,27.5,22.5,50,50,50h360.003c27.5,0,50-22.5,50-50v-130H0z M90.001,370.001
		c-27.614,0-50-22.386-50-50s22.386-50,50-50s50,22.386,50,50S117.616,370.001,90.001,370.001z M230.001,370.001
		c-27.614,0-50-22.386-50-50s22.386-50,50-50s50,22.386,50,50S257.616,370.001,230.001,370.001z M370.001,370.001
		c-27.614,0-50-22.386-50-50s22.386-50,50-50s50,22.386,50,50S397.616,370.001,370.001,370.001z"/>
	<path style="fill:#FFE292;" d="M90.001,270.001v100c27.614,0,50-22.386,50-50S117.616,270.001,90.001,270.001z"/>
	<path style="fill:#FFFFFF;" d="M40.001,320.001c0,27.614,22.386,50,50,50v-100C62.387,270.001,40.001,292.387,40.001,320.001z"/>
	<path style="fill:#FFE292;" d="M230.001,270.001v100c27.614,0,50-22.386,50-50S257.616,270.001,230.001,270.001z"/>
	<path style="fill:#FFFFFF;" d="M180.001,320.001c0,27.614,22.386,50,50,50v-100C202.387,270.001,180.001,292.387,180.001,320.001z"
		/>
	<path style="fill:#FFE292;" d="M370.001,270.001v100c27.614,0,50-22.386,50-50S397.616,270.001,370.001,270.001z"/>
	<path style="fill:#FFFFFF;" d="M320.001,320.001c0,27.614,22.386,50,50,50v-100C342.387,270.001,320.001,292.387,320.001,320.001z"
		/>
	<path style="fill:#6BE0F4;" d="M90.001,90.001v100c27.614,0,50-22.386,50-50S117.616,90.001,90.001,90.001z"/>
	<path style="fill:#FFFFFF;" d="M40.001,140.001c0,27.614,22.386,50,50,50v-100C62.387,90.001,40.001,112.387,40.001,140.001z"/>
	<path style="fill:#6BE0F4;" d="M230.001,90.001v100c27.614,0,50-22.386,50-50S257.616,90.001,230.001,90.001z"/>
	<path style="fill:#FFFFFF;" d="M180.001,140.001c0,27.614,22.386,50,50,50v-100C202.387,90.001,180.001,112.387,180.001,140.001z"
		/>
	<path style="fill:#6BE0F4;" d="M370.001,90.001v100c27.614,0,50-22.386,50-50S397.616,90.001,370.001,90.001z"/>
	<path style="fill:#FFFFFF;" d="M320.001,140.001c0,27.614,22.386,50,50,50v-100C342.387,90.001,320.001,112.387,320.001,140.001z"
		/>
</g>
<g>
</g>
<g>
</g>
<g>
</g>
<g>
</g>
<g>
</g>
<g>
</g>
<g>
</g>
<g>
</g>
<g>
</g>
<g>
</g>
<g>
</g>
<g>
</g>
<g>
</g>
<g>
</g>
<g>
</g>
</svg>
