<?xml version="1.0" encoding="iso-8859-1"?>
<!-- Generator: Adobe Illustrator 19.0.0, SVG Export Plug-In . SVG Version: 6.00 Build 0)  -->
<svg version="1.1" id="Capa_1" xmlns="http://www.w3.org/2000/svg" xmlns:xlink="http://www.w3.org/1999/xlink" x="0px" y="0px"
	 viewBox="0 0 460 460" style="enable-background:new 0 0 460 460;" xml:space="preserve">
<g>
	<rect x="80" style="fill:#4370D9;" width="150" height="40"/>
	<rect x="230" style="fill:#0B389C;" width="150" height="40"/>
	<polygon style="fill:#4370D9;" points="190,420 190,380 230,380 230,340 80,340 80,460 230,460 230,420 	"/>
	<polygon style="fill:#0B389C;" points="230,380 270,380 270,420 230,420 230,460 380,460 380,340 230,340 	"/>
	<polygon style="fill:#FFE292;" points="230,300 193,300 193,227 120,227 120,153 193,153 193,80 230,80 230,40 80,40 80,340 
		230,340 	"/>
	<polygon style="fill:#EF9E8F;" points="230,80 267,80 267,153 340,153 340,227 267,227 267,300 230,300 230,340 380,340 380,40 
		230,40 	"/>
	<rect x="190" y="380" style="fill:#FFE292;" width="80" height="40"/>
	<polygon style="fill:#EF1F4B;" points="267,300 267,227 340,227 340,153 267,153 267,80 230,80 230,300 	"/>
	<polygon style="fill:#EA6453;" points="193,153 120,153 120,227 193,227 193,300 230,300 230,80 193,80 	"/>
</g>
<g>
</g>
<g>
</g>
<g>
</g>
<g>
</g>
<g>
</g>
<g>
</g>
<g>
</g>
<g>
</g>
<g>
</g>
<g>
</g>
<g>
</g>
<g>
</g>
<g>
</g>
<g>
</g>
<g>
</g>
</svg>
