<?xml version="1.0" encoding="iso-8859-1"?>
<!-- Generator: Adobe Illustrator 19.0.0, SVG Export Plug-In . SVG Version: 6.00 Build 0)  -->
<svg version="1.1" id="Capa_1" xmlns="http://www.w3.org/2000/svg" xmlns:xlink="http://www.w3.org/1999/xlink" x="0px" y="0px"
	 viewBox="0 0 459.997 459.997" style="enable-background:new 0 0 459.997 459.997;" xml:space="preserve">
<g>
	
		<rect x="22.425" y="377.568" transform="matrix(-0.7071 -0.7071 0.7071 -0.7071 -222.8363 742.8339)" style="fill:#0B389C;" width="40.006" height="80"/>
	<polygon style="fill:#3FC3D8;" points="361.098,98.9 382.742,120.545 294.898,208.388 273.289,186.709 188.472,271.526 
		238.4,321.455 439.311,120.545 389.382,70.616 	"/>
	<path style="fill:#1398AD;" d="M439.318,20.68l-49.936,49.936l49.929,49.929C466.888,92.967,466.895,48.257,439.318,20.68z"/>
	<polygon style="fill:#1398AD;" points="129.746,330.251 143.89,344.395 238.4,321.455 188.472,271.526 	"/>
	<polygon style="fill:#0B389C;" points="294.898,208.388 382.742,120.545 361.098,98.9 273.289,186.709 	"/>
	<polygon style="fill:#3FC3D8;" points="188.472,271.526 138.543,221.597 115.602,316.107 56.569,375.14 84.857,403.428 
		143.89,344.395 129.746,330.251 	"/>
	<polygon style="fill:#6BE0F4;" points="273.289,186.709 251.68,165.029 339.453,77.255 361.098,98.9 389.382,70.616 
		339.453,20.687 138.543,221.597 188.472,271.526 	"/>
	<polygon style="fill:#4370D9;" points="251.68,165.029 273.289,186.709 361.098,98.9 339.453,77.255 	"/>
	<path style="fill:#3FC3D8;" d="M439.318,20.68c-27.577-27.577-72.288-27.57-99.865,0.007l49.929,49.929L439.318,20.68z"/>
</g>
<g>
</g>
<g>
</g>
<g>
</g>
<g>
</g>
<g>
</g>
<g>
</g>
<g>
</g>
<g>
</g>
<g>
</g>
<g>
</g>
<g>
</g>
<g>
</g>
<g>
</g>
<g>
</g>
<g>
</g>
</svg>
