<?xml version="1.0" encoding="iso-8859-1"?>
<!-- Generator: Adobe Illustrator 19.0.0, SVG Export Plug-In . SVG Version: 6.00 Build 0)  -->
<svg version="1.1" id="Capa_1" xmlns="http://www.w3.org/2000/svg" xmlns:xlink="http://www.w3.org/1999/xlink" x="0px" y="0px"
	 viewBox="0 0 460 460" style="enable-background:new 0 0 460 460;" xml:space="preserve">
<g>
	<path style="fill:#FFB743;" d="M230,0v40h20v39.513c21.492,3.281,41.292,11.769,58.078,24.125l27.988-27.988l28.284,28.284
		l-27.988,27.988c12.356,16.786,20.844,36.586,24.125,58.078H400v40h-39.513c-3.281,21.492-11.769,41.292-24.125,58.078
		l27.988,27.988l-28.284,28.284l-27.988-27.988c-16.786,12.356-36.585,20.844-58.078,24.125V380h-20v80h210V210
		C440,94.02,345.98,0,230,0z"/>
	<path style="fill:#FFE292;" d="M210,380v-39.513c-21.492-3.281-41.292-11.769-58.078-24.125l-27.988,27.988L95.65,316.066
		l27.988-27.988c-12.356-16.786-20.844-36.586-24.125-58.078H60v-40h39.513c3.281-21.492,11.769-41.292,24.125-58.078L95.65,103.934
		l28.284-28.284l27.988,27.988C168.708,91.282,188.508,82.794,210,79.513V40h20V0C114.02,0,20,94.02,20,210v250h210v-80H210z"/>
	<path style="fill:#EF1F4B;" d="M210,79.513C216.524,78.517,223.203,78,230,78s13.476,0.517,20,1.513V40h-40V79.513z"/>
	<path style="fill:#EA6453;" d="M151.922,103.638L123.934,75.65L95.65,103.934l27.988,27.988
		C131.583,121.128,141.128,111.583,151.922,103.638z"/>
	<path style="fill:#EA6453;" d="M99.513,190H60v40h39.513C98.517,223.476,98,216.798,98,210S98.517,196.524,99.513,190z"/>
	<path style="fill:#EA6453;" d="M123.638,288.078L95.65,316.066l28.284,28.284l27.988-27.988
		C141.128,308.417,131.583,298.872,123.638,288.078z"/>
	<path style="fill:#EF1F4B;" d="M210,340.487V380h40v-39.513c-6.524,0.996-13.203,1.513-20,1.513S216.524,341.483,210,340.487z"/>
	<path style="fill:#EF1F4B;" d="M308.078,316.362l27.988,27.988l28.284-28.284l-27.988-27.988
		C328.417,298.872,318.872,308.417,308.078,316.362z"/>
	<path style="fill:#EF1F4B;" d="M360.487,230H400v-40h-39.513c0.996,6.524,1.513,13.202,1.513,20S361.483,223.476,360.487,230z"/>
	<path style="fill:#EF1F4B;" d="M336.362,131.922l27.988-27.988L336.066,75.65l-27.988,27.988
		C318.872,111.583,328.417,121.128,336.362,131.922z"/>
	<path style="fill:#FFFFFF;" d="M230,300h-20V120h20V78c-6.797,0-13.476,0.517-20,1.513c-21.492,3.281-41.292,11.769-58.078,24.125
		c-10.794,7.945-20.339,17.49-28.284,28.284c-12.356,16.786-20.844,36.586-24.125,58.078C98.517,196.524,98,203.202,98,210
		s0.517,13.476,1.513,20c3.281,21.492,11.769,41.292,24.125,58.078c7.945,10.794,17.49,20.339,28.284,28.284
		c16.786,12.356,36.585,20.844,58.078,24.125c6.524,0.996,13.203,1.513,20,1.513V300z"/>
	<path style="fill:#FFE292;" d="M230,120h20v180h-20v42c6.797,0,13.476-0.517,20-1.513c21.492-3.281,41.292-11.769,58.078-24.125
		c10.794-7.945,20.339-17.49,28.284-28.284c12.356-16.786,20.844-36.586,24.125-58.078c0.996-6.524,1.513-13.202,1.513-20
		s-0.517-13.476-1.513-20c-3.281-21.492-11.769-41.292-24.125-58.078c-7.945-10.794-17.49-20.339-28.284-28.284
		C291.292,91.282,271.492,82.794,250,79.513C243.476,78.517,236.797,78,230,78V120z"/>
	<rect x="210" y="120" style="fill:#FFB743;" width="40" height="180"/>
</g>
<g>
</g>
<g>
</g>
<g>
</g>
<g>
</g>
<g>
</g>
<g>
</g>
<g>
</g>
<g>
</g>
<g>
</g>
<g>
</g>
<g>
</g>
<g>
</g>
<g>
</g>
<g>
</g>
<g>
</g>
</svg>
