<?xml version="1.0" encoding="iso-8859-1"?>
<!-- Generator: Adobe Illustrator 19.0.0, SVG Export Plug-In . SVG Version: 6.00 Build 0)  -->
<svg version="1.1" id="Capa_1" xmlns="http://www.w3.org/2000/svg" xmlns:xlink="http://www.w3.org/1999/xlink" x="0px" y="0px"
	 viewBox="0 0 460 460" style="enable-background:new 0 0 460 460;" xml:space="preserve">
<g>
	<path style="fill:#FFD152;" d="M310.844,0C279.571,0,251.134,12.154,230,31.986c0,0,0,46.721,0,103.345V240
		c27.614,0,50,22.386,50,50v170h39.55c27.362,0,55.64-21.593,62.844-47.979L429,241.189V118.108C429,52.882,376.096,0,310.844,0z"/>
	<path style="fill:#FFE292;" d="M149.156,0C83.904,0,31,52.882,31,118.108v123.081l46.606,170.832
		C84.81,438.407,113.088,460,140.45,460H180V290c0-27.614,22.386-50,50-50c0-33.153,0-70.693,0-104.668
		c0-56.625,0-103.345,0-103.345C208.866,12.154,180.429,0,149.156,0z M111,241.189H71v-40h40V241.189z M149.156,80
		C128.117,80,111,97.095,111,118.108V160H71v-41.892C71,75.039,106.061,40,149.156,40V80z"/>
	<path style="fill:#FFFFFF;" d="M71,118.108V160h40v-41.892C111,97.095,128.117,80,149.156,80V40C106.061,40,71,75.039,71,118.108z"
		/>
	<rect x="71" y="201.189" style="fill:#FFFFFF;" width="40" height="40"/>
</g>
<g>
</g>
<g>
</g>
<g>
</g>
<g>
</g>
<g>
</g>
<g>
</g>
<g>
</g>
<g>
</g>
<g>
</g>
<g>
</g>
<g>
</g>
<g>
</g>
<g>
</g>
<g>
</g>
<g>
</g>
</svg>
