<?xml version="1.0" encoding="iso-8859-1"?>
<!-- Generator: Adobe Illustrator 19.0.0, SVG Export Plug-In . SVG Version: 6.00 Build 0)  -->
<svg version="1.1" id="Capa_1" xmlns="http://www.w3.org/2000/svg" xmlns:xlink="http://www.w3.org/1999/xlink" x="0px" y="0px"
	 viewBox="0 0 460 460" style="enable-background:new 0 0 460 460;" xml:space="preserve">
<g>
	<polygon style="fill:#EF1F4B;" points="165,150 164.384,150 145,227.538 145,460 185,460 185,232.462 205,152.462 205,0 165,0 	"/>
	<rect x="105" y="90" style="fill:#F57B71;" width="60" height="30"/>
	<rect x="105" y="60" style="fill:#EF9E8F;" width="60" height="30"/>
	<rect x="105" y="120" style="fill:#EF9E8F;" width="60" height="30"/>
	<rect x="105" y="30" style="fill:#F57B71;" width="60" height="30"/>
	<rect x="105" style="fill:#EF9E8F;" width="60" height="30"/>
	<rect x="285" style="fill:#EF1F4B;" width="60" height="50"/>
	<polygon style="fill:#EF1F4B;" points="315,420 405,420 385,90 315,90 	"/>
	<polygon style="fill:#3FC3D8;" points="315,90 385,90 345,50 315,50 	"/>
	<polygon style="fill:#EA6453;" points="315,90 245,90 225,420 315,420 	"/>
	<polygon style="fill:#6BE0F4;" points="315,50 285,50 245,90 315,90 	"/>
	<rect x="225" y="420" style="fill:#EF9E8F;" width="90" height="40"/>
	<rect x="315" y="420" style="fill:#F57B71;" width="90" height="40"/>
	<path style="fill:#6BE0F4;" d="M105,50c0-27.5-22.5-50-50-50v150h50V50z"/>
</g>
<g>
</g>
<g>
</g>
<g>
</g>
<g>
</g>
<g>
</g>
<g>
</g>
<g>
</g>
<g>
</g>
<g>
</g>
<g>
</g>
<g>
</g>
<g>
</g>
<g>
</g>
<g>
</g>
<g>
</g>
</svg>
