<?xml version="1.0" encoding="iso-8859-1"?>
<!-- Generator: Adobe Illustrator 19.0.0, SVG Export Plug-In . SVG Version: 6.00 Build 0)  -->
<svg version="1.1" id="Capa_1" xmlns="http://www.w3.org/2000/svg" xmlns:xlink="http://www.w3.org/1999/xlink" x="0px" y="0px"
	 viewBox="0 0 460 460" style="enable-background:new 0 0 460 460;" xml:space="preserve">
<g>
	<path style="fill:#EF9E8F;" d="M20.442,382.99l-8.726,8.726c-15.621,15.621-15.621,40.948,0,56.568
		c15.621,15.621,40.948,15.621,56.568,0l8.726-8.726l-28.284-28.284L20.442,382.99z"/>
	
		<rect x="404.645" y="47.782" transform="matrix(-0.7071 0.7071 -0.7071 -0.7071 779.9129 -167.489)" style="fill:#EF1F4B;" width="40" height="60"/>
	<polygon style="fill:#EF1F4B;" points="262.009,226.275 247.867,212.133 48.726,411.274 77.01,439.558 91.152,453.701 
		403.431,141.421 375.147,113.137 	"/>
	
		<rect x="352.218" y="15.355" transform="matrix(0.7071 0.7071 -0.7071 0.7071 136.9482 -259.9131)" style="fill:#EA6453;" width="60" height="40"/>
	<polygon style="fill:#EA6453;" points="247.867,212.133 233.725,197.991 346.863,84.853 318.579,56.569 322.607,52.54 
		6.299,368.848 20.442,382.99 48.726,411.274 	"/>
	<polygon style="fill:#EF8CA7;" points="389.289,70.711 361.005,98.995 375.147,113.137 403.431,141.421 431.716,113.137 	"/>
	<polygon style="fill:#EF9E8F;" points="346.863,84.853 233.725,197.991 247.867,212.133 262.009,226.275 375.147,113.137 
		361.005,98.995 389.289,70.711 346.863,28.284 322.607,52.54 318.579,56.569 	"/>
</g>
<g>
</g>
<g>
</g>
<g>
</g>
<g>
</g>
<g>
</g>
<g>
</g>
<g>
</g>
<g>
</g>
<g>
</g>
<g>
</g>
<g>
</g>
<g>
</g>
<g>
</g>
<g>
</g>
<g>
</g>
</svg>
