<?xml version="1.0" encoding="iso-8859-1"?>
<!-- Generator: Adobe Illustrator 19.0.0, SVG Export Plug-In . SVG Version: 6.00 Build 0)  -->
<svg version="1.1" id="Capa_1" xmlns="http://www.w3.org/2000/svg" xmlns:xlink="http://www.w3.org/1999/xlink" x="0px" y="0px"
	 viewBox="0 0 460 460" style="enable-background:new 0 0 460 460;" xml:space="preserve">
<g>
	<path style="fill:#0B389C;" d="M215.381,301.188c-15.596,15.596-40.972,15.596-56.569,0l-28.284,28.284
		c-4.882-4.882-8.998-10.242-12.352-15.932L0,431.716L28.284,460L146.46,341.824c30.667,18.075,70.894,13.958,97.205-12.352
		L379.35,193.787l-28.284-28.284L215.381,301.188z"/>
	<path style="fill:#4370D9;" d="M332.721,14.142l28.284,28.284L332.721,14.142z"/>
	<path style="fill:#4370D9;" d="M158.812,301.188c-15.596-15.596-15.596-40.972,0-56.568l135.685-135.685L266.213,80.65
		L130.528,216.335c-26.311,26.311-30.427,66.538-12.352,97.205c3.354,5.69,7.471,11.051,12.352,15.932L158.812,301.188z"/>
	<polygon style="fill:#3FC3D8;" points="361.005,42.426 332.721,14.142 318.579,0 252.071,66.508 294.497,108.934 	"/>
	
		<rect x="375.533" y="106.434" transform="matrix(0.7071 0.7071 -0.7071 0.7071 227.2924 -241.8074)" style="fill:#1398AD;" width="60" height="94.056"/>
</g>
<g>
</g>
<g>
</g>
<g>
</g>
<g>
</g>
<g>
</g>
<g>
</g>
<g>
</g>
<g>
</g>
<g>
</g>
<g>
</g>
<g>
</g>
<g>
</g>
<g>
</g>
<g>
</g>
<g>
</g>
</svg>
