<?xml version="1.0" encoding="iso-8859-1"?>
<!-- Generator: Adobe Illustrator 19.0.0, SVG Export Plug-In . SVG Version: 6.00 Build 0)  -->
<svg version="1.1" id="Capa_1" xmlns="http://www.w3.org/2000/svg" xmlns:xlink="http://www.w3.org/1999/xlink" x="0px" y="0px"
	 viewBox="0 0 460 460" style="enable-background:new 0 0 460 460;" xml:space="preserve">
<g>
	<polygon style="fill:#3FC3D8;" points="332.72,0 304.435,28.285 332.72,56.569 290.293,98.996 318.578,127.28 361.004,84.854 
		417.572,141.422 445.858,113.137 	"/>
	
		<rect x="204.435" y="121.422" transform="matrix(-0.7071 -0.7071 0.7071 -0.7071 419.7021 456.6906)" style="fill:#0B389C;" width="200" height="40.001"/>
	
		<rect x="323.933" y="100.209" transform="matrix(0.7071 -0.7071 0.7071 0.7071 18.6638 285.4768)" style="fill:#1398AD;" width="60" height="40"/>
	
		<rect x="182.511" y="135.774" transform="matrix(0.7071 0.7071 -0.7071 0.7071 257.2442 -69.4959)" style="fill:#1398AD;" width="60" height="279.999"/>
	
		<rect x="168.368" y="185.064" transform="matrix(-0.7071 -0.7071 0.7071 -0.7071 193.6339 490.3319)" style="fill:#3FC3D8;" width="60" height="39.999"/>
	
		<rect x="111.799" y="241.632" transform="matrix(-0.7071 -0.7071 0.7071 -0.7071 57.0642 546.9005)" style="fill:#3FC3D8;" width="60" height="40"/>
	
		<rect x="224.937" y="128.494" transform="matrix(0.7071 0.7071 -0.7071 0.7071 179.6697 -136.7746)" style="fill:#3FC3D8;" width="60.001" height="40"/>
	
		<rect x="55.232" y="298.199" transform="matrix(-0.7071 -0.7071 0.7071 -0.7071 -79.5019 603.4675)" style="fill:#3FC3D8;" width="60" height="40"/>
	
		<rect x="206.652" y="146.778" transform="matrix(0.7071 -0.7071 0.7071 0.7071 -58.6162 212.0446)" style="fill:#0B389C;" width="40.001" height="60.002"/>
	
		<rect x="150.083" y="203.347" transform="matrix(0.7071 -0.7071 0.7071 0.7071 -115.1851 188.613)" style="fill:#0B389C;" width="40.001" height="60.001"/>
	
		<rect x="93.516" y="259.915" transform="matrix(0.7071 -0.7071 0.7071 0.7071 -171.7541 165.1841)" style="fill:#0B389C;" width="40" height="60.001"/>
	<polygon style="fill:#0B389C;" points="78.16,339.412 14.142,403.43 14.142,460 106.445,367.697 	"/>
</g>
<g>
</g>
<g>
</g>
<g>
</g>
<g>
</g>
<g>
</g>
<g>
</g>
<g>
</g>
<g>
</g>
<g>
</g>
<g>
</g>
<g>
</g>
<g>
</g>
<g>
</g>
<g>
</g>
<g>
</g>
</svg>
