<?xml version="1.0" encoding="iso-8859-1"?>
<!-- Generator: Adobe Illustrator 19.0.0, SVG Export Plug-In . SVG Version: 6.00 Build 0)  -->
<svg version="1.1" id="Capa_1" xmlns="http://www.w3.org/2000/svg" xmlns:xlink="http://www.w3.org/1999/xlink" x="0px" y="0px"
	 viewBox="0 0 460 460" style="enable-background:new 0 0 460 460;" xml:space="preserve">
<g>
	<path style="fill:#1398AD;" d="M290,270V170c0-5.514-4.486-10-10-10h-50v110H290z"/>
	<path style="fill:#3FC3D8;" d="M170,170v100h60V160h-50C174.486,160,170,164.486,170,170z"/>
	<path style="fill:#3FC3D8;" d="M230,420h50c5.514,0,10-4.486,10-10V270h-60V420z"/>
	<path style="fill:#6BE0F4;" d="M170,270v140c0,5.514,4.486,10,10,10h50V270H170z"/>
	<path style="fill:#4370D9;" d="M160,40v40h20v40c-27.614,0-50,22.386-50,50v240c0,27.614,22.386,50,50,50h50v-40h-50
		c-5.514,0-10-4.486-10-10V170c0-5.514,4.486-10,10-10h50V40H160z"/>
	<path style="fill:#0B389C;" d="M280,120V80h20V40h-70v120h50c5.514,0,10,4.486,10,10v240c0,5.514-4.486,10-10,10h-50v40h50
		c27.614,0,50-22.386,50-50V170C330,142.386,307.614,120,280,120z"/>
	<rect x="160" style="fill:#FFD152;" width="70" height="40"/>
	<rect x="230" style="fill:#FFB743;" width="70" height="40"/>
</g>
<g>
</g>
<g>
</g>
<g>
</g>
<g>
</g>
<g>
</g>
<g>
</g>
<g>
</g>
<g>
</g>
<g>
</g>
<g>
</g>
<g>
</g>
<g>
</g>
<g>
</g>
<g>
</g>
<g>
</g>
</svg>
