<?xml version="1.0" encoding="iso-8859-1"?>
<!-- Generator: Adobe Illustrator 19.0.0, SVG Export Plug-In . SVG Version: 6.00 Build 0)  -->
<svg version="1.1" id="Capa_1" xmlns="http://www.w3.org/2000/svg" xmlns:xlink="http://www.w3.org/1999/xlink" x="0px" y="0px"
	 viewBox="0 0 460 460" style="enable-background:new 0 0 460 460;" xml:space="preserve">
<g>
	<rect x="80" y="373.95" style="fill:#FFB007;" width="55" height="86.05"/>
	<rect x="80" y="263.95" style="fill:#3FC3D8;" width="55" height="110"/>
	<path style="fill:#FFB007;" d="M105.29,218.3c16.79-9.03,28.2-26.75,28.2-47.14c0-15.44-6.55-29.34-17.02-39.1l-4.41-101.39
		C111.32,13.61,97.25,0,80,0v263.95h55C135,243.67,122.75,226.12,105.29,218.3z"/>
	<rect x="25" y="373.95" style="fill:#FFB743;" width="55" height="86.05"/>
	<rect x="25" y="263.95" style="fill:#6BE0F4;" width="55" height="110"/>
	<path style="fill:#FFB743;" d="M80,0C62.75,0,48.68,13.61,47.94,30.67l-4.41,101.39c-10.47,9.76-17.02,23.66-17.02,39.1
		c0,20.39,11.41,38.11,28.2,47.14C37.25,226.12,25,243.67,25,263.95h55V0z"/>
	<rect x="230" y="373.95" style="fill:#FFB007;" width="55" height="86.05"/>
	<rect x="230" y="263.95" style="fill:#3FC3D8;" width="55" height="110"/>
	<path style="fill:#FFB007;" d="M255.29,218.3c16.79-9.03,28.2-26.75,28.2-47.14c0-15.44-6.55-29.34-17.02-39.1l-4.41-101.39
		C261.32,13.61,247.25,0,230,0v263.95h55C285,243.67,272.75,226.12,255.29,218.3z"/>
	<rect x="175" y="373.95" style="fill:#FFB743;" width="55" height="86.05"/>
	<rect x="175" y="263.95" style="fill:#6BE0F4;" width="55" height="110"/>
	<path style="fill:#FFB743;" d="M230,0c-17.25,0-31.32,13.61-32.06,30.67l-4.41,101.39c-10.47,9.76-17.02,23.66-17.02,39.1
		c0,20.39,11.41,38.11,28.2,47.14c-17.46,7.82-29.71,25.37-29.71,45.65h55V0z"/>
	<rect x="380" y="373.95" style="fill:#FFB007;" width="55" height="86.05"/>
	<rect x="380" y="263.95" style="fill:#3FC3D8;" width="55" height="110"/>
	<path style="fill:#FFB007;" d="M435,263.95c0-20.28-12.25-37.83-29.71-45.65c16.79-9.03,28.2-26.75,28.2-47.14
		c0-15.44-6.55-29.34-17.02-39.1l-4.41-101.39C411.32,13.61,397.25,0,380,0v263.95H435z"/>
	<rect x="325" y="373.95" style="fill:#FFB743;" width="55" height="86.05"/>
	<rect x="325" y="263.95" style="fill:#6BE0F4;" width="55" height="110"/>
	<path style="fill:#FFB743;" d="M380,0c-17.25,0-31.32,13.61-32.06,30.67l-4.41,101.39c-10.47,9.76-17.02,23.66-17.02,39.1
		c0,20.39,11.41,38.11,28.2,47.14c-17.46,7.82-29.71,25.37-29.71,45.65h55V0z"/>
</g>
<g>
</g>
<g>
</g>
<g>
</g>
<g>
</g>
<g>
</g>
<g>
</g>
<g>
</g>
<g>
</g>
<g>
</g>
<g>
</g>
<g>
</g>
<g>
</g>
<g>
</g>
<g>
</g>
<g>
</g>
</svg>
