<?xml version="1.0" encoding="iso-8859-1"?>
<!-- Generator: Adobe Illustrator 19.0.0, SVG Export Plug-In . SVG Version: 6.00 Build 0)  -->
<svg version="1.1" id="Capa_1" xmlns="http://www.w3.org/2000/svg" xmlns:xlink="http://www.w3.org/1999/xlink" x="0px" y="0px"
	 viewBox="0 0 460 460" style="enable-background:new 0 0 460 460;" xml:space="preserve">
<g>
	<path style="fill:#3FC3D8;" d="M102.894,250c2.263-35.557,4.541-70.908,6.425-100H222.27v-40H111.917
		c1.164-17.871,1.877-28.745,1.877-28.745C114.959,64.313,130.292,50,147.273,50h9V10h-9c-37.865,0-70.786,30.733-73.385,68.509
		c0,0-14.574,222.696-19.661,311.491h40.021c1.457-25.254,3.681-61.341,6.114-100H222.27v-40H102.894z"/>
	<path style="fill:#1398AD;" d="M389.967,363.143C384.226,274.874,370.72,78.48,370.72,78.48C368.074,40.72,335.126,10,297.273,10
		h-9v40h9c16.995,0,32.356,14.323,33.544,31.276c0,0,0.747,10.914,1.963,28.724H222.27v40h113.238
		c1.999,29.349,4.415,64.885,6.79,100H222.27v40h122.728c1.923,28.573,3.692,55.02,5.028,75.339
		c6.759-3.408,14.389-5.339,22.475-5.339C378.645,360,384.529,361.114,389.967,363.143z"/>
	<rect x="156.273" style="fill:#4370D9;" width="132" height="60"/>
	<path style="fill:#4370D9;" d="M372.5,360c-8.086,0-15.716,1.931-22.475,5.339C333.703,373.57,322.5,390.471,322.5,410
		c0,27.614,22.386,50,50,50V360z"/>
	<path style="fill:#0B389C;" d="M389.967,363.143C384.529,361.114,378.645,360,372.5,360v100c27.614,0,50-22.386,50-50
		C422.5,388.531,408.966,370.228,389.967,363.143z"/>
	<rect x="37.5" y="390" style="fill:#4370D9;" width="70" height="70"/>
</g>
<g>
</g>
<g>
</g>
<g>
</g>
<g>
</g>
<g>
</g>
<g>
</g>
<g>
</g>
<g>
</g>
<g>
</g>
<g>
</g>
<g>
</g>
<g>
</g>
<g>
</g>
<g>
</g>
<g>
</g>
</svg>
