<?xml version="1.0" encoding="iso-8859-1"?>
<!-- Generator: Adobe Illustrator 19.0.0, SVG Export Plug-In . SVG Version: 6.00 Build 0)  -->
<svg version="1.1" id="Capa_1" xmlns="http://www.w3.org/2000/svg" xmlns:xlink="http://www.w3.org/1999/xlink" x="0px" y="0px"
	 viewBox="0 0 460 460" style="enable-background:new 0 0 460 460;" xml:space="preserve">
<g>
	<path style="fill:#1398AD;" d="M54.411,400H0v40h54.412c-3.406-5.885-5.365-12.712-5.365-20S51.006,405.885,54.411,400z"/>
	<path style="fill:#1398AD;" d="M69.62,385.035C75.373,381.832,81.995,380,89.047,380c7.525,0,14.562,2.081,20.573,5.694v-74.506
		h-40V385.035z"/>
	<path style="fill:#1398AD;" d="M109.62,161c0-16.542,13.458-30,30-30h159.444l-4.39,34.418c5.746-0.681,11.588-1.042,17.514-1.042
		c7.724,0,15.312,0.598,22.719,1.746L350.993,40H415V0h-99.229l-11.605,91H139.62c-38.598,0-70,31.402-70,70v61.196h40V161z"/>
	<path style="fill:#EF9E8F;" d="M31,222.196v88.992h133.389c0.223-33.452,11.614-64.297,30.625-88.992H31z"/>
	<path style="fill:#EA6453;" d="M89.047,380c-7.052,0-13.674,1.832-19.427,5.035c-6.323,3.521-11.587,8.707-15.209,14.965
		c-3.406,5.885-5.365,12.712-5.365,20s1.959,14.115,5.365,20c6.917,11.953,19.832,20,34.635,20V380z"/>
	<path style="fill:#EF1F4B;" d="M89.047,460c22.091,0,40-17.909,40-40c0-14.567-7.789-27.312-19.427-34.306
		C103.608,382.081,96.572,380,89.047,380V460z"/>
	<path style="fill:#EA6453;" d="M244.38,312.19c0,37.39,30.419,67.809,67.808,67.81V244.38
		C274.799,244.381,244.38,274.801,244.38,312.19z"/>
	<path style="fill:#EA6453;" d="M204.38,312.19c0-59.449,48.359-107.809,107.808-107.81v-40.004c-5.926,0-11.768,0.361-17.514,1.042
		c-40.47,4.8-75.975,26.011-99.66,56.778c-19.011,24.695-30.402,55.54-30.625,88.992c-0.002,0.334-0.013,0.666-0.013,1
		c0,81.504,66.308,147.812,147.812,147.812v-40C252.739,419.999,204.38,371.64,204.38,312.19z"/>
	<path style="fill:#EF1F4B;" d="M380,312.19c0-37.39-30.42-67.81-67.81-67.81c-0.001,0-0.001,135.62-0.001,135.62
		C349.58,380,380,349.58,380,312.19z"/>
	<path style="fill:#EF1F4B;" d="M334.908,166.122c-7.408-1.148-14.995-1.746-22.719-1.746v40.004
		C371.64,204.38,420,252.74,420,312.19C420,371.64,371.64,420,312.19,420c-0.001,0-0.001,40-0.001,40
		C393.692,460,460,393.692,460,312.188C460,238.408,405.664,177.084,334.908,166.122z"/>
	<path style="fill:#3FC3D8;" d="M380,312.19c0,37.39-30.42,67.81-67.81,67.81v40C371.64,420,420,371.64,420,312.19
		c0-59.45-48.36-107.81-107.81-107.81v40C349.58,244.38,380,274.8,380,312.19z"/>
	<path style="fill:#6BE0F4;" d="M204.38,312.19c0,59.45,48.359,107.809,107.808,107.81c0.001,0,0.001-40,0.001-40
		c-37.391-0.001-67.81-30.421-67.81-67.81c0-37.389,30.419-67.809,67.808-67.81c0.001,0,0.001-40,0.001-40
		C252.739,204.381,204.38,252.74,204.38,312.19z"/>
</g>
<g>
</g>
<g>
</g>
<g>
</g>
<g>
</g>
<g>
</g>
<g>
</g>
<g>
</g>
<g>
</g>
<g>
</g>
<g>
</g>
<g>
</g>
<g>
</g>
<g>
</g>
<g>
</g>
<g>
</g>
</svg>
