<?xml version="1.0" encoding="iso-8859-1"?>
<!-- Generator: Adobe Illustrator 19.0.0, SVG Export Plug-In . SVG Version: 6.00 Build 0)  -->
<svg version="1.1" id="Capa_1" xmlns="http://www.w3.org/2000/svg" xmlns:xlink="http://www.w3.org/1999/xlink" x="0px" y="0px"
	 viewBox="0 0 460 460" style="enable-background:new 0 0 460 460;" xml:space="preserve">
<g>
	<polygon style="fill:#4370D9;" points="35,0 35,40 95,40 95,130 135,130 135,40 355,40 355,0 	"/>
	<polygon style="fill:#0B389C;" points="95,130 95,150 55,150 55,190 95,190 95,340 135,340 135,130 	"/>
	<rect x="95" y="340" style="fill:#4370D9;" width="330" height="40"/>
	<path style="fill:#0B389C;" d="M135,380v80c22.091,0,40-17.909,40-40S157.091,380,135,380z"/>
	<path style="fill:#4370D9;" d="M95,420c0,22.091,17.909,40,40,40v-80C112.909,380,95,397.909,95,420z"/>
	<path style="fill:#0B389C;" d="M385,380v80c22.091,0,40-17.909,40-40S407.091,380,385,380z"/>
	<path style="fill:#4370D9;" d="M345,420c0,22.091,17.909,40,40,40v-80C362.909,380,345,397.909,345,420z"/>
</g>
<g>
</g>
<g>
</g>
<g>
</g>
<g>
</g>
<g>
</g>
<g>
</g>
<g>
</g>
<g>
</g>
<g>
</g>
<g>
</g>
<g>
</g>
<g>
</g>
<g>
</g>
<g>
</g>
<g>
</g>
</svg>
