<?xml version="1.0" encoding="iso-8859-1"?>
<!-- Generator: Adobe Illustrator 19.0.0, SVG Export Plug-In . SVG Version: 6.00 Build 0)  -->
<svg version="1.1" id="Capa_1" xmlns="http://www.w3.org/2000/svg" xmlns:xlink="http://www.w3.org/1999/xlink" x="0px" y="0px"
	 viewBox="0 0 460 460" style="enable-background:new 0 0 460 460;" xml:space="preserve">
<g>
	<path style="fill:#EF1F4B;" d="M230,180.18h90.1l26.12-26.11c16.85-16.86,44.18-16.86,61.04,0c16.85,16.85,16.85,44.18,0,61.04
		l-17.4,17.39l17.4,17.39c16.85,16.86,16.85,44.19,0,61.04c-16.86,16.86-44.19,16.86-61.04,0l-26.12-26.11H230V392.5h230v-325H230
		V180.18z"/>
	<path style="fill:#EA6453;" d="M230,284.82h-90.1l-26.12,26.11c-16.85,16.86-44.18,16.86-61.04,0c-16.85-16.85-16.85-44.18,0-61.04
		l17.4-17.39l-17.4-17.39c-16.85-16.86-16.85-44.19,0-61.04c16.86-16.86,44.19-16.86,61.04,0l26.12,26.11H230V67.5H0v325h230V284.82
		z"/>
	<path style="fill:#6BE0F4;" d="M320.1,284.82l26.12,26.11c16.85,16.86,44.18,16.86,61.04,0c16.85-16.85,16.85-44.18,0-61.04
		l-17.4-17.39l17.4-17.39c16.85-16.86,16.85-44.19,0-61.04c-16.86-16.86-44.19-16.86-61.04,0l-26.12,26.11H230v104.64H320.1z"/>
	<path style="fill:#FFFFFF;" d="M113.78,154.07c-16.85-16.86-44.18-16.86-61.04,0c-16.85,16.85-16.85,44.18,0,61.04l17.4,17.39
		l-17.4,17.39c-16.85,16.86-16.85,44.19,0,61.04c16.86,16.86,44.19,16.86,61.04,0l26.12-26.11H230V180.18h-90.1L113.78,154.07z"/>
	<rect y="27.5" style="fill:#3FC3D8;" width="460" height="40"/>
	<rect y="392.5" style="fill:#3FC3D8;" width="460" height="40"/>
</g>
<g>
</g>
<g>
</g>
<g>
</g>
<g>
</g>
<g>
</g>
<g>
</g>
<g>
</g>
<g>
</g>
<g>
</g>
<g>
</g>
<g>
</g>
<g>
</g>
<g>
</g>
<g>
</g>
<g>
</g>
</svg>
